<svg id="Group_68" data-name="Group 68" xmlns="http://www.w3.org/2000/svg" viewBox="0 0 335.522 31.043">
  <defs>
    <style>
      .cls-1 {
        fill: none;
      }

      .cls-2 {
        fill: #f8c40f;
      }

      .cls-3 {
        fill: #fff;
      }

      .cls-4 {
        fill: #ef6945;
      }

      .cls-5 {
        fill: #00af87;
      }
    </style>
  </defs>
  <g id="Group_66" data-name="Group 66">
    <g id="Group_63" data-name="Group 63" transform="translate(7.56 11.226)">
      <g id="Group_49" data-name="Group 49">
        <g id="Group_45" data-name="Group 45" transform="translate(1.26 3.322)">
          <path id="Path_59" data-name="Path 59" class="cls-1" d="M12.511,12.7a4.811,4.811,0,1,0,4.811,4.811A4.84,4.84,0,0,0,12.511,12.7Z" transform="translate(-7.7 -12.7)"/>
        </g>
        <g id="Group_46" data-name="Group 46" transform="translate(6.3 1.031)">
          <path id="Path_60" data-name="Path 60" class="cls-1" d="M21.837,12.189a5.351,5.351,0,0,1,1.947-.344A13.647,13.647,0,0,0,17.942,10.7,15.61,15.61,0,0,0,12.1,11.846a6.07,6.07,0,0,1,5.842,5.613,4.668,4.668,0,0,1,.573-2.062A5.728,5.728,0,0,1,21.837,12.189Z" transform="translate(-12.1 -10.7)"/>
        </g>
        <g id="Group_47" data-name="Group 47" transform="translate(13.187 3.367)">
          <path id="Path_61" data-name="Path 61" class="cls-1" d="M21.306,13.038a4.956,4.956,0,0,0-2.749,2.52,4.544,4.544,0,0,0-.115,3.666h0a5.355,5.355,0,0,0,2.52,2.749,4.544,4.544,0,0,0,3.666.115,4.82,4.82,0,1,0-3.322-9.05Z" transform="translate(-18.111 -12.739)"/>
        </g>
        <g id="Group_48" data-name="Group 48">
          <path id="Path_62" data-name="Path 62" d="M30.312,15.871a6.172,6.172,0,0,0-.8-1.489,6.29,6.29,0,0,1,1.146-2.406H26.647A14.524,14.524,0,0,0,18.628,9.8a15.1,15.1,0,0,0-8.248,2.291H6.6A6.29,6.29,0,0,1,7.746,14.5,6.249,6.249,0,0,0,6.6,18.048a6.111,6.111,0,0,0,6.071,6.071,6.032,6.032,0,0,0,4.7-2.291l1.26,1.947,1.26-1.947a6.067,6.067,0,0,0,6.759,1.947A6.245,6.245,0,0,0,30.312,15.871ZM12.671,22.744a4.811,4.811,0,1,1,4.811-4.811A4.84,4.84,0,0,1,12.671,22.744Zm6.071-5.269A6.07,6.07,0,0,0,12.9,11.862a15.61,15.61,0,0,1,5.842-1.146,13.647,13.647,0,0,1,5.842,1.146,5.818,5.818,0,0,0-1.947.344A6.5,6.5,0,0,0,19.2,15.3,8.235,8.235,0,0,0,18.742,17.475Zm7.56,5.04a5.047,5.047,0,0,1-3.666-.115,4.956,4.956,0,0,1-2.52-2.749h0a5.047,5.047,0,0,1,.115-3.666,4.956,4.956,0,0,1,2.749-2.52,4.82,4.82,0,0,1,3.322,9.05Z" transform="translate(-6.6 -9.8)"/>
        </g>
      </g>
      <g id="Group_50" data-name="Group 50" transform="translate(6.3 1.031)">
        <path id="Path_63" data-name="Path 63" class="cls-2" d="M21.837,12.189a5.351,5.351,0,0,1,1.947-.344A13.647,13.647,0,0,0,17.942,10.7,15.61,15.61,0,0,0,12.1,11.846a6.07,6.07,0,0,1,5.842,5.613,4.668,4.668,0,0,1,.573-2.062A5.728,5.728,0,0,1,21.837,12.189Z" transform="translate(-12.1 -10.7)"/>
      </g>
      <g id="Group_51" data-name="Group 51" transform="translate(13.187 3.367)">
        <path id="Path_64" data-name="Path 64" class="cls-3" d="M21.306,13.038a4.956,4.956,0,0,0-2.749,2.52,4.544,4.544,0,0,0-.115,3.666h0a5.355,5.355,0,0,0,2.52,2.749,4.544,4.544,0,0,0,3.666.115,4.82,4.82,0,1,0-3.322-9.05Zm1.718,7.446A2.978,2.978,0,1,1,26,17.505,3.033,3.033,0,0,1,23.024,20.484Z" transform="translate(-18.111 -12.739)"/>
      </g>
      <g id="Group_52" data-name="Group 52" transform="translate(16.152 6.186)">
        <path id="Path_65" data-name="Path 65" class="cls-3" d="M22.647,15.2a1.947,1.947,0,1,0,1.947,1.947A1.931,1.931,0,0,0,22.647,15.2Zm0,2.864a1.031,1.031,0,1,1,1.031-1.031A1.027,1.027,0,0,1,22.647,18.064Z" transform="translate(-20.7 -15.2)"/>
      </g>
      <g id="Group_53" data-name="Group 53" transform="translate(4.124 6.186)">
        <path id="Path_66" data-name="Path 66" class="cls-3" d="M12.147,15.2a1.947,1.947,0,1,0,1.947,1.947A1.931,1.931,0,0,0,12.147,15.2Zm0,2.864a1.031,1.031,0,1,1,1.031-1.031A1.209,1.209,0,0,1,12.147,18.064Z" transform="translate(-10.2 -15.2)"/>
      </g>
      <g id="Group_54" data-name="Group 54" transform="translate(1.26 3.322)">
        <path id="Path_67" data-name="Path 67" class="cls-3" d="M12.511,12.7a4.811,4.811,0,1,0,4.811,4.811A4.84,4.84,0,0,0,12.511,12.7Zm0,7.79a2.978,2.978,0,1,1,2.978-2.978A3.114,3.114,0,0,1,12.511,20.49Z" transform="translate(-7.7 -12.7)"/>
      </g>
      <g id="Group_55" data-name="Group 55" transform="translate(5.04 7.102)">
        <path id="Path_68" data-name="Path 68" class="cls-4" d="M12.031,16a1.031,1.031,0,1,0,1.031,1.031A1.209,1.209,0,0,0,12.031,16Z" transform="translate(-11 -16)"/>
      </g>
      <g id="Group_56" data-name="Group 56" transform="translate(17.068 7.102)">
        <path id="Path_69" data-name="Path 69" class="cls-5" d="M22.531,16a1.031,1.031,0,1,0,1.031,1.031A1.027,1.027,0,0,0,22.531,16Z" transform="translate(-21.5 -16)"/>
      </g>
      <g id="Group_57" data-name="Group 57" transform="translate(6.3 1.031)">
        <path id="Path_70" data-name="Path 70" class="cls-1" d="M21.837,12.189a5.351,5.351,0,0,1,1.947-.344A13.647,13.647,0,0,0,17.942,10.7,15.61,15.61,0,0,0,12.1,11.846a6.07,6.07,0,0,1,5.842,5.613,4.668,4.668,0,0,1,.573-2.062A5.728,5.728,0,0,1,21.837,12.189Z" transform="translate(-12.1 -10.7)"/>
      </g>
      <g id="Group_58" data-name="Group 58" transform="translate(1.26 3.322)">
        <path id="Path_71" data-name="Path 71" class="cls-1" d="M12.511,12.7a4.811,4.811,0,1,0,4.811,4.811A4.84,4.84,0,0,0,12.511,12.7Z" transform="translate(-7.7 -12.7)"/>
      </g>
      <g id="Group_59" data-name="Group 59" transform="translate(13.187 3.367)">
        <path id="Path_72" data-name="Path 72" class="cls-1" d="M21.306,13.038a4.956,4.956,0,0,0-2.749,2.52,4.544,4.544,0,0,0-.115,3.666h0a5.355,5.355,0,0,0,2.52,2.749,4.544,4.544,0,0,0,3.666.115,4.82,4.82,0,1,0-3.322-9.05Z" transform="translate(-18.111 -12.739)"/>
      </g>
      <g id="Group_60" data-name="Group 60" transform="translate(3.093 5.155)">
        <path id="Path_73" data-name="Path 73" d="M12.278,14.3a2.978,2.978,0,1,0,2.978,2.978A3.033,3.033,0,0,0,12.278,14.3Zm0,4.926a1.947,1.947,0,1,1,1.947-1.947A2.007,2.007,0,0,1,12.278,19.226Z" transform="translate(-9.3 -14.3)"/>
      </g>
      <g id="Group_61" data-name="Group 61" transform="translate(15.121 5.155)">
        <path id="Path_74" data-name="Path 74" d="M22.778,14.3a2.978,2.978,0,1,0,2.978,2.978A2.958,2.958,0,0,0,22.778,14.3Zm0,4.926a1.947,1.947,0,1,1,1.947-1.947A2.007,2.007,0,0,1,22.778,19.226Z" transform="translate(-19.8 -14.3)"/>
      </g>
      <g id="Group_62" data-name="Group 62" transform="translate(25.201 1.947)">
        <path id="Path_75" data-name="Path 75" d="M29.173,12.187h0c.115,0,.229,0,.229-.115s0-.115-.115-.115h-.115Zm.115-.344c.229,0,.344.115.344.229a.4.4,0,0,1-.115.229l.115.344H29.4l-.115-.344h-.115v.344h-.229v-.8Zm-.458,0c-.115.115-.115.229-.115.458,0,.115,0,.344.115.344a.6.6,0,0,0,.458.229c.115,0,.344-.115.458-.115.115-.115.115-.229.115-.458a.689.689,0,0,0-.115-.458.573.573,0,0,0-.916,0m.916-.115a.868.868,0,0,1,.229.458.6.6,0,0,1-.229.458.868.868,0,0,1-.458.229.6.6,0,0,1-.458-.229.868.868,0,0,1-.229-.458.6.6,0,0,1,.229-.458.573.573,0,0,1,.916,0" transform="translate(-28.6 -11.5)"/>
      </g>
    </g>
    <g id="Group_64" data-name="Group 64">
      <path id="Path_76" data-name="Path 76" class="cls-5" d="M.8,19.474a18.672,18.672,0,0,1,37.344,0,18.439,18.439,0,0,1-4.009,11.57h1.031a20.221,20.221,0,0,0,3.78-11.57A19.474,19.474,0,0,0,0,19.474a19.951,19.951,0,0,0,3.78,11.57H4.811A18.676,18.676,0,0,1,.8,19.474Z"/>
    </g>
    <g id="Group_65" data-name="Group 65" transform="translate(1.26 1.146)">
      <path id="Path_77" data-name="Path 77" class="cls-5" d="M19.314,1A18.217,18.217,0,0,0,5.338,30.9h.573A17.384,17.384,0,0,1,1.558,19.214a17.7,17.7,0,0,1,35.4,0A18.436,18.436,0,0,1,32.6,30.9h.573a17.866,17.866,0,0,0,4.238-11.684A18.236,18.236,0,0,0,19.314,1Z" transform="translate(-1.1 -1)"/>
    </g>
  </g>
  <g id="Group_67" data-name="Group 67" transform="translate(46.966 11.799)">
    <path id="Path_78" data-name="Path 78" class="cls-5" d="M47.415,23.715a6.216,6.216,0,0,1-3.322-.8A5.956,5.956,0,0,1,41.8,20.737a6.216,6.216,0,0,1-.8-3.322,6.488,6.488,0,0,1,.8-3.322A6.276,6.276,0,0,1,44.093,11.8a6.918,6.918,0,0,1,3.437-.8,12.623,12.623,0,0,1,2.062.229,13.334,13.334,0,0,1,1.718.687l-.458,2.062a7.662,7.662,0,0,0-3.322-.916,3.923,3.923,0,0,0-2.062.458,3.723,3.723,0,0,0-1.489,1.489,4.738,4.738,0,0,0-.573,2.176,3.726,3.726,0,0,0,1.146,2.978,3.886,3.886,0,0,0,2.978,1.146,11.422,11.422,0,0,0,1.833-.229,5.061,5.061,0,0,0,1.833-.687l.229,2.176a5.061,5.061,0,0,1-1.833.687A4.964,4.964,0,0,1,47.415,23.715Z" transform="translate(-41 -10.198)"/>
    <path id="Path_79" data-name="Path 79" class="cls-5" d="M52,11.1h8.019v2.062H54.291V16.14h5.04V18.2h-5.04V21.41h5.957v2.062H52Z" transform="translate(-39.399 -10.184)"/>
    <path id="Path_80" data-name="Path 80" class="cls-5" d="M61.3,11.1h4.009a5.011,5.011,0,0,1,3.322,1.031,3.635,3.635,0,0,1,1.146,2.864,3.862,3.862,0,0,1-.573,1.947,3.481,3.481,0,0,1-1.489,1.375l3.207,5.04H68.173L65.653,19H63.706v4.468H61.415V11.1Zm2.291,5.957h1.26c1.718,0,2.52-.687,2.52-2.062a1.979,1.979,0,0,0-.573-1.489,2.906,2.906,0,0,0-1.833-.458h-1.26v4.009Z" transform="translate(-38.046 -10.184)"/>
    <path id="Path_81" data-name="Path 81" class="cls-5" d="M74.095,13.162H70.2V11.1H80.51v2.062H76.615v10.31H74.209V13.162Z" transform="translate(-36.751 -10.184)"/>
    <path id="Path_82" data-name="Path 82" class="cls-5" d="M80.7,11.1h2.406V23.472H80.7Z" transform="translate(-35.223 -10.184)"/>
    <path id="Path_83" data-name="Path 83" class="cls-5" d="M85.4,11.1h7.79v2.062H87.806v3.322h4.7v2.062h-4.7v4.926H85.4V11.1Z" transform="translate(-34.539 -10.184)"/>
    <path id="Path_84" data-name="Path 84" class="cls-5" d="M93.9,11.1h2.406V23.472H93.9Z" transform="translate(-33.302 -10.184)"/>
    <path id="Path_85" data-name="Path 85" class="cls-5" d="M104.415,23.715a6.216,6.216,0,0,1-3.322-.8A5.956,5.956,0,0,1,98.8,20.737a6.216,6.216,0,0,1-.8-3.322,6.488,6.488,0,0,1,.8-3.322,6.276,6.276,0,0,1,2.291-2.291,6.918,6.918,0,0,1,3.437-.8,12.623,12.623,0,0,1,2.062.229,13.334,13.334,0,0,1,1.718.687l-.458,2.062a7.662,7.662,0,0,0-3.322-.916,3.923,3.923,0,0,0-2.062.458,3.723,3.723,0,0,0-1.489,1.489,4.738,4.738,0,0,0-.573,2.176,3.726,3.726,0,0,0,1.146,2.978,3.886,3.886,0,0,0,2.978,1.146,11.422,11.422,0,0,0,1.833-.229,5.061,5.061,0,0,0,1.833-.687l.229,2.176a5.061,5.061,0,0,1-1.833.687A4.649,4.649,0,0,1,104.415,23.715Z" transform="translate(-32.705 -10.198)"/>
    <path id="Path_86" data-name="Path 86" class="cls-5" d="M113.111,11.1h2.635l4.811,12.372h-2.635l-1.146-3.207h-4.926l-1.146,3.207H108.3Zm3.093,7.217-1.833-5.04-1.833,5.04Z" transform="translate(-31.207 -10.184)"/>
    <path id="Path_87" data-name="Path 87" class="cls-5" d="M122.295,13.162H118.4V11.1h10.31v2.062h-3.895v10.31h-2.406V13.162Z" transform="translate(-29.737 -10.184)"/>
    <path id="Path_88" data-name="Path 88" class="cls-5" d="M129,11.1h8.019v2.062h-5.728V16.14h5.04V18.2h-5.04V21.41h5.957v2.062H129Z" transform="translate(-28.194 -10.184)"/>
    <path id="Path_89" data-name="Path 89" class="cls-5" d="M144.58,23.206a3.765,3.765,0,0,1-1.947-.458,3.949,3.949,0,0,1-1.375-1.375,3.765,3.765,0,0,1-.458-1.947,5.325,5.325,0,0,1,.573-2.406,3.8,3.8,0,0,1,1.718-1.833A4.235,4.235,0,0,1,145.5,14.5a3.765,3.765,0,0,1,1.947.458,3.949,3.949,0,0,1,1.375,1.375,3.765,3.765,0,0,1,.458,1.947,5.325,5.325,0,0,1-.573,2.406,4.422,4.422,0,0,1-1.718,1.833A4.235,4.235,0,0,1,144.58,23.206Zm.115-1.6a2.2,2.2,0,0,0,1.375-.458A3.249,3.249,0,0,0,147.1,20a3.659,3.659,0,0,0,.344-1.6,2.266,2.266,0,0,0-.573-1.6,2.178,2.178,0,0,0-1.489-.573,2.2,2.2,0,0,0-1.375.458,4.924,4.924,0,0,0-1.031,1.146,2.557,2.557,0,0,0-.344,1.6,2.266,2.266,0,0,0,.573,1.6A2.413,2.413,0,0,0,144.695,21.6Z" transform="translate(-26.477 -9.689)"/>
    <path id="Path_90" data-name="Path 90" class="cls-5" d="M150.989,16.944H149.5l.344-1.6h1.489l.229-1.375a4.484,4.484,0,0,1,1.375-2.749,3.774,3.774,0,0,1,2.52-.916,3.171,3.171,0,0,1,1.031.115,5.584,5.584,0,0,1,.8.344l-.344,1.489a2.309,2.309,0,0,0-1.26-.344,1.9,1.9,0,0,0-1.375.573,4,4,0,0,0-.8,1.718l-.229,1.146h2.291l-.344,1.6h-2.291l-1.26,6.644h-1.833Z" transform="translate(-25.211 -10.3)"/>
    <path id="Path_91" data-name="Path 91" class="cls-5" d="M160.2,11.1h8.019v2.062h-5.728V16.14h5.04V18.2h-5.04V21.41h5.957v2.062H160.2Z" transform="translate(-23.654 -10.184)"/>
    <path id="Path_92" data-name="Path 92" class="cls-5" d="M173.068,17.057,169.058,11.1h2.864l2.749,4.238,2.635-4.238h2.749l-4.124,5.957,4.353,6.415H177.42l-2.978-4.7-2.978,4.7H168.6Z" transform="translate(-22.432 -10.184)"/>
    <path id="Path_93" data-name="Path 93" class="cls-5" d="M185.615,23.715a6.216,6.216,0,0,1-3.322-.8A5.956,5.956,0,0,1,180,20.737a6.216,6.216,0,0,1-.8-3.322,6.489,6.489,0,0,1,.8-3.322,6.276,6.276,0,0,1,2.291-2.291,6.918,6.918,0,0,1,3.437-.8,12.623,12.623,0,0,1,2.062.229,13.332,13.332,0,0,1,1.718.687l-.458,2.062a7.662,7.662,0,0,0-3.322-.916,3.923,3.923,0,0,0-2.062.458,3.723,3.723,0,0,0-1.489,1.489,4.738,4.738,0,0,0-.573,2.176,3.726,3.726,0,0,0,1.146,2.978,3.886,3.886,0,0,0,2.978,1.146,11.422,11.422,0,0,0,1.833-.229,5.061,5.061,0,0,0,1.833-.687l.229,2.176a5.061,5.061,0,0,1-1.833.687A4.649,4.649,0,0,1,185.615,23.715Z" transform="translate(-20.889 -10.198)"/>
    <path id="Path_94" data-name="Path 94" class="cls-5" d="M190.3,11.1h8.019v2.062h-5.728V16.14h5.04V18.2h-5.04V21.41h5.957v2.062H190.3Z" transform="translate(-19.274 -10.184)"/>
    <path id="Path_95" data-name="Path 95" class="cls-5" d="M199.515,11.1h2.406V21.41h5.5v2.062H199.4V11.1Z" transform="translate(-17.95 -10.184)"/>
    <path id="Path_96" data-name="Path 96" class="cls-5" d="M208.115,11.1h2.406V21.41h5.5v2.062H208V11.1Z" transform="translate(-16.699 -10.184)"/>
    <path id="Path_97" data-name="Path 97" class="cls-5" d="M216.6,11.1h8.019v2.062h-5.728V16.14h5.04V18.2h-5.04V21.41h5.957v2.062H216.6Z" transform="translate(-15.447 -10.184)"/>
    <path id="Path_98" data-name="Path 98" class="cls-5" d="M225.9,11.1h2.176l6.415,8.591V11.1h2.291V23.472h-2.176l-6.415-8.591v8.591H225.9Z" transform="translate(-14.094 -10.184)"/>
    <path id="Path_99" data-name="Path 99" class="cls-5" d="M243.815,23.715a6.215,6.215,0,0,1-3.322-.8,5.956,5.956,0,0,1-2.291-2.176,6.216,6.216,0,0,1-.8-3.322,6.488,6.488,0,0,1,.8-3.322,6.276,6.276,0,0,1,2.291-2.291,6.918,6.918,0,0,1,3.437-.8,12.622,12.622,0,0,1,2.062.229,13.334,13.334,0,0,1,1.718.687l-.458,2.062a7.662,7.662,0,0,0-3.322-.916,3.923,3.923,0,0,0-2.062.458,3.723,3.723,0,0,0-1.489,1.489,4.738,4.738,0,0,0-.573,2.176,3.726,3.726,0,0,0,1.146,2.978,3.886,3.886,0,0,0,2.978,1.146,11.422,11.422,0,0,0,1.833-.229,5.061,5.061,0,0,0,1.833-.687l.229,2.176a5.061,5.061,0,0,1-1.833.687A5.313,5.313,0,0,1,243.815,23.715Z" transform="translate(-12.42 -10.198)"/>
    <path id="Path_100" data-name="Path 100" class="cls-5" d="M248.4,11.1h8.019v2.062h-5.728V16.14h5.04V18.2h-5.04V21.41h5.957v2.062H248.4Z" transform="translate(-10.82 -10.184)"/>
    <path id="Path_101" data-name="Path 101" class="cls-5" d="M260.5,23.472V21.639a39.122,39.122,0,0,0,3.093-3.093,14.453,14.453,0,0,0,1.6-2.176,2.864,2.864,0,0,0,.458-1.6,1.565,1.565,0,0,0-.458-1.26,1.723,1.723,0,0,0-1.26-.458,3.527,3.527,0,0,0-1.489.344,5.385,5.385,0,0,0-1.375,1.031l-.344-1.947a4.805,4.805,0,0,1,1.6-1.031,5.991,5.991,0,0,1,2.062-.344,4.18,4.18,0,0,1,2.749.916,3.2,3.2,0,0,1,1.031,2.52,6.156,6.156,0,0,1-.573,2.406,11.032,11.032,0,0,1-1.833,2.635c-.344.458-1.031,1.031-1.833,1.833h4.7v2.062H260.5Z" transform="translate(-9.059 -10.184)"/>
    <path id="Path_102" data-name="Path 102" class="cls-5" d="M273.153,23.73a3.687,3.687,0,0,1-3.207-1.718,7.919,7.919,0,0,1-1.146-4.7,7.919,7.919,0,0,1,1.146-4.7,3.853,3.853,0,0,1,6.415,0,7.919,7.919,0,0,1,1.146,4.7,7.919,7.919,0,0,1-1.146,4.7A3.687,3.687,0,0,1,273.153,23.73Zm0-2.062c1.26,0,1.947-1.375,1.947-4.238s-.687-4.238-1.947-4.238-1.947,1.375-1.947,4.238S271.778,21.668,273.153,21.668Z" transform="translate(-7.851 -10.213)"/>
    <path id="Path_103" data-name="Path 103" class="cls-5" d="M281.137,13.706l-3.093,1.375-.344-2.062,3.895-1.718h1.833V23.442h-2.291Z" transform="translate(-6.556 -10.154)"/>
    <path id="Path_104" data-name="Path 104" class="cls-5" d="M289.653,23.7a5.129,5.129,0,0,1-2.291-.458,3.265,3.265,0,0,1-1.489-1.26,3.55,3.55,0,0,1-.573-1.947,3.462,3.462,0,0,1,.573-1.833,2.675,2.675,0,0,1,1.375-1.146,2.049,2.049,0,0,1-1.146-1.031,3.729,3.729,0,0,1-.458-1.6A2.761,2.761,0,0,1,286.1,12.7a3.368,3.368,0,0,1,1.375-1.146,4.361,4.361,0,0,1,2.176-.458,3.923,3.923,0,0,1,2.062.458A3.722,3.722,0,0,1,293.2,12.7a3.087,3.087,0,0,1,.573,1.718,2.63,2.63,0,0,1-.458,1.6,2.8,2.8,0,0,1-1.26,1.031,2.675,2.675,0,0,1,1.375,1.146,3.462,3.462,0,0,1,.573,1.833,3.169,3.169,0,0,1-.573,1.833,3.265,3.265,0,0,1-1.489,1.26A3.807,3.807,0,0,1,289.653,23.7Zm0-1.833a1.944,1.944,0,0,0,1.489-.458,1.936,1.936,0,0,0,0-2.749,2.649,2.649,0,0,0-2.978,0,1.936,1.936,0,0,0,0,2.749A2.55,2.55,0,0,0,289.653,21.868Zm0-5.613a1.826,1.826,0,0,0,1.375-.458,1.565,1.565,0,0,0,.458-1.26,1.723,1.723,0,0,0-.458-1.26,2.291,2.291,0,0,0-2.749,0,1.565,1.565,0,0,0-.458,1.26,1.723,1.723,0,0,0,.458,1.26A1.826,1.826,0,0,0,289.653,16.255Z" transform="translate(-5.45 -10.184)"/>
  </g>
</svg>
