<?xml version="1.0" encoding="utf-8"?>
<!-- Generator: Adobe Illustrator 22.1.0, SVG Export Plug-In . SVG Version: 6.00 Build 0)  -->
<svg version="1.1" id="Layer_1" xmlns="http://www.w3.org/2000/svg" xmlns:xlink="http://www.w3.org/1999/xlink" x="0px" y="0px"
	 viewBox="0 0 46 46" style="enable-background:new 0 0 46 46;" xml:space="preserve">
<style type="text/css">
	.st0{fill:#B88B4C;}
</style>
<g>
	<path class="st0" d="M38.923,9.703c-0.083-0.215-0.279-0.356-0.5-0.36c-1.786-0.033-3.698-0.053-6.001-0.066l0.037-0.047
		c0.353-0.445,0.717-0.905,1.063-1.368c0.11-0.147,0.135-0.31,0.07-0.461c-0.074-0.174-0.258-0.302-0.467-0.327
		c-0.21-0.028-0.398,0.056-0.523,0.223c-0.517,0.692-1.043,1.355-1.536,1.972C26.855,9.252,22.572,9.28,18.43,9.304
		c-3.549,0.02-7.22,0.047-10.817,0.039c-0.076-0.005-0.152,0.006-0.21,0.031C7.218,9.43,7.092,9.576,7.057,9.766
		c-0.039,0.145-0.012,0.296,0.082,0.435c0.005,0.01,0.012,0.023,0.023,0.038l0.017,0.023c2.435,2.626,5.029,5.117,7.538,7.526
		l1.117,1.074c0.868,0.835,1.737,1.705,2.577,2.545c0.376,0.376,2.224,2.472,2.753,3.384c0.056,2.768,0.058,5.692,0.004,8.935
		l-0.038,0.001c-1.434,0.015-5.353,0.06-6.645,1.552c-0.293,0.339-0.411,0.732-0.353,1.169c0.258,1.926,4.828,2.1,6.78,2.174
		c0.209,0.008,0.386,0.015,0.524,0.023c0.513,0.029,1.031,0.042,1.552,0.042c1.669,0,3.379-0.145,5.102-0.433
		c0.843-0.14,3.407-0.566,3.717-1.776c0.108-0.424,0.033-0.808-0.224-1.145c-0.778-1.018-3.28-1.592-7.237-1.661
		c0.052-3.204,0.051-6.087-0.004-8.809c0.154-0.137,0.297-0.277,0.436-0.413c0.113-0.11,0.219-0.214,0.316-0.301
		c1.672-1.491,3.232-3.076,4.538-4.43c0.948-0.983,1.899-1.994,2.819-2.971c2.039-2.166,4.148-4.406,6.35-6.482
		C38.955,10.121,39.002,9.905,38.923,9.703z M15.534,36.172c0.05-0.323,0.766-0.682,1.868-0.936
		c1.482-0.342,2.565-0.411,3.751-0.429c-0.002,0.115-0.002,0.231-0.004,0.347c-0.001,0.173-0.003,0.346-0.007,0.52
		c-0.005,0.193,0.078,0.353,0.233,0.447c0.169,0.104,0.402,0.107,0.58,0.011c0.165-0.091,0.263-0.256,0.268-0.452
		c0.081-3.317,0.091-6.755,0.03-10.222c0.09,0.027,0.617,0.044,0.698,0.051c0.1,0.006,0.202,0,0.317-0.025
		c0.06,3.466,0.051,6.894-0.029,10.191c-0.008,0.338,0.253,0.521,0.515,0.527c0.005,0,0.01,0,0.015,0
		c0.269,0,0.542-0.177,0.55-0.523c0.004-0.184,0.006-0.367,0.007-0.55c0.001-0.125,0.002-0.25,0.004-0.375
		c1.197,0.025,2.738,0.102,4.235,0.451c0.069,0.016,0.163,0.034,0.272,0.056c0.416,0.08,1.19,0.229,1.357,0.462
		c0.151,0.211,0.2,0.396,0.146,0.549c-0.126,0.359-0.796,0.549-1.196,0.662c-0.06,0.017-0.116,0.033-0.166,0.047
		c-2.507,0.758-5.498,0.696-7.532,0.583c-0.256-0.014-0.54-0.024-0.841-0.035c-1.544-0.056-3.465-0.124-4.601-0.797
		C15.772,36.594,15.501,36.385,15.534,36.172z M25.198,16.118c-0.121,0.139-0.157,0.302-0.103,0.459
		c0.062,0.181,0.237,0.323,0.443,0.364c0.203,0.032,0.394-0.029,0.53-0.185c0.029-0.034,0.059-0.066,0.089-0.099
		c0.01-0.012,0.021-0.022,0.031-0.034c0.616,0.494,0.444,1.262,0.097,1.786c-0.521,0.784-1.572,1.307-2.494,0.726
		c-0.698-0.44-1.228-1.392-0.905-2.109c0.183-0.405,0.595-0.754,1.104-0.933c0.443-0.157,0.891-0.163,1.255-0.029
		C25.228,16.082,25.214,16.1,25.198,16.118z M22.33,13.789c1.637,0.042,3.332-0.05,4.997,0.041c-0.437,0.504-0.9,0.927-1.323,1.397
		c-0.582-0.335-1.303-0.424-2.045-0.246c-0.814,0.195-1.533,0.699-1.92,1.35c-0.633,1.062-0.235,2.305,0.456,3.097
		c-0.173,0.204-0.356,0.404-0.534,0.598c-0.246,0.269-0.5,0.547-0.732,0.839c-0.214,0.271-0.104,0.557,0.089,0.71
		c0.215,0.172,0.565,0.202,0.788-0.078c0.228-0.288,0.48-0.565,0.722-0.831c0.167-0.184,0.335-0.367,0.496-0.557
		c0.024,0.015,0.05,0.03,0.075,0.043c1.195,0.627,2.799,0.255,3.653-0.845c0.853-1.1,0.775-2.597-0.163-3.46
		c0.647-0.718,1.262-1.336,1.804-1.952c0.019,0.001,0.037,0.002,0.055,0.002c1.821,0.081,3.475-0.046,5.037-0.134
		c-0.714,0.748-1.423,1.501-2.132,2.253c-0.488,0.518-0.976,1.038-1.467,1.554c-1.359,1.433-2.511,2.627-3.714,3.801
		c-0.608,0.594-1.117,1.076-1.601,1.519c-1.089,0.995-2.135,1.35-3.349,0.54c-0.729-0.485-0.99-1.252-1.67-1.994
		c-0.351-0.383-0.683-0.745-1.013-1.064c-0.404-0.391-0.804-0.798-1.19-1.194c-0.618-0.631-1.257-1.284-1.934-1.884
		c-1.181-1.048-2.402-2.209-3.724-3.544C15.44,13.613,18.942,13.703,22.33,13.789z M30.199,10.346l-2.006,2.469
		c-1.957-0.008-3.946-0.06-5.871-0.109c-2.112-0.054-4.265-0.109-6.423-0.109c-1.639,0-3.281,0.032-4.911,0.12
		c-0.716-0.741-1.449-1.512-2.181-2.295c3.183-0.002,6.417-0.02,9.547-0.039C22.237,10.361,26.251,10.339,30.199,10.346z
		 M37.11,10.405c-0.732,0.712-1.474,1.454-2.209,2.211c-1.613,0.118-3.358,0.183-5.329,0.197l0.158-0.193
		c0.616-0.754,1.232-1.51,1.844-2.267C33.434,10.36,35.294,10.378,37.11,10.405z"/>
</g>
</svg>
