<?xml version="1.0" encoding="utf-8"?>
<!-- Generator: Adobe Illustrator 22.1.0, SVG Export Plug-In . SVG Version: 6.00 Build 0)  -->
<svg version="1.1" id="Layer_1" xmlns="http://www.w3.org/2000/svg" xmlns:xlink="http://www.w3.org/1999/xlink" x="0px" y="0px"
	 viewBox="0 0 46 46" style="enable-background:new 0 0 46 46;" xml:space="preserve">
<style type="text/css">
	.st0{fill:#B88B4C;}
</style>
<g>
	<circle class="st0" cx="26.873" cy="20.062" r="1.424"/>
	<circle class="st0" cx="18.965" cy="20.062" r="1.424"/>
	<path class="st0" d="M39.844,14.004C35.022,7.18,30.48,8.09,29.652,8.33c-1.599-1.264-3.62-1.975-6.316-1.878
		c-2.601,0.089-4.805,0.569-6.718,2.005c-0.047-0.029-0.086-0.066-0.14-0.086c-0.205-0.077-5.101-1.754-10.322,5.633
		c-2.951,4.176-2.507,6.715-1.615,8.111C5.5,23.613,7.226,24.22,8.724,24.22c0.202,0,0.388-0.03,0.579-0.051
		c-0.896,4.075-1.07,8.24,1.169,11.244c2.075,2.785,5.824,4.144,11.444,4.144c0.331,0,0.67-0.005,1.016-0.014
		c6.171-0.17,10.417-1.884,12.618-5.095c1.989-2.902,2.055-6.598,1.366-10.259c0.122,0.008,0.235,0.032,0.361,0.032
		c1.497,0,3.223-0.607,4.183-2.106C42.351,20.719,42.795,18.18,39.844,14.004z M9.352,22.494c-1.12,0.208-2.693-0.171-3.402-1.281
		c-0.87-1.361-0.313-3.578,1.572-6.244c3.314-4.69,6.277-5.205,7.627-5.144c-1.449,1.639-2.721,4.027-3.865,7.513
		c-0.523,1.594-1.097,3.357-1.575,5.171C9.594,22.479,9.474,22.47,9.352,22.494z M22.884,31.033c-0.508-0.2-1.913-1.382-2.6-2.711
		c-0.295-0.57-0.388-1.045-0.262-1.339c0.186-0.434,1.256-0.854,2.722-0.854c0.136,0,0.276,0.004,0.419,0.011
		c1.546,0.082,2.339,0.568,2.395,0.748c0.073,0.252-0.011,0.816-0.467,1.639C24.408,29.755,23.328,30.807,22.884,31.033z
		 M34.171,33.503c-1.78,2.597-5.296,4.038-10.414,4.317l0.073-5.42c0.944-0.577,2.022-1.834,2.669-2.966
		c0.678-1.185,0.901-2.199,0.664-3.013c-0.471-1.617-3.058-1.897-3.841-1.945c-1.82-0.113-4.176,0.309-4.837,1.85
		c-0.67,1.563,0.567,3.361,1.363,4.294c0.253,0.296,1.284,1.442,2.307,1.902l-0.072,5.349c-5.074,0.023-8.54-1.134-10.271-3.456
		c-3.036-4.072-0.669-11.287,1.06-16.556c2.882-8.782,6.323-9.592,10.521-9.736c5.422-0.188,7.613,3.137,10.121,10.195
		C35.274,23.266,36.937,29.465,34.171,33.503z M40.051,21.213c-0.71,1.11-2.284,1.489-3.402,1.281
		c-0.036-0.007-0.071,0.003-0.107,0.001c-0.404-1.637-0.921-3.243-1.452-4.738c-1.092-3.074-2.239-5.881-3.931-7.934
		c1.458,0.033,4.234,0.78,7.32,5.146C40.363,17.634,40.921,19.852,40.051,21.213z"/>
</g>
</svg>
