<?xml version="1.0" encoding="utf-8"?>
<!-- Generator: Adobe Illustrator 22.1.0, SVG Export Plug-In . SVG Version: 6.00 Build 0)  -->
<svg version="1.1" id="Layer_1" xmlns="http://www.w3.org/2000/svg" xmlns:xlink="http://www.w3.org/1999/xlink" x="0px" y="0px"
	 viewBox="0 0 46 46" style="enable-background:new 0 0 46 46;" xml:space="preserve">
<style type="text/css">
	.st0{fill:#B88B4C;}
</style>
<g>
	<path class="st0" d="M13.514,31.72c-0.282-0.207-0.684-0.15-0.896,0.131l-0.954,1.268c-0.103,0.137-0.147,0.312-0.122,0.48
		s0.118,0.324,0.255,0.424l4.719,3.478c0.111,0.082,0.243,0.126,0.381,0.126c0.201,0,0.394-0.096,0.515-0.256l0.953-1.268
		c0.103-0.136,0.148-0.311,0.123-0.48c-0.025-0.172-0.116-0.322-0.255-0.425L13.514,31.72z M16.946,35.848l-0.18,0.239l-3.683-2.714
		l0.179-0.239L16.946,35.848z"/>
	<path class="st0" d="M40.531,8.576l-1.21-0.92l1.181-1.754c0.19-0.282,0.127-0.664-0.142-0.87l-3.438-2.633
		c-0.272-0.207-0.661-0.167-0.882,0.096l-1.23,1.454l-1.365-0.972c-0.14-0.099-0.31-0.137-0.48-0.11
		c-0.17,0.029-0.318,0.122-0.417,0.262c-0.1,0.14-0.139,0.311-0.111,0.48c0.029,0.169,0.122,0.318,0.262,0.417l1.277,0.909
		l-0.819,0.969c-0.345-0.247-0.866-0.602-1.682-1.158l-0.051-0.035c-0.143-0.096-0.314-0.133-0.482-0.1
		c-0.169,0.032-0.315,0.127-0.412,0.27c-0.2,0.293-0.125,0.694,0.169,0.895c0.582,0.396,1.199,0.822,1.621,1.118l-1.01,1.194
		c-0.112,0.134-0.167,0.309-0.148,0.482c0.019,0.174,0.108,0.335,0.246,0.44l0.161,0.125l-7.307,9.662
		c-2.198-1.317-3.891-1.175-4.928-0.818c-1.426,0.489-2.547,1.712-3.077,3.354c-0.201,0.626-0.348,1.105-0.462,1.476
		c-0.331,1.08-0.331,1.08-0.682,1.351l-0.191,0.148c-0.155,0.123-0.8,0.316-1.319,0.472c-1.868,0.56-4.994,1.498-6.955,4.231
		c-2.706,3.772-1.555,8.091,3.241,12.16c1.975,1.675,4.234,2.56,6.532,2.56c2.543,0,4.946-1.117,6.766-3.146
		c2.138-2.384,1.874-4.872,1.68-6.689c-0.09-0.843-0.175-1.639,0.078-1.954c0.499-0.621,1.12-0.949,1.852-1.335
		c0.713-0.377,1.521-0.804,2.345-1.582c0.818-0.774,1.214-1.928,1.115-3.248c-0.119-1.593-0.954-3.194-2.24-4.306l7.144-9.546
		l0.299,0.232c0.138,0.109,0.321,0.156,0.497,0.128c0.174-0.028,0.332-0.128,0.432-0.276l0.958-1.422l1.267,0.975
		c0.271,0.212,0.692,0.157,0.903-0.116c0.105-0.136,0.15-0.305,0.128-0.476c-0.022-0.17-0.11-0.322-0.246-0.427L38.066,9.52
		l0.536-0.795l1.151,0.876c0.276,0.21,0.694,0.15,0.901-0.123c0.104-0.137,0.149-0.306,0.125-0.476
		C40.757,8.832,40.668,8.681,40.531,8.576z M39.096,5.685l-3.392,5.035l-2.801-2.176l-0.044-0.046
		c-0.017-0.013-0.032-0.02-0.037-0.02c-0.001,0-0.002,0-0.001,0.002l-0.093-0.073l3.9-4.613L39.096,5.685z M23.586,34.035
		c0.177,1.664,0.397,3.735-1.359,5.694c-3.064,3.418-7.796,3.61-11.506,0.462c-4.213-3.573-5.289-7.276-3.028-10.427
		c1.705-2.377,4.457-3.202,6.299-3.755c0.803-0.242,1.383-0.417,1.727-0.688l0.18-0.142c0.675-0.52,0.726-0.687,1.126-1.991
		c0.112-0.367,0.258-0.84,0.458-1.46c0.409-1.27,1.215-2.169,2.269-2.531c0.339-0.116,0.698-0.174,1.075-0.174
		c0.818,0,1.716,0.273,2.651,0.812l-2.696,3.565c-0.374,0.053-0.729,0.151-1.055,0.292c-1.415,0.614-2.133,1.818-1.83,3.067
		c0.588,2.42,1.923,3.268,4.228,2.77c0.835-0.18,1.474-0.714,1.799-1.503c0.164-0.4,0.243-0.881,0.229-1.393l3.092-4.132
		c0.992,0.887,1.635,2.138,1.728,3.372c0.069,0.926-0.186,1.713-0.717,2.216c-0.695,0.658-1.39,1.025-2.068,1.383
		c-0.813,0.43-1.581,0.835-2.248,1.664C23.356,31.867,23.462,32.871,23.586,34.035z M22.308,23.516l10.278-13.59l1.557,1.21
		L23.784,24.979c-0.095-0.219-0.203-0.421-0.321-0.602C23.197,23.972,22.809,23.683,22.308,23.516z M22.733,27.539
		c-0.162,0.396-0.458,0.644-0.879,0.734c-1.428,0.307-2.237,0.109-2.705-1.814c-0.18-0.741,0.445-1.304,1.091-1.584
		c0.35-0.152,0.74-0.236,1.097-0.236c0.489,0,0.862,0.158,1.05,0.445C22.869,25.819,23.015,26.852,22.733,27.539z"/>
</g>
</svg>
