<?xml version="1.0" encoding="utf-8"?>
<!-- Generator: Adobe Illustrator 22.1.0, SVG Export Plug-In . SVG Version: 6.00 Build 0)  -->
<svg version="1.1" id="Layer_1" xmlns="http://www.w3.org/2000/svg" xmlns:xlink="http://www.w3.org/1999/xlink" x="0px" y="0px"
	 viewBox="0 0 46 46" style="enable-background:new 0 0 46 46;" xml:space="preserve">
<style type="text/css">
	.st0{fill:#B88B4C;}
</style>
<g>
	<path class="st0" d="M18.404,38.349c-2.136,0.402-4.492,0.369-7.062-0.258c-0.316-0.077-0.521-0.383-0.471-0.704
		c0.078-0.515,1.746-10.871,8.956-17.342c-3.365,1.93-7.747,5.785-10.663,13.39c-0.09,0.235-0.313,0.392-0.563,0.402
		c-0.252,0.009-0.484-0.133-0.59-0.361c-0.064-0.137-6.226-13.777,8.025-20.941c14.162-7.119,25.401,0.166,25.513,0.24
		c0.214,0.143,0.32,0.403,0.266,0.655c-0.055,0.251-0.275,0.43-0.511,0.487c-0.265,0.061-6.402,1.198-8.893,10.452
		C30.966,29.73,26.14,36.893,18.404,38.349z M12.216,37.004c10.671,2.23,17.294-6.69,18.981-12.961
		c1.973-7.331,6.166-9.985,8.413-10.906c-3.192-1.574-12.191-4.922-23.013,0.518C5.965,19.001,7.5,27.978,8.603,31.491
		c5.698-13.151,15.498-14.522,15.927-14.566c0.304-0.038,0.59,0.149,0.678,0.442s-0.05,0.607-0.324,0.742
		C15.618,22.672,12.766,34.287,12.216,37.004z"/>
</g>
</svg>
