<?xml version="1.0" encoding="utf-8"?>
<!-- Generator: Adobe Illustrator 22.1.0, SVG Export Plug-In . SVG Version: 6.00 Build 0)  -->
<svg version="1.1" id="Layer_1" xmlns="http://www.w3.org/2000/svg" xmlns:xlink="http://www.w3.org/1999/xlink" x="0px" y="0px"
	 viewBox="0 0 46 46" style="enable-background:new 0 0 46 46;" xml:space="preserve">
<style type="text/css">
	.st0{fill:#B88B4C;}
</style>
<g>
	<circle class="st0" cx="18.081" cy="29.23" r="1.398"/>
	<path class="st0" d="M19.397,12.896c-3.396,0-4.554,2.497-4.692,3.818c-0.038,0.366,0.229,0.696,0.595,0.735
		c0.173,0.02,0.349-0.029,0.489-0.141c0.142-0.113,0.232-0.273,0.252-0.452c0.013-0.107,0.345-2.616,3.356-2.616
		c1.171,0,2.05,0.349,2.614,1.037c0.631,0.767,0.768,1.854,0.623,2.59c-0.316,1.602-1.18,2.026-2.18,2.518
		c-0.782,0.385-1.668,0.822-2.208,1.844c-1.032,1.955-0.397,3.565-0.321,3.742c0.105,0.246,0.347,0.405,0.617,0.405
		c0.093,0,0.183-0.019,0.266-0.055c0.165-0.069,0.292-0.2,0.359-0.369c0.066-0.167,0.063-0.349-0.008-0.513
		c-0.02-0.047-0.472-1.165,0.277-2.584c0.334-0.636,0.928-0.929,1.616-1.27c1.094-0.539,2.455-1.209,2.898-3.46
		c0.192-0.97,0.07-2.521-0.901-3.705C22.478,13.726,21.381,12.896,19.397,12.896z"/>
	<path class="st0" d="M32.607,23.22c1.743-5.998-1.508-11.724-8.28-14.586c-3.471-1.468-8.179-1.136-11.993,0.841
		c-3.56,1.848-5.959,4.89-6.756,8.566C4.018,25.236,8.302,30.144,9.704,31.52l-2.423,4.215c-0.136,0.237-0.116,0.529,0.052,0.744
		c0.126,0.163,0.324,0.261,0.53,0.261c0.062,0,0.122-0.008,0.179-0.023l8.318-2.289C24.256,35.674,30.177,31.586,32.607,23.22z
		 M19.148,33.315c-0.85,0-1.756-0.075-2.72-0.235c-0.102-0.015-0.199-0.012-0.289,0.017l-6.884,1.895l1.876-3.265v-0.001
		c0.161-0.281,0.098-0.637-0.15-0.846c-0.152-0.134-1.519-1.366-2.685-3.447c-1.112-1.988-2.26-5.181-1.409-9.104
		c0.711-3.278,2.864-5.998,6.061-7.659c1.998-1.036,4.327-1.606,6.558-1.606c1.559,0,3.043,0.28,4.293,0.809
		c4.858,2.055,9.383,6.542,7.515,12.975C30.129,26.931,27.015,33.315,19.148,33.315z"/>
	<path class="st0" d="M37.667,33.721c1.137-0.854,4.606-4.03,3.934-10.528c-0.806-7.786-8.629-9.879-8.708-9.899
		c-0.172-0.045-0.353-0.02-0.509,0.073c-0.154,0.091-0.264,0.238-0.309,0.413c-0.044,0.173-0.018,0.353,0.074,0.508
		c0.092,0.154,0.237,0.264,0.411,0.308c0.285,0.073,6.993,1.873,7.704,8.736c0.715,6.903-3.584,9.457-3.767,9.562
		c-0.299,0.17-0.422,0.535-0.286,0.85l1.251,2.899l-4.797-1.828c-0.152-0.056-0.314-0.058-0.461-0.005
		c-0.047,0.017-4.698,1.599-7.156-0.553c-0.276-0.244-0.703-0.218-0.95,0.062c-0.117,0.136-0.175,0.309-0.164,0.485
		c0.012,0.179,0.093,0.342,0.228,0.46c2.729,2.395,7.31,1.175,8.245,0.892l6.063,2.311c0.077,0.028,0.157,0.042,0.238,0.042
		c0.183,0,0.359-0.075,0.485-0.207c0.188-0.195,0.239-0.482,0.132-0.729L37.667,33.721z"/>
</g>
</svg>
