<?xml version="1.0" encoding="utf-8"?>
<!-- Generator: Adobe Illustrator 22.1.0, SVG Export Plug-In . SVG Version: 6.00 Build 0)  -->
<svg version="1.1" id="Layer_1" xmlns="http://www.w3.org/2000/svg" xmlns:xlink="http://www.w3.org/1999/xlink" x="0px" y="0px"
	 viewBox="0 0 46 46" style="enable-background:new 0 0 46 46;" xml:space="preserve">
<style type="text/css">
	.st0{fill:#B88B4C;}
</style>
<g>
	<path class="st0" d="M16.069,36.742c0.264,0,0.513-0.16,0.613-0.421c0.13-0.339-0.039-0.719-0.378-0.849
		c-0.099-0.038-9.92-3.953-7.718-15.248C11.062,7.531,22.791,8.033,23.286,8.06c0.366,0.027,0.672-0.257,0.693-0.619
		C24,7.079,23.723,6.77,23.362,6.748C23.23,6.75,9.995,6.136,7.297,19.973c-2.411,12.363,8.426,16.684,8.536,16.726
		C15.911,36.728,15.99,36.742,16.069,36.742z"/>
	<path class="st0" d="M29.575,8.368c-0.33-0.15-0.719-0.004-0.87,0.325c-0.151,0.33-0.006,0.72,0.325,0.871
		c0.483,0.221,11.792,5.539,7.91,17.452c-3.343,10.257-12.743,10.041-14.764,9.869c2.145-2.186,4.263-4.469,5.7-6.043
		c0.527,0.074,1.413-0.006,2.554-0.843c1.212-0.889,3.364-3.028,4.287-3.961c0.127-0.098,0.242-0.183,0.376-0.289
		c0.174-0.138,0.248-0.347,0.236-0.553c0.019-0.192-0.037-0.389-0.186-0.534c-0.26-0.252-0.676-0.246-0.929,0.014
		c-0.006,0.007-0.147,0.151-0.371,0.378c-0.649,0.492-1.344,0.975-1.902,1.312c0.256-0.334,0.579-0.719,0.933-1.111
		c0.257-0.262,0.479-0.501,0.644-0.685c0.239-0.266,0.222-0.673-0.038-0.918c-0.259-0.244-0.667-0.235-0.918,0.019
		c-0.22,0.224-0.448,0.463-0.672,0.708c-0.476,0.475-0.948,0.895-1.323,1.178c0.368-0.586,1.018-1.41,1.73-2.182
		c0.154-0.137,0.309-0.276,0.451-0.4c0.272-0.239,0.298-0.654,0.059-0.926c-0.239-0.273-0.654-0.299-0.927-0.059
		c-0.045,0.039-0.132,0.117-0.243,0.215c-0.049,0.03-0.101,0.056-0.143,0.1c-0.048,0.051-0.087,0.096-0.134,0.146
		c-1.16,1.035-3.777,3.411-4.351,4.271c-0.569,0.853-0.608,1.892-0.579,2.454C23.722,31.301,13.629,39.41,13.506,42.16
		c-0.021,0.484,0.189,0.786,0.369,0.954c0.157,0.147,0.369,0.227,0.599,0.227c0.013,0,0.027-0.001,0.04-0.001
		c0.981-0.039,3.758-2.543,6.671-5.456c0.101,0.137,0.254,0.236,0.436,0.261c0.026,0.003,0.589,0.076,1.5,0.076
		c3.45,0,11.888-1.042,15.067-10.8C42.429,14.408,29.704,8.427,29.575,8.368z M28.102,27.449c0.131-0.196,0.447-0.539,0.852-0.949
		c0.05,0.237,0.174,0.371,0.252,0.452c0.183,0.191,0.436,0.295,0.714,0.295c0.045,0.001,0.092-0.003,0.139-0.009
		c-0.001,0.023,0,0.046,0,0.069c0.014,0.253,0.124,0.476,0.313,0.63c0.069,0.057,0.16,0.124,0.292,0.167
		c-0.376,0.333-0.726,0.626-1.012,0.835c-0.713,0.523-1.217,0.611-1.479,0.611c-0.153,0-0.21-0.022-0.207-0.023
		c-0.061-0.032-0.126-0.055-0.192-0.067c0-0.034-0.003-0.068-0.009-0.103C27.764,29.347,27.589,28.218,28.102,27.449z
		 M14.927,41.785c0.759-1.639,5.274-5.858,10.126-9.825C20.824,36.487,16.542,40.727,14.927,41.785z"/>
	<path class="st0" d="M17.371,15.37c-0.747-0.012-2.648,0.042-3.637,0.865c-0.641,0.534-2.313,2.313-2.347,4.099
		c-0.014,0.745,0.269,1.401,0.818,1.895c0.424,0.381,0.945,0.579,1.52,0.579c0.088,0,0.177-0.004,0.268-0.014
		c1.998-0.207,3.9-2.554,3.918-2.577c0.726-0.993,0.768-1.701,0.798-2.217c0.016-0.268,0.026-0.391,0.097-0.501
		c1.871-2.901,5.266-5.433,7.993-7.467c2.9-2.163,4.996-3.726,5.111-5.32c0.028-0.384-0.053-0.955-0.598-1.5
		c-0.39-0.389-0.874-0.581-1.421-0.551c-1.965,0.107-4.46,3.214-7.349,6.811C20.807,11.631,19.017,13.86,17.371,15.37z
		 M17.701,16.787c-0.262,0.405-0.284,0.794-0.304,1.136c-0.026,0.432-0.05,0.839-0.547,1.519c-0.243,0.332-1.797,1.922-2.993,2.046
		c-0.315,0.027-0.56-0.042-0.774-0.235c-0.269-0.241-0.39-0.525-0.383-0.893c0.021-1.076,1.131-2.495,1.875-3.115
		c0.508-0.423,1.753-0.563,2.628-0.563c0.135,0,0.261,0.003,0.375,0.009c0.067,0.006,0.134-0.003,0.198-0.02
		C17.751,16.71,17.726,16.749,17.701,16.787z M29.962,3.973c0.013-0.001,0.025-0.001,0.038-0.001c0.15,0,0.266,0.051,0.383,0.168
		c0.208,0.208,0.225,0.363,0.217,0.476c-0.072,0.995-2.367,2.707-4.587,4.362c-1.173,0.875-2.465,1.839-3.718,2.891
		c0.425-0.523,0.85-1.051,1.271-1.575C25.917,7.367,28.582,4.049,29.962,3.973z"/>
	<path class="st0" d="M23.324,18.369c-2.288,0-4.15,1.862-4.15,4.149c0,2.437,1.705,4.347,3.881,4.347
		c2.312,0,4.418-2.072,4.418-4.347C27.473,20.115,25.728,18.369,23.324,18.369z M23.055,25.552c-1.607,0-2.567-1.542-2.567-3.033
		c0-1.563,1.273-2.836,2.836-2.836c1.411,0,2.836,0.877,2.836,2.836C26.159,24.078,24.65,25.552,23.055,25.552z"/>
</g>
</svg>
