<?xml version="1.0" encoding="utf-8"?>
<!-- Generator: Adobe Illustrator 22.1.0, SVG Export Plug-In . SVG Version: 6.00 Build 0)  -->
<svg version="1.1" id="Layer_1" xmlns="http://www.w3.org/2000/svg" xmlns:xlink="http://www.w3.org/1999/xlink" x="0px" y="0px"
	 viewBox="0 0 46 46" style="enable-background:new 0 0 46 46;" xml:space="preserve">
<style type="text/css">
	.st0{fill:#B88B4C;}
</style>
<path class="st0" d="M40.335,7.805c-0.091-0.228-0.305-0.381-0.55-0.394c-0.359-0.02-8.916-0.403-13.021,3.943
	c-1.664,1.763-2.355,4.045-2.056,6.783c0.03,0.282,0.247,0.509,0.527,0.552c0.278,0.045,0.555-0.107,0.669-0.367
	c0.017-0.039,1.415-3.151,3.888-4.413c-2.123,2.571-6.065,8.122-7.977,15.806c-1.213-5.578-4.645-16.713-13.271-21.379
	C8.277,8.19,7.937,8.262,7.749,8.508C7.562,8.753,7.58,9.097,7.792,9.321c0.097,0.102,9.725,10.438,11.868,30.31
	c0.035,0.318,0.304,0.56,0.624,0.56h2.714c0.311,0,0.575-0.228,0.62-0.535c0.018-0.124,1.849-12.208,5.642-18.534
	c1.033,0.17,3.457,0.181,6.143-2.589c1.853-1.912,2.419-4.032,2.918-5.902c0.434-1.622,0.807-3.023,1.886-4.162
	C40.377,8.292,40.426,8.032,40.335,7.805z M37.11,12.307c-0.483,1.808-0.981,3.676-2.606,5.353c-2.88,2.971-5.225,2.195-5.319,2.161
	c-0.277-0.104-0.59,0-0.749,0.251c-3.667,5.762-5.562,16.339-5.975,18.865h-1.617c-1.562-13.483-6.524-22.626-9.601-27.163
	c8.093,7.236,9.893,21.214,9.912,21.372c0.038,0.31,0.299,0.545,0.612,0.551c0.004,0,0.007,0,0.011,0
	c0.309,0,0.572-0.225,0.62-0.531c1.877-12.042,9.619-19.879,9.698-19.956c0.184-0.183,0.236-0.46,0.131-0.697
	c-0.105-0.237-0.346-0.39-0.603-0.373c-2.617,0.124-4.512,2.024-5.641,3.594c0.206-1.363,0.771-2.539,1.692-3.516
	c2.84-3.01,8.355-3.497,10.813-3.557C37.779,9.799,37.441,11.07,37.11,12.307z"/>
</svg>
