<?xml version="1.0" encoding="utf-8"?>
<!-- Generator: Adobe Illustrator 22.1.0, SVG Export Plug-In . SVG Version: 6.00 Build 0)  -->
<svg version="1.1" id="Layer_1" xmlns="http://www.w3.org/2000/svg" xmlns:xlink="http://www.w3.org/1999/xlink" x="0px" y="0px"
	 viewBox="0 0 46 46" style="enable-background:new 0 0 46 46;" xml:space="preserve">
<style type="text/css">
	.st0{fill:#B88B4C;}
</style>
<g>
	<path class="st0" d="M22.56,38.075c-2.346,0-3.743-1.359-4.443-4.241c-0.438-1.803,0.605-3.543,2.658-4.434
		c1.851-0.803,4.306-0.726,5.421,0.973l0,0c1.053,1.607,1.325,3.749,0.676,5.332c-0.467,1.139-1.389,1.909-2.595,2.168
		C23.654,38.007,23.083,38.075,22.56,38.075z M23.111,30.577c-0.554,0-1.15,0.129-1.672,0.356c-1.009,0.438-1.985,1.326-1.699,2.505
		c0.718,2.956,2.026,3.265,4.183,2.8c0.67-0.145,1.141-0.537,1.4-1.168c0.436-1.061,0.214-2.651-0.527-3.78
		C24.47,30.792,23.825,30.577,23.111,30.577z"/>
</g>
<g>
	<path class="st0" d="M7.279,19.315c-0.174,0-0.349-0.054-0.499-0.166c-0.37-0.277-0.446-0.8-0.17-1.171
		c0.249-0.333,6.217-8.149,16.971-7.013c10.615,1.117,15.567,6.729,15.773,6.967c0.301,0.349,0.262,0.878-0.087,1.179
		c-0.35,0.301-0.878,0.263-1.179-0.087c-0.045-0.052-4.765-5.353-14.682-6.398c-9.826-1.03-15.401,6.278-15.456,6.352
		C7.785,19.199,7.534,19.315,7.279,19.315z"/>
</g>
<g>
	<path class="st0" d="M34.011,24.026c-0.301,0-0.591-0.163-0.741-0.446c-0.09-0.136-3.451-4.826-10.485-5.253
		c-7.034-0.429-10.183,4.242-10.313,4.441c-0.251,0.387-0.769,0.496-1.156,0.244c-0.386-0.251-0.498-0.766-0.248-1.153
		c0.15-0.233,3.757-5.7,11.818-5.202c7.4,0.448,11.437,5.286,11.871,6.158c0.207,0.413,0.039,0.915-0.374,1.121
		C34.263,23.998,34.136,24.026,34.011,24.026z"/>
</g>
<g>
	<path class="st0" d="M30.066,27.641c-0.218,0-0.436-0.085-0.6-0.255c-6.152-6.349-13.445-0.212-13.752,0.051
		c-0.351,0.302-0.878,0.262-1.179-0.087c-0.301-0.349-0.263-0.876,0.086-1.178c0.087-0.075,8.789-7.442,16.046,0.051
		c0.321,0.331,0.313,0.861-0.019,1.182C30.485,27.563,30.275,27.641,30.066,27.641z"/>
</g>
</svg>
