<?xml version="1.0" encoding="utf-8"?>
<!-- Generator: Adobe Illustrator 19.0.0, SVG Export Plug-In . SVG Version: 6.00 Build 0)  -->
<svg version="1.1" id="Layer_1" xmlns="http://www.w3.org/2000/svg" xmlns:xlink="http://www.w3.org/1999/xlink" x="0px" y="0px"
	 viewBox="0 0 32 32" style="enable-background:new 0 0 32 32;" xml:space="preserve">
<style type="text/css">
	.st0{fill:#A26A37;}
</style>
<g id="XMLID_4618_">
	<path id="XMLID_23978_" class="st0" d="M25.9,19.4c0-0.1-0.1-0.2-0.1-0.3c0-0.1,0.1-0.2,0.1-0.3c0-0.1,0-0.2,0-0.4
		c0-0.8,0-1.6-0.2-2.4c-0.2-0.9-0.4-1.6-0.6-2.3c-0.2-0.5-0.3-1-0.4-1.4c-0.1-0.2-0.3-0.4-0.3-0.6c-0.5-1.2-0.9-2.7-1.6-4
		c-0.3-0.5-0.7-0.9-1.1-1.4c-0.2-0.2-0.4-0.5-0.6-0.7C21,5.6,21,5.5,20.9,5.5c-0.2-0.2-0.3-0.4-0.5-0.6c-0.5-0.4-1-0.7-1.5-1.1
		c-0.2-0.1-0.4-0.3-0.6-0.4c-0.2-0.1-0.2-0.1-0.4-0.3c-0.3-0.3-0.7-0.6-1-0.8c-0.1-0.1-0.3-0.1-0.4-0.1c-0.1,0-0.2-0.1-0.3-0.1
		c-0.2,0-0.3,0.1-0.5,0.2c-0.1,0.1-0.2,0.1-0.4,0.1c0,0-0.1,0.1-0.1,0.1c-0.9,0.3-1.6,0.7-2.1,1.3c-0.1,0.1-0.1,0-0.2,0.1
		c-0.2,0.2-0.4,0.5-0.6,0.7c-0.2,0.2-0.4,0.4-0.5,0.6c-0.1,0.1-0.1,0.1-0.2,0.2c-0.1,0.1-0.2,0.3-0.3,0.4c-0.2,0.3-0.5,0.6-0.7,0.9
		C10.3,6.9,10,7.2,9.8,7.5C9.6,7.7,9.5,7.9,9.3,8.1c-0.7,0.8-1.2,1.7-1.6,2.6c-0.2,0.5-0.5,1-0.7,1.5C7,12.3,7,12.4,7,12.6
		c-0.3,0.7-0.4,1.4-0.5,2.3c0,0.3-0.1,0.5-0.1,0.7c0,0.1,0,0.3,0,0.4c-0.1,0.4-0.2,0.9-0.2,1.3c0,0.2,0.1,0.3,0,0.5
		c0,0.1,0,0.3,0,0.4c0,0.2-0.1,0.5-0.1,0.7c0,0.2,0.1,0.5,0.1,0.7c0,0.7,0,1.3,0.1,1.8c0,0.2,0.1,0.4,0.1,0.6c0,0.2,0,0.3,0.1,0.5
		c0,0.1,0,0.1,0.1,0.2c0.1,0.3,0.1,0.6,0.2,1C7,24.4,7.4,25.1,8,25.9c0.3,0.4,0.6,0.7,0.9,1c0.3,0.2,0.5,0.3,0.8,0.5
		c0.1,0.1,0.3,0.1,0.4,0.2c0.6,0.4,1.1,0.7,1.8,0.8c0.1,0,0.1,0,0.2,0c0.6,0.1,1.2,0.3,1.8,0.4c0.6,0.1,0.8,0.1,1.2,0.4
		c0.2,0.2,0.7,0.9,0.8,0.8c0-0.3-0.1-1.9-0.1-2.2c0-0.2,0-0.3,0-0.5c0-0.2,0-0.3,0-0.5c0,0,0-0.1,0-0.1c0,0,0,0,0,0
		c0-0.1-0.1-0.3-0.1-0.4c0,0,0,0,0,0c-0.2-0.3-0.3-0.6-0.6-0.8c0,0,0,0,0,0c0,0,0,0,0,0c-0.4-0.2-0.7-0.4-1.1-0.6
		c-0.4-0.2-0.7-0.4-1-0.7c-0.5-0.5-0.9-1.1-1.3-1.7c0-0.1-0.1-0.2-0.1-0.3c-0.2-0.4-0.4-0.8-0.5-1.3c0-0.3-0.1-0.6-0.2-0.8
		c0-0.2-0.1-0.4-0.1-0.7c0-0.2-0.1-0.4-0.1-0.7c0-0.1,0-0.1,0-0.1c0-0.3,0-0.6,0-0.9c0-0.2,0-0.3,0.1-0.5c0-0.2,0.1-0.3,0.1-0.5
		c0-0.1,0-0.1,0-0.1c0-0.4,0.1-0.8,0.2-1.2c-0.4-0.5-0.5-1.4-0.5-2c0-0.2,0.3-0.2,0.3,0c0,0.1,0,0.3,0,0.4c0,0,0.1,0,0.1,0.1
		c0.1,0.2,0.1,0.3,0.2,0.5c0,0,0,0.1,0,0.1c0,0,0.1,0.1,0.1,0.1c0-0.1,0.1-0.2,0.1-0.3c0.1-0.3,0.1-0.6,0.1-0.9c0,0,0.1,0,0.1,0
		c0-0.1,0-0.1,0-0.2c0-0.1,0-0.1,0.1-0.2c0.1-0.5,0.3-0.8,0.4-1.2c0-0.1,0.1-0.3,0.3-0.3c0,0,0,0,0,0c0,0,0,0,0,0
		c0.2,0.1,0.2,0.3,0.2,0.5c0,0.1-0.1,0.2-0.1,0.3c0,0.1,0.1,0.1,0.1,0.2c0,0.2-0.2,0.4-0.2,0.5c-0.1,0.4-0.2,0.8-0.3,1.2
		c0,0.1,0,0.3-0.1,0.4c-0.1,0.4-0.2,0.7-0.2,1.1c0,0.1-0.1,0.3-0.1,0.4c0,0.3,0,0.6,0,1c0,0-0.1,0.1-0.1,0.1c0,0,0.1,0.1,0.1,0.1
		c0,0.1,0,0.1,0,0.2c0,0.2,0,0.3,0,0.5c0,0.5,0.2,0.9,0.3,1.4c0,0.1,0,0.1,0,0.2c0,0.2,0,0.5,0.2,0.7c0,0,0.1,0.1,0.1,0.2
		c0,0,0,0.1,0,0.1c0,0.1,0,0.1,0,0.2c0,0.1,0.1,0.2,0.2,0.3c0.5,0.9,1,1.6,1.6,2.2c0.2,0.2,0.5,0.4,0.9,0.6c0.3,0.1,0.5,0.2,0.8,0.3
		c0.1,0,0.2,0.3,0.4,0.3c0,0,0-0.2,0-0.2c0-0.1,0-0.1,0-0.2c0-0.2,0.1-0.4,0.1-0.6c0-0.1,0-0.3-0.1-0.4c0-0.2,0-0.3,0-0.5
		c0-0.6,0.1-1.1,0.1-1.7c0-0.9-0.1-1.9,0-2.9c0-1.2,0.1-2.5,0.1-3.7c0-0.5,0-1.1,0-1.6c0-0.1,0-0.2,0-0.3c0-0.1,0-0.2,0-0.4
		c0-0.2,0.1-0.4,0.1-0.6c0-0.4,0-0.8,0-1.2c0-0.2,0-0.3,0-0.5c0,0,0,0,0,0c0,0,0.1-0.1,0.1-0.1c0-0.1,0.1-0.1,0.2-0.1c0,0,0,0,0.1,0
		c0.1,0,0.1,0.1,0.1,0.2c0,0.1,0.1,0.3,0.1,0.4c0,0.4,0.1,0.7,0.1,1.1c0,0.3,0,0.6,0,1c0,0.2,0,0.4,0,0.6c0,0.3,0.1,0.5,0.1,0.8
		c0,0.8,0,1.6,0,2.3c0,0.2,0,0.5,0,0.7c0,0,0,0,0,0c0.2,1.3,0.1,2.5,0.1,3.8c0,0,0,0,0,0c0,0.2,0,0.4,0,0.5c0,0,0,0,0,0.1
		c0,0.4,0,1,0,1.4c0.1-0.2,0.2-0.4,0.3-0.4c0.3-0.2,0.4-0.4,0.7-0.6c0.5-0.4,1-0.8,1.4-1.5c0.2-0.3,0.3-0.5,0.5-0.8
		c0.1-0.1,0.1-0.1,0.2-0.3c0-0.1,0-0.2,0-0.2c0-0.1,0.1-0.3,0.1-0.4c0,0,0.1-0.1,0.1-0.1c0-0.1,0-0.1,0.1-0.2c0-0.1,0-0.2,0-0.3
		c0.2-0.5,0.3-0.8,0.2-1.2c0-0.1,0-0.1,0-0.2c0.1-0.2,0.1-0.4,0.1-0.7c0-0.1,0-0.2,0-0.3c0-0.3,0-0.7,0-1c0-0.1-0.1-0.1-0.1-0.2
		c0-0.1,0-0.1,0-0.2c0-0.1-0.1-0.3-0.1-0.4c0,0,0-0.1-0.1-0.1c0,0,0-0.1,0-0.1c0,0-0.1,0-0.1,0c0-0.1,0-0.2-0.1-0.4
		c0-0.2-0.1-0.4-0.1-0.6c0-0.1-0.1-0.3-0.1-0.4c0-0.1,0-0.2,0-0.3c0,0,0.1-0.1,0.2-0.1c0.1,0,0.2,0.1,0.3,0.3c0,0,0,0.1,0,0.1
		c0.1,0.2,0.1,0.2,0.1,0.5c0.1,0.4,0.2,0.7,0.3,1.1c0,0.1,0.1,0.3,0.1,0.4c0,0,0,0,0,0.1c0,0.5,0.1,0.9,0.1,1.3c0,0.1,0,0.2,0,0.3
		c0,0,0,0.1,0,0.1c0,0.1,0,0.1,0,0.2c0,0.1,0,0.2,0,0.4c0,0.1,0,0.2,0,0.3c0,0.1,0,0.3,0,0.5c0,0.1,0.1,0.2,0,0.2c0,0.1,0,0.1,0,0.2
		c0,0.4-0.1,0.7-0.2,1c0,0-0.1,0-0.1,0.1c0,0.1-0.1,0.3-0.1,0.4c0.1-0.1,0.2-0.1,0.3-0.2c0,0,0,0,0.1,0c0.1,0,0.2,0,0.3-0.1
		c0.1-0.1,0.2,0,0.1,0.1c-0.3,0.3-0.5,0.7-1,0.8c0,0,0,0,0,0c-0.1,0.2-0.2,0.5-0.3,0.7c-0.3,0.6-0.7,1.1-1.1,1.5
		c-0.2,0.2-0.5,0.4-0.8,0.7c-0.1,0.1,0,0.1-0.1,0.2c-0.3,0.2-0.5,0.5-0.9,0.7c-0.1,0.1-0.2,0.2-0.2,0.4c0,0,0,0,0,0c0,0,0,0,0,0
		c0,0.2,0,0.4-0.1,0.5c0,0,0,0,0,0c0,1.6,0.2,4.2,0.2,5.8c0.5-0.4,0.4-0.7,0.9-1c0.5-0.3,1.4-0.6,1.9-0.8c0.3-0.1,0.7-0.3,1-0.5
		c0.2-0.1,0.3-0.1,0.5-0.2c0.6-0.3,1-0.7,1.4-1.2c0.1-0.1,0.2-0.1,0.3-0.2c0.3-0.3,0.6-0.6,0.9-0.9c0,0,0-0.1,0.1-0.2
		c0.2-0.2,0.4-0.5,0.5-0.8c0,0,0.1,0,0.1-0.1c0,0,0,0,0,0c0,0,0.1-0.1,0.1-0.1c0.1-0.1,0.1-0.2,0.1-0.2c0.2-0.4,0.4-0.7,0.6-1
		c0.1-0.2,0.2-0.5,0.3-0.8c0.1-0.6,0.3-1,0.3-1.5c0-0.3,0-0.7,0-1C25.9,19.5,25.9,19.5,25.9,19.4z M13.8,26.6c0-0.1,0.1-0.1,0.2-0.1
		c0,0,0-0.1,0-0.1c0,0,0,0,0.1,0c0,0,0,0,0,0.1c0,0,0.1-0.1,0.1-0.1c0,0,0.1,0,0.1,0.1c0.1,0.1,0,0.3,0,0.3c0,0,0,0,0,0c0,0,0,0,0,0
		c0,0.1-0.1,0.2-0.2,0.2c0,0,0-0.1,0-0.1c-0.1,0-0.2,0-0.2-0.1C13.7,26.7,13.7,26.6,13.8,26.6z M13.2,27.4c0,0,0.1,0,0.1,0
		C13.3,27.4,13.3,27.4,13.2,27.4C13.3,27.4,13.3,27.4,13.2,27.4c0.1,0.1,0.1,0.1,0.1,0.1c0,0,0,0,0,0c0,0-0.1,0-0.1,0c0,0,0,0,0,0
		c0,0,0,0-0.1,0c0,0,0,0-0.1,0c-0.1,0-0.1,0-0.1-0.1c0-0.1,0,0,0.1-0.1C13.1,27.4,13.1,27.4,13.2,27.4
		C13.2,27.3,13.2,27.4,13.2,27.4z M12.8,26.8C12.8,26.8,12.9,26.8,12.8,26.8c0.1,0,0-0.1,0.1-0.1c0,0,0,0.1,0.1,0.1c0,0,0,0.1,0,0.1
		c0,0,0.1,0,0.1,0.1c0,0,0,0.1-0.1,0.1c0,0-0.1,0-0.1,0c0,0,0,0,0,0C12.8,27,12.8,27,12.8,26.8C12.8,26.9,12.8,26.9,12.8,26.8z
		 M24.3,15.1c0-0.1,0.1-0.1,0.1-0.1c0,0,0-0.1,0.1-0.1c0,0,0.1,0.1,0.1,0.1c0,0,0,0.1,0,0.1c0,0,0.1,0,0.1,0c0,0-0.1,0-0.1,0.1
		c0,0-0.1,0-0.1,0c0,0-0.1,0-0.1,0c0,0,0,0,0,0c-0.1,0-0.1,0-0.2,0C24.2,15.2,24.2,15.1,24.3,15.1z M24.3,16.1
		C24.3,16.1,24.3,16.1,24.3,16.1C24.3,16.1,24.3,16,24.3,16.1c0.1,0,0.2,0,0.2,0c0,0,0,0.1,0,0.1c0.1,0,0.2,0.1,0.1,0.2
		c0,0.1-0.1,0.1-0.2,0.1c0,0,0,0-0.1,0c-0.2,0-0.2-0.2-0.1-0.3C24.3,16.2,24.3,16.2,24.3,16.1C24.3,16.2,24.2,16.1,24.3,16.1
		C24.2,16.1,24.3,16.1,24.3,16.1z M24.4,17C24.4,17,24.4,17,24.4,17c0.1-0.1,0-0.1,0-0.2c0-0.1,0-0.1,0.1-0.1c0.1,0,0,0.1,0,0.1
		c0,0,0.1,0,0.1,0c0,0,0,0.1,0,0.1c0,0-0.1,0-0.1,0.1c0,0,0,0,0,0c0,0,0,0,0,0C24.5,17.1,24.4,17.2,24.4,17
		C24.4,17.1,24.5,17.1,24.4,17C24.4,17.1,24.4,17.1,24.4,17z M23.9,18.9C23.9,18.9,23.9,18.9,23.9,18.9C24,18.9,24,18.9,23.9,18.9
		c0.2,0.2,0.2,0.2,0.2,0.3c0,0.1-0.1,0.2-0.4,0.3c0,0,0,0,0,0c0,0-0.1,0.1-0.1,0c-0.1-0.1-0.1-0.2-0.1-0.3c0-0.1,0.1-0.1,0.2-0.1
		C23.7,19.1,23.8,19,23.9,18.9C23.8,18.9,23.8,18.9,23.9,18.9c-0.1,0-0.1,0-0.1,0c0,0,0,0,0,0c0,0-0.2,0-0.2-0.1c0,0,0-0.1,0.1-0.1
		c0,0,0,0,0.1,0c0,0,0,0,0,0C23.9,18.7,23.9,18.7,23.9,18.9C24,18.9,23.9,18.8,23.9,18.9C23.9,18.8,23.9,18.9,23.9,18.9
		C23.9,18.9,23.9,18.9,23.9,18.9z M23.9,20.5c0,0,0,0.2-0.1,0.2c0,0,0,0,0,0c0,0-0.1-0.1-0.1-0.1c0,0,0,0,0,0c0,0-0.1,0-0.1,0
		c0.1-0.1,0.1-0.1,0.2-0.1c0,0,0,0,0,0C23.9,20.4,23.9,20.4,23.9,20.5C23.9,20.4,23.9,20.5,23.9,20.5z M23.9,20
		C23.8,20,23.8,20,23.9,20c-0.1-0.1,0-0.1,0-0.1c0,0,0.1,0,0.1,0c0,0,0-0.1,0-0.1c0,0,0,0.1,0.1,0.1c0,0,0,0.1,0,0.1
		c0,0,0,0.1,0,0.1C24,20,24,20.1,23.9,20C23.9,20.1,23.9,20.1,23.9,20C23.9,20.1,23.9,20,23.9,20z M22.5,22.8
		C22.5,22.8,22.5,22.8,22.5,22.8C22.4,22.8,22.4,22.7,22.5,22.8c-0.1-0.1-0.2-0.1-0.2-0.1c0,0,0.1-0.1,0.1-0.2c0,0,0.1,0.1,0.1,0.1
		c0,0,0,0,0.1,0c0.1,0,0.1,0,0.1,0C22.6,22.7,22.6,22.7,22.5,22.8C22.5,22.7,22.5,22.8,22.5,22.8z M22.7,22.5
		C22.7,22.4,22.6,22.4,22.7,22.5C22.6,22.4,22.7,22.4,22.7,22.5c0-0.1,0.1-0.1,0.1-0.1c0,0,0.1,0,0.1,0c0,0,0,0,0,0c0,0,0,0,0,0.1
		c0,0,0,0-0.1,0c0,0,0,0,0,0c0,0,0,0.1-0.1,0.1c0,0,0-0.1,0-0.1C22.7,22.6,22.7,22.6,22.7,22.5C22.6,22.5,22.7,22.5,22.7,22.5
		C22.6,22.5,22.7,22.5,22.7,22.5z M22.8,22.3C22.8,22.3,22.8,22.3,22.8,22.3c-0.2,0-0.4-0.1-0.4-0.2c0-0.1-0.1-0.1-0.2-0.1
		c-0.1,0-0.1,0-0.2,0c0,0-0.1,0-0.1,0c0,0,0,0,0,0c0-0.1,0-0.1,0-0.1c0,0,0,0,0,0c0,0,0-0.1,0-0.1c0,0,0.1,0,0.1-0.1
		c-0.1,0-0.2-0.1-0.3-0.2c0,0-0.1-0.1,0-0.1c0-0.1,0,0,0.1,0c0.2,0,0.2-0.1,0.3-0.2c0,0,0-0.1,0-0.1c0,0,0,0,0,0
		c0.1,0,0.1-0.1,0.1-0.1c0.1,0,0.2,0,0.2,0c0.1,0,0.3-0.1,0.3,0.1c0,0,0,0,0,0.1c0,0,0,0,0,0c0,0-0.1,0-0.1,0
		c-0.1,0-0.1,0.2-0.1,0.2c-0.1,0.1-0.2,0.1-0.3,0.2c-0.1,0.1-0.1,0.1-0.2,0.1c0,0,0,0,0,0.1c0.1,0,0.2,0,0.3,0.1
		c0.1,0.1,0.2,0,0.3,0c0.1,0,0.1,0.1,0.2,0.1c0,0,0,0,0,0c0,0,0.1,0,0.1,0c0,0,0,0,0,0c0,0.1,0,0.1-0.1,0.1
		C23,22.1,22.9,22.2,22.8,22.3z M21.9,22.5C21.9,22.5,21.8,22.5,21.9,22.5c-0.1-0.1-0.1-0.2,0-0.2c0,0,0.1,0,0.2,0c0,0,0,0,0.1,0
		c0,0,0.1,0.1,0.1,0.1c0,0.1-0.1,0.1-0.1,0.1c0,0,0,0.1-0.1,0.1C22,22.6,21.9,22.5,21.9,22.5C21.9,22.5,21.9,22.5,21.9,22.5z
		 M22.7,16.8c-0.1,0-0.1-0.1-0.1-0.1c0-0.1,0-0.1,0.1-0.1c0.1,0,0.1,0,0.1,0c0,0,0,0.1-0.1,0.1c0,0,0,0-0.1,0
		C22.7,16.7,22.8,16.8,22.7,16.8z M22.7,17.3C22.7,17.3,22.7,17.3,22.7,17.3c0.1,0,0-0.1,0.1-0.1c0,0,0,0.1,0.1,0.1c0,0,0,0.1,0,0.1
		c0,0,0.2,0,0.2,0.1c0,0.1,0,0.1-0.1,0.2c0,0-0.1,0-0.1,0c0,0,0,0.1,0,0.1c0,0,0,0,0-0.1c0,0-0.1,0-0.1,0c0,0,0-0.1,0-0.1
		C22.6,17.4,22.6,17.3,22.7,17.3z M23,15.7c0.2,0,0.2,0,0.3,0.2c0,0-0.1,0-0.1,0c0,0,0,0.1,0,0.1c0,0-0.1,0-0.1,0c0,0,0,0,0,0
		c0,0-0.2,0-0.2-0.1C22.9,15.8,22.9,15.7,23,15.7C23,15.7,23,15.7,23,15.7C23,15.7,23,15.7,23,15.7z M23.5,17.9
		C23.6,17.9,23.6,17.9,23.5,17.9c0.1,0.1,0,0.1,0,0.1c0,0,0,0.1-0.1,0.1c0,0,0,0,0,0c0,0-0.1,0-0.1-0.1C23.4,18,23.4,18,23.5,17.9
		c-0.1,0-0.1,0-0.1,0C23.4,17.9,23.5,17.8,23.5,17.9c-0.1,0-0.1,0-0.2,0c-0.1,0-0.1-0.1-0.1-0.2c0,0-0.1-0.1,0-0.1
		c0,0,0.1-0.1,0.2,0c0,0,0.1,0.1,0.1,0.1c0,0,0.1,0,0.1,0c0,0,0.1,0.1,0.1,0.1C23.6,17.8,23.6,17.8,23.5,17.9
		C23.5,17.8,23.5,17.8,23.5,17.9C23.5,17.9,23.5,17.9,23.5,17.9z M23.1,20.7c0.1,0,0.1,0.1,0.1,0.1c0,0-0.1,0-0.1,0c0,0,0,0.1,0,0.1
		c0,0,0,0-0.1,0C23,21,23,20.9,23,20.9c0,0,0.1,0,0.1,0C23.1,20.8,23.1,20.7,23.1,20.7z M23,18.4C23,18.4,23,18.5,23,18.4
		C22.9,18.4,23,18.4,23,18.4C23,18.3,23,18.3,23,18.4c0-0.1,0-0.2,0.1-0.2c0.1,0,0.1,0,0.2,0c0,0,0,0,0,0c0,0,0.1,0,0.1,0.1
		c0,0,0,0.1-0.1,0.1c0,0,0,0,0,0c-0.1,0-0.1,0.1-0.2,0.1c0,0,0,0,0,0C23.1,18.4,23.1,18.5,23,18.4C23,18.5,23,18.4,23,18.4z
		 M23.5,17.1C23.5,17.1,23.5,17.2,23.5,17.1c0.1,0.1,0.1,0.1,0,0.2c0,0,0,0.1,0,0.1c0,0-0.1,0.1-0.1,0.1c0,0,0-0.1,0-0.1
		c0,0-0.1,0,0-0.1c0,0,0.1,0,0.1,0C23.5,17.2,23.5,17.1,23.5,17.1z M23.6,16.5C23.6,16.5,23.6,16.5,23.6,16.5
		C23.6,16.6,23.5,16.6,23.6,16.5c-0.2-0.1-0.1-0.1-0.1-0.3c0,0,0,0,0.1,0c0.1,0,0.2,0.1,0.2,0.1c0,0,0,0.1,0,0.2
		C23.7,16.5,23.7,16.4,23.6,16.5z M23.6,14.7c0,0.1-0.1,0.1-0.2,0.2c0,0,0,0.1,0,0.1c0,0,0,0,0,0c-0.1,0-0.1,0.1-0.1,0
		c-0.1-0.4-0.1-0.4-0.1-0.7c0,0,0.1,0,0.1,0c0,0,0,0.1,0.1,0.1c0.1,0,0.1,0,0.2,0.1C23.6,14.5,23.6,14.6,23.6,14.7z M23,16.2
		C23.1,16.2,23.1,16.2,23,16.2c0.1,0.2,0.2,0.2,0.1,0.3c-0.1,0.1-0.2,0-0.2-0.1C22.9,16.3,22.9,16.3,23,16.2z M22.6,18.9
		c0,0,0.1,0,0.1,0C22.8,19,22.7,19,22.6,18.9C22.6,19,22.6,19,22.6,18.9c-0.1,0.1-0.1,0.2-0.1,0.2c0,0,0,0,0,0c0,0-0.1-0.1-0.1-0.1
		c0-0.1,0-0.1,0-0.1c0,0,0,0,0,0C22.5,18.9,22.6,18.9,22.6,18.9C22.6,18.9,22.6,18.9,22.6,18.9z M22.7,20.1
		C22.7,20.1,22.7,20.1,22.7,20.1c-0.1,0.1-0.1,0.1-0.1,0.1c0,0,0-0.1,0-0.1c0,0,0,0,0-0.1c0,0,0,0,0,0c0,0,0,0,0.1,0
		c0,0,0.1-0.1,0.1-0.1C22.7,19.9,22.7,20,22.7,20.1C22.7,20,22.7,20,22.7,20.1z M22.5,18.2c-0.2,0.2-0.2,0.1-0.4,0.2c0,0,0,0,0-0.1
		c-0.1-0.2-0.2-0.3-0.2-0.4c0,0,0-0.1,0-0.1c0,0,0,0,0-0.1c0,0,0-0.1,0.1-0.1C22.3,17.8,22.5,17.9,22.5,18.2
		C22.6,18.2,22.6,18.2,22.5,18.2z M22.3,20C22.3,20.1,22.2,20.1,22.3,20c-0.1,0-0.1,0-0.1-0.1c0,0,0-0.1,0-0.1c0,0,0,0,0.1,0
		c0.1,0,0.1,0.1,0.1,0.1C22.3,20,22.3,19.9,22.3,20C22.2,20,22.3,20,22.3,20z M22,18.8c0,0-0.1,0.1-0.2,0.1c0,0,0,0,0-0.1
		c0,0,0,0,0,0c0-0.1,0-0.2,0-0.2c0.1,0,0.2,0,0.3,0c0,0,0,0,0,0.1c0,0,0,0,0,0C22.2,18.8,22.1,18.8,22,18.8z M21.9,17.7
		C21.9,17.7,21.9,17.7,21.9,17.7C21.9,17.7,21.9,17.7,21.9,17.7c-0.1-0.1-0.2-0.1-0.2-0.2c0-0.1,0.1-0.2,0.1-0.2c0,0,0,0,0,0
		c0,0,0-0.1,0.1,0c0.1,0,0.1,0.1,0.2,0.2C22.1,17.6,22,17.6,21.9,17.7z M23.1,21.7c0-0.1,0-0.2,0.1-0.2c0,0,0.1,0,0.1,0
		c0.1,0.1,0.2,0.1,0.2,0.2c0,0.1,0,0.2-0.1,0.3c0,0,0,0.1,0,0c-0.1-0.1-0.1,0-0.2-0.1C23.1,21.9,23.1,21.8,23.1,21.7z M23.4,19.9
		C23.4,20,23.4,19.9,23.4,19.9C23.4,19.9,23.4,20,23.4,19.9C23.4,20,23.4,20,23.4,19.9c-0.3,0-0.4,0-0.4-0.2c0-0.1,0-0.2,0.2-0.3
		c0,0,0,0,0,0c0.1,0,0.2,0.1,0.3,0.2c0,0,0,0.1,0,0.1C23.5,19.9,23.5,19.9,23.4,19.9z M23.8,17.6C23.8,17.6,23.8,17.6,23.8,17.6
		c0-0.1,0-0.1,0-0.1c0.2-0.2,0.5-0.2,0.6,0c0.1,0.1,0,0.2,0,0.2c0,0,0,0.1-0.1,0.1c-0.1,0-0.1,0.1-0.1,0.1
		C24,17.9,23.8,17.7,23.8,17.6z M23.9,16.1c0-0.1,0.2-0.1,0.2,0c0,0.1,0,0.1-0.1,0.1C23.9,16.3,23.9,16.2,23.9,16.1z M23.8,14.1
		c0,0,0,0.1-0.1,0.1c0,0,0,0-0.1,0c0,0-0.1,0-0.1,0c0.1-0.2,0-0.2,0.1-0.4c0,0,0.1,0,0.1,0c0,0,0,0.1,0,0.1
		C23.8,13.9,23.8,13.9,23.8,14.1C23.8,14,23.8,14.1,23.8,14.1z M23.5,12.9C23.5,12.9,23.5,12.9,23.5,12.9c0.1,0,0-0.1,0.1-0.1
		c0.2,0.1,0.2,0.1,0.3,0.2c0,0-0.1,0-0.1,0c0,0,0,0.1,0,0.1c0,0-0.1,0.1-0.1,0.1c0,0,0,0,0,0c0,0,0,0,0,0c0,0-0.1-0.1-0.1-0.1
		C23.4,13,23.4,12.9,23.5,12.9z M23.1,13.1C23.1,13.1,23.1,13,23.1,13.1c0-0.1-0.1-0.2,0-0.2c0,0,0,0,0,0c0,0,0,0,0,0
		c0,0,0.1,0,0.1,0c0,0,0,0,0,0c0,0,0,0.1,0,0.1c0,0,0,0.1,0,0.1c0,0,0,0,0,0c0,0,0,0,0,0c0.1,0,0.1,0.1,0.2,0.2
		c0.1,0.1,0.2,0.2,0.1,0.2c0,0.1-0.1,0.1-0.1,0.1c0,0,0,0.1,0,0.1c0,0,0,0-0.1,0c0,0,0,0-0.1,0c0,0,0-0.1-0.1-0.2
		c-0.1-0.1-0.2-0.1-0.3-0.2c0,0-0.1-0.1,0-0.1C22.9,13.2,23,13.1,23.1,13.1C23.1,13.1,23.1,13.1,23.1,13.1z M22.8,11.2
		C22.8,11.2,22.8,11.2,22.8,11.2C22.8,11.2,22.8,11.2,22.8,11.2c0.1,0,0.1,0,0.2,0c0,0,0,0.1-0.1,0.1C22.9,11.3,22.9,11.3,22.8,11.2
		c0,0.1,0,0.2,0,0.2C22.8,11.4,22.7,11.3,22.8,11.2C22.7,11.2,22.8,11.2,22.8,11.2z M22.7,14.2c0.1,0,0.1,0,0.2,0
		C22.9,14.3,22.7,14.2,22.7,14.2c0,0.1,0.2,0.1,0.2,0.2c0,0.1-0.1,0.1-0.2,0.1c0,0,0-0.1,0-0.1c0,0-0.1,0-0.1,0c0,0,0,0,0,0
		c0,0,0,0,0,0C22.6,14.3,22.5,14.2,22.7,14.2C22.6,14.1,22.6,14.2,22.7,14.2z M22.6,13.7C22.6,13.8,22.6,13.7,22.6,13.7
		c-0.1-0.1-0.2-0.1-0.2-0.2c0-0.1,0-0.2,0-0.2c0,0,0.1-0.1,0.1-0.1C22.6,13.5,22.6,13.5,22.6,13.7z M22.5,10.6
		C22.5,10.6,22.5,10.6,22.5,10.6c0.1,0.1,0.1,0.1,0.1,0.1c0,0-0.1,0-0.1,0c0,0,0,0,0,0c-0.1,0-0.1,0-0.1,0
		C22.3,10.7,22.4,10.6,22.5,10.6C22.4,10.6,22.4,10.6,22.5,10.6z M22.1,9.9c0-0.1,0.1-0.1,0.2-0.1c0,0,0-0.1,0.1-0.1
		c0,0,0.1,0.1,0.1,0.1c0,0.1,0,0.1-0.1,0.2c0,0,0,0.1-0.1,0.2c0,0,0,0-0.1,0c0,0,0,0-0.1,0c0,0,0,0,0-0.1c0,0,0-0.1,0-0.1
		C22.1,9.9,22.1,9.9,22.1,9.9z M22.3,11c0.1,0,0.1,0.1,0.1,0.2c0,0,0,0,0,0c0,0,0,0,0,0c0,0-0.1,0-0.1,0c0,0,0,0.1,0,0.1
		c0,0-0.1-0.1-0.1-0.1c0,0,0-0.1,0-0.1c0,0,0,0,0,0C22.1,11.1,22.1,11,22.3,11z M22.2,11.7c0,0,0-0.1,0-0.1c0,0,0.1,0.1,0.1,0.1
		C22.3,11.6,22.2,11.7,22.2,11.7c0.1,0.1,0.1,0.1,0.1,0.2c0,0,0,0.1-0.1,0.1c0,0,0,0,0,0c0,0,0,0,0,0.1c0.1,0.1,0.2,0.2,0.2,0.3
		c0,0.1,0,0.1-0.1,0.1c0,0-0.1,0.1-0.2,0.1c0,0,0,0,0,0c-0.1,0-0.2,0-0.3-0.1c0,0,0,0,0,0c0.1-0.2,0.1-0.2,0.3-0.3c0,0,0,0,0,0
		c0,0,0,0,0-0.1c0,0-0.1,0-0.1-0.1C22,11.8,22.1,11.7,22.2,11.7C22.1,11.7,22.1,11.7,22.2,11.7z M21.9,13.2c0,0-0.1,0-0.1,0
		c0,0,0,0,0,0c0,0-0.1,0-0.1,0c0,0,0,0,0,0c0,0,0,0,0-0.1c0-0.1,0-0.1,0.1-0.2C21.9,12.9,21.9,13,21.9,13.2
		C22,13.2,21.9,13.1,21.9,13.2C21.9,13.1,21.9,13.2,21.9,13.2z M21.8,14.7C21.8,14.7,21.8,14.8,21.8,14.7c0.1,0,0.1-0.1,0.1-0.1
		c0.1,0.1,0.1,0.1,0.1,0.3c0,0.1-0.1,0.1-0.2,0.1c0,0-0.1,0-0.1,0c0,0,0-0.1-0.1-0.1C21.7,14.8,21.7,14.8,21.8,14.7z M22,13.8
		c0,0-0.1,0-0.1,0c0,0,0,0,0,0c0,0-0.1,0-0.1-0.1c0,0,0,0,0-0.1c0,0,0,0,0,0c0,0,0-0.1,0-0.1c0,0,0.1,0.1,0.1,0.1
		C22,13.6,22,13.6,22,13.8C22.1,13.7,22.1,13.7,22,13.8C22,13.8,22,13.8,22,13.8z M22,11.3C22,11.3,22,11.3,22,11.3
		C22,11.3,22,11.3,22,11.3c-0.1,0.2,0,0.3-0.2,0.5c0,0-0.1,0-0.1-0.1c-0.1-0.1-0.2-0.2-0.1-0.4C21.8,11.2,21.9,11.3,22,11.3z
		 M21.8,10.9c0,0.1-0.1,0-0.1,0c0,0,0,0.1,0,0.1c0,0-0.1,0-0.1,0c0,0,0,0,0,0c0,0-0.1,0-0.1,0c0,0,0.1-0.1,0.1-0.2
		c0,0,0.1,0.1,0.1,0.1C21.6,10.9,21.6,10.9,21.8,10.9C21.7,10.9,21.8,10.9,21.8,10.9z M21.2,24.2c0,0-0.1,0-0.1,0c0,0,0,0,0,0
		c0,0,0,0.1-0.1,0c0,0-0.1-0.1-0.1-0.2c0,0,0.1-0.1,0.1-0.1c0,0,0.1,0,0.1,0c0,0,0,0,0.1,0c0,0,0.1,0,0.1,0
		C21.2,24.2,21.2,24.1,21.2,24.2C21.1,24.2,21.2,24.2,21.2,24.2z M21.2,22.7C21.2,22.8,21.1,22.7,21.2,22.7c-0.1,0-0.1,0.1-0.1,0.1
		c0,0,0,0,0,0c0,0,0-0.1-0.1-0.1c0,0,0,0,0,0c0,0,0,0,0,0c0,0,0,0,0-0.1c0,0,0,0,0.1,0c0,0,0-0.1,0.1-0.1c0,0,0,0,0,0
		c0,0,0.1,0,0.1,0C21.1,22.6,21.1,22.7,21.2,22.7c0,0,0.1-0.1,0.1,0C21.3,22.8,21.2,22.7,21.2,22.7z M21.3,21.7
		c-0.1,0,0-0.1-0.1-0.2c-0.1-0.1-0.1-0.2-0.1-0.2c0,0-0.1,0-0.1,0c0,0,0,0,0,0c0,0,0.1-0.1,0.2-0.1c0.1,0,0.1,0,0.2,0.1
		c0,0,0.1,0.1,0,0.1c0,0,0,0.1,0,0.1c0,0-0.1,0-0.1,0.1C21.3,21.6,21.4,21.8,21.3,21.7z M21.2,22.1c-0.1-0.1-0.1-0.1-0.1-0.2
		c0.1-0.1,0.2-0.1,0.3,0c0.1,0,0.1,0.2,0,0.2C21.4,22.3,21.3,22.2,21.2,22.1z M21.4,7.8C21.5,7.7,21.5,7.8,21.4,7.8
		c0.1,0.1,0.2,0.1,0.2,0.1c0,0-0.1,0.1-0.1,0.1c0,0,0,0,0,0c-0.1,0-0.2,0.1-0.2,0C21.2,8,21.4,7.9,21.4,7.8z M21.2,9.4
		C21.2,9.4,21.3,9.4,21.2,9.4c0,0.1,0,0.2-0.1,0.1c-0.2,0-0.1-0.1-0.2-0.2c0,0,0,0,0-0.1c0.1,0,0.1,0,0.2,0
		C21.2,9.3,21.2,9.3,21.2,9.4z M20.6,8c0-0.1,0.1-0.2,0.1-0.3c0,0,0.1,0,0.1,0c0.1,0,0.2,0,0.2,0.1c0,0.1,0,0.1,0,0.1
		C21,8,20.9,8,20.6,8C20.7,8,20.7,8.1,20.6,8C20.6,8,20.6,8,20.6,8z M20.4,8.1c0,0,0,0-0.1,0.1c0,0,0,0.1,0,0.1c0,0-0.1-0.1-0.1-0.1
		c0,0,0-0.1,0-0.1c0,0-0.1,0-0.1,0c0,0,0.1-0.1,0.1-0.1c0,0,0.1,0,0.1,0c0,0,0.1,0,0.1,0C20.4,8,20.4,8,20.4,8.1
		C20.4,8.1,20.5,8.1,20.4,8.1z M20.2,8.4C20.2,8.4,20.2,8.4,20.2,8.4C20.2,8.4,20.2,8.4,20.2,8.4c0,0.2-0.1,0.3-0.3,0.3
		c0,0,0,0.1,0,0.1c-0.1,0-0.2-0.1-0.2-0.3c0-0.1,0.1-0.1,0.1-0.2c0.1-0.1,0.2-0.2,0.3-0.2C20.1,8.3,20.2,8.3,20.2,8.4
		C20.2,8.4,20.2,8.4,20.2,8.4z M19.5,6.7c0-0.1,0-0.3,0.2-0.4c0.2-0.1,0.3,0,0.4,0.2c0,0,0,0,0,0c0,0.1,0,0.1,0,0.1
		c0,0-0.1,0.1-0.1,0.1c0,0-0.1,0-0.1,0c0,0,0,0,0,0C19.9,7,19.9,7,20.1,7.2c0,0,0.1,0,0.1,0c0,0,0.1,0.1,0.1,0.1c0,0,0.1,0,0.1,0
		c0,0,0,0,0,0c0,0,0,0,0,0.1c0,0,0,0-0.1,0c0,0,0,0.1,0,0.1c0,0-0.1,0-0.2,0c0,0,0,0,0,0c-0.2,0-0.4,0-0.6-0.1
		c-0.1,0-0.2-0.1-0.2-0.2c0-0.1,0-0.2,0.1-0.3C19.4,6.8,19.5,6.8,19.5,6.7z M19.1,6.2C19.1,6.2,19.1,6.2,19.1,6.2
		c0.1-0.1,0.2-0.1,0.2-0.1c0.1,0,0.1,0.1,0.1,0.2c0,0,0,0,0,0c0,0,0.1,0.1,0,0.1c0,0-0.1,0.1-0.2,0.1c0,0,0-0.1,0-0.1
		C19.1,6.4,19.1,6.3,19.1,6.2C19.1,6.3,19.1,6.3,19.1,6.2z M19.3,10.1C19.3,10.1,19.3,10.1,19.3,10.1C19.3,10.1,19.3,10.1,19.3,10.1
		c-0.1,0.1-0.1,0.1-0.1,0.1c0,0,0,0,0,0c0,0,0,0,0,0c0,0-0.1,0-0.1,0c0,0,0-0.1,0-0.1c0,0,0,0,0.1,0c0-0.1,0-0.2,0-0.2
		c0.1,0,0.1,0.1,0.1,0.1C19.3,9.9,19.3,10,19.3,10.1C19.3,10,19.3,10,19.3,10.1z M18.3,8.9c0.2-0.2,0.3-0.2,0.5-0.1
		c0,0,0.1,0.1,0.1,0.1c0,0,0.1,0,0.1,0c0,0,0-0.1-0.1-0.1c0-0.1-0.1-0.2,0-0.2c0,0,0,0,0,0c0,0,0,0.1,0.1,0.1c0.1,0,0.1,0,0.2,0.1
		c0,0.1,0,0.1,0,0.2c0,0,0.1,0.1,0,0.1c0,0,0,0-0.1-0.1c0,0,0,0,0,0c0,0,0,0.1,0.1,0.1c0,0,0,0,0,0.1c0,0.1,0.1,0.1,0.1,0.1
		c0,0-0.1,0-0.1,0c0,0-0.1,0-0.1,0c0,0-0.1,0-0.1,0c0,0,0,0,0,0c-0.2-0.1-0.3-0.1-0.5-0.2C18.4,9.1,18.4,9,18.3,8.9
		C18.3,8.9,18.2,9,18.3,8.9C18.2,8.9,18.2,8.9,18.3,8.9C18.2,8.9,18.2,8.9,18.3,8.9c-0.1,0-0.2-0.1-0.2-0.1c0,0-0.1-0.1,0-0.1
		c0,0,0,0,0,0c0,0,0-0.1,0.1,0c0.1,0.1,0.1,0.1,0.2,0.2C18.4,8.8,18.4,8.8,18.3,8.9C18.3,8.8,18.3,8.8,18.3,8.9
		C18.3,8.8,18.3,8.9,18.3,8.9C18.3,8.9,18.3,8.9,18.3,8.9z M18.8,7.6C18.8,7.5,18.8,7.5,18.8,7.6c0.1-0.1,0.1-0.2,0.1-0.2
		c0,0,0,0,0.1,0c0,0,0-0.1,0-0.1c0,0,0,0.1,0,0.1c0,0,0.1,0,0.1,0c0,0,0,0.1,0,0.1c-0.1,0.1,0,0.3,0.1,0.4c0,0,0,0.1,0,0.1
		c0,0.1,0,0.2-0.1,0.2c0,0,0,0,0,0c0,0,0,0,0,0c0,0-0.1,0.1-0.1,0.1c0,0,0,0-0.1-0.1c-0.1,0-0.1-0.1-0.2-0.2c0-0.1,0-0.1,0.1-0.2
		C18.7,7.7,18.8,7.7,18.8,7.6C18.8,7.6,18.8,7.6,18.8,7.6z M18,10.1C18,10.1,17.9,10.1,18,10.1C17.9,10.1,18,10.1,18,10.1
		c0-0.1,0-0.1,0-0.1c0,0,0.1,0,0.1,0c0,0,0,0,0,0c-0.1,0-0.2-0.1-0.2-0.1c0-0.1,0-0.1,0-0.2c0,0,0.1,0,0.1,0c0,0,0.1-0.1,0.2,0
		c0.1,0.1,0.1,0.2,0,0.4c0,0,0,0,0,0c0,0,0.1,0,0.1,0c0,0,0,0,0,0c0,0,0,0,0,0.1c0,0,0,0-0.1,0c0,0,0,0,0,0c0,0,0,0.1-0.1,0.1
		C18.1,10.3,18.1,10.2,18,10.1C18,10.2,18,10.2,18,10.1C18,10.2,18,10.1,18,10.1z M18.4,12C18.5,11.9,18.5,12,18.4,12
		c0.1,0,0.1,0,0.2,0c0,0,0.1,0,0.1,0.1c0,0-0.1,0-0.1,0c0,0,0,0.1,0,0.1c0,0,0,0-0.1-0.1c0,0,0,0,0-0.1c-0.1,0-0.2,0-0.2,0
		C18.3,12,18.4,12,18.4,12z M18.6,10.5C18.6,10.5,18.6,10.5,18.6,10.5c-0.1,0-0.2,0-0.2-0.1c0,0,0-0.1,0-0.1c0,0,0.1,0,0.1,0
		c0,0,0.1,0,0.1,0c0,0,0,0,0,0c0,0,0,0,0,0c0,0.1,0.1,0.1,0.1,0.1c0,0,0,0-0.1,0C18.7,10.5,18.7,10.5,18.6,10.5
		C18.7,10.5,18.7,10.5,18.6,10.5z M18.8,9.7C18.8,9.8,18.8,9.8,18.8,9.7c-0.1,0.1-0.1,0.1-0.1,0c0,0,0-0.1,0-0.1c0-0.1,0-0.1,0-0.2
		c0-0.1,0-0.2,0-0.2c0,0,0.1,0,0.1,0c0,0,0.1,0.1,0.1,0.1c0,0.1,0.1,0.1,0.1,0.2C18.9,9.5,18.9,9.6,18.8,9.7
		C18.8,9.7,18.8,9.7,18.8,9.7z M18.1,8.9C18.1,9,18,9,17.9,9.1c0,0,0,0-0.1,0c0,0,0-0.1,0-0.1c0,0,0.1,0,0.1-0.1c0,0,0-0.1,0-0.1
		C18.1,8.7,18.1,8.8,18.1,8.9z M17.9,10.9C17.9,10.9,17.9,10.9,17.9,10.9c0.1,0.1,0.1,0,0.1,0c0.1,0,0.1,0,0.1,0.1
		c0,0.1-0.1,0-0.1,0c0,0,0,0.1,0,0.1c0,0-0.1,0-0.1,0c0,0,0-0.1,0-0.1C17.8,11.1,17.8,11,17.9,10.9C17.8,10.9,17.9,10.9,17.9,10.9z
		 M17.9,12.3c0,0,0-0.1,0-0.1c0,0,0.1,0,0.1,0.1c0,0,0,0,0,0.1c0,0,0.1,0,0.1,0c-0.1,0.1-0.1,0.2-0.2,0.2
		C17.8,12.5,17.8,12.4,17.9,12.3C17.8,12.3,17.8,12.3,17.9,12.3C17.8,12.3,17.8,12.3,17.9,12.3z M17.9,12.7
		C17.9,12.7,18,12.7,17.9,12.7c0.1,0,0.1-0.1,0.1-0.1c0,0,0.1,0.1,0.1,0.1c0,0,0,0.1,0,0.1c0,0,0.1,0,0.1,0c0,0-0.1,0-0.1,0.1
		c0,0-0.1,0-0.1,0c0,0-0.1,0-0.1,0c0,0,0,0,0,0c0,0-0.1,0-0.1-0.1C17.9,12.8,17.9,12.7,17.9,12.7C17.9,12.7,17.9,12.7,17.9,12.7
		C17.8,12.7,17.9,12.7,17.9,12.7z M17.9,14C17.9,14,18,14,17.9,14c0.1,0,0.1-0.1,0.1-0.1c0,0,0.1,0,0.1,0.1c0,0,0,0.1,0,0.1
		c0,0,0,0.1,0,0.1c0,0,0,0,0,0c0,0,0,0-0.1,0C17.9,14.2,18,14.2,17.9,14C17.9,14,17.9,14,17.9,14z M18.1,14.9
		C18.1,14.9,18.1,14.9,18.1,14.9c0.1-0.1,0.1-0.2,0.2-0.2c0,0,0,0,0,0c0.1,0,0.1,0.1,0.2,0.1c0,0,0.1,0,0.1,0c0,0,0,0,0,0.1
		c0,0.1,0,0.1,0,0.1c0,0,0,0,0,0c0,0,0,0,0,0c0,0-0.1,0.1-0.1,0.1c0,0,0-0.1,0-0.1c-0.1,0-0.1,0-0.2,0C18.1,15,18.1,14.9,18.1,14.9
		C18.1,14.9,18,15,18.1,14.9C18,14.9,18,14.9,18.1,14.9z M18.5,13.5C18.5,13.5,18.5,13.5,18.5,13.5C18.5,13.5,18.5,13.5,18.5,13.5
		c0.2-0.3,0.1-0.4,0.3-0.6c0,0,0.1,0.1,0.1,0.1c0,0,0,0.1,0,0.1c0,0,0.1,0.1,0.1,0.1c0,0,0,0,0,0c0,0.1-0.1,0.2-0.2,0.3
		c-0.1,0-0.1,0.1-0.1,0.1C18.6,13.6,18.5,13.5,18.5,13.5z M18.9,11.2c0-0.1,0-0.1,0.1-0.2c0,0,0-0.1,0-0.1c0,0,0.1,0,0.1,0
		c0.1,0,0,0.1,0.1,0.2c0,0.1,0,0.2,0,0.2c0,0,0,0-0.1,0c0,0,0-0.1,0-0.1C19,11.3,19,11.2,18.9,11.2z M19.2,6.7c0,0.1,0,0.1,0,0.1
		c0,0.1-0.1,0.2-0.1,0.2c0,0-0.1,0.1-0.2,0.1c0,0,0,0,0,0c-0.1,0-0.1-0.1-0.1-0.1c0-0.1,0-0.2,0-0.3C18.9,6.7,19,6.6,19.2,6.7
		C19.1,6.6,19.1,6.7,19.2,6.7C19.2,6.7,19.2,6.6,19.2,6.7C19.3,6.6,19.3,6.6,19.2,6.7C19.3,6.7,19.2,6.7,19.2,6.7z M18.6,5.9
		C18.6,5.9,18.6,5.9,18.6,5.9c0.1,0,0-0.1,0.1-0.2c0,0,0.1,0,0.1,0c0,0,0,0.1,0,0.1c0,0,0.1,0,0.1,0c0,0,0,0.1-0.1,0.1
		c0,0-0.1,0-0.1,0c0,0,0,0.1-0.1,0.1c0,0,0,0,0,0c0,0-0.1,0-0.1,0C18.6,6,18.6,6,18.6,5.9C18.6,6,18.5,6,18.6,5.9
		C18.5,6,18.6,6,18.6,5.9z M18.4,7.6c0,0.1,0.2,0.1,0.1,0.2c-0.2,0.1-0.2,0.1-0.4,0.1c0,0,0-0.1,0-0.1c0-0.1,0-0.2,0.1-0.2
		C18.3,7.5,18.4,7.5,18.4,7.6C18.5,7.5,18.4,7.6,18.4,7.6z M18.3,6.3c0,0,0,0.1,0,0.1c0,0-0.1,0-0.1,0c0,0-0.1,0.1-0.1,0.1
		c-0.1-0.1,0-0.1,0-0.2c0,0,0.1,0,0.1,0c0,0,0-0.1,0.1-0.1C18.2,6.2,18.3,6.3,18.3,6.3z M18.3,5.5c0,0.1-0.1,0-0.1,0
		c0,0,0,0.1,0,0.1c0,0-0.1,0-0.1,0c0,0,0,0,0,0c0,0-0.1,0-0.1,0c0,0,0,0,0,0c0,0,0,0,0-0.1c0,0,0,0,0,0c0,0,0,0,0,0
		c0,0,0-0.1,0.1-0.1c0,0,0,0.1,0.1,0.1c0,0,0,0,0.1,0C18.2,5.4,18.3,5.4,18.3,5.5z M18.2,5c0,0,0,0.1,0,0.1c0,0.1,0,0.1-0.1,0.2
		c0,0-0.1,0-0.1,0c0,0,0,0,0,0c0,0-0.1,0-0.1,0c0,0,0,0-0.1-0.1c-0.1,0-0.1-0.1-0.1-0.2c0,0,0-0.1,0-0.1c0-0.1,0.1-0.1,0.2-0.1
		c0,0,0,0,0,0C18.1,4.9,18.1,4.9,18.2,5z M17.7,4.6C17.7,4.6,17.7,4.6,17.7,4.6c0.1,0,0.1-0.1,0.1-0.1c0,0,0.1,0.1,0.1,0.1
		c0,0,0,0.1,0,0.1c0,0,0.1,0,0.1,0c0,0-0.1,0.1-0.1,0.1c0,0-0.1,0-0.1,0c0,0-0.1,0.1-0.1,0.1c0,0,0,0,0,0c-0.1,0-0.1,0-0.1-0.1
		C17.7,4.7,17.7,4.7,17.7,4.6C17.7,4.6,17.6,4.7,17.7,4.6C17.6,4.6,17.7,4.6,17.7,4.6z M17.4,6C17.4,5.9,17.5,6,17.4,6
		c0.1,0,0.1-0.1,0.1-0.1c0,0,0.1,0.1,0.1,0.1c0,0,0,0.1,0,0.1c0,0,0.1,0,0.1,0c0,0-0.1,0-0.1,0.1c0,0-0.1,0-0.1,0c0,0-0.1,0-0.1,0
		c0,0,0,0,0,0c0,0-0.1,0-0.1-0.1C17.4,6.1,17.5,6,17.4,6C17.4,6,17.4,6,17.4,6C17.4,6,17.4,6,17.4,6z M17.4,7.5
		c0-0.1,0.1-0.1,0.1-0.1c0.1,0,0.2-0.1,0.3,0c0.1,0,0.1,0.1,0.1,0.2c0,0,0,0.1,0,0.1c0,0,0.1,0,0.1,0.1c0,0.1-0.1,0.1-0.1,0.1
		c0,0,0-0.1,0-0.1c0,0-0.1,0-0.1,0c-0.1,0-0.1-0.1-0.2-0.1C17.4,7.6,17.4,7.6,17.4,7.5z M17.6,9.3c0,0-0.1,0-0.1,0c0,0,0-0.1,0-0.1
		c-0.1,0-0.1-0.1-0.1-0.1c0,0,0-0.1,0.1-0.1c0,0,0,0,0.1,0c0,0,0-0.1,0-0.1c0.1,0.1,0.1,0.1,0.2,0.2C17.7,9.3,17.6,9.2,17.6,9.3
		C17.6,9.3,17.6,9.3,17.6,9.3z M17.5,7.9C17.5,7.9,17.4,7.9,17.5,7.9c-0.1,0-0.1,0-0.1,0c0,0,0,0.1-0.1,0.1c0,0,0,0,0,0
		c0,0-0.1-0.1-0.1-0.1c0,0,0,0,0,0c0,0,0,0,0,0c0,0,0-0.1,0.1-0.1c0,0,0.1,0.1,0.1,0.1c0,0,0,0,0,0c0,0,0,0,0,0
		C17.4,7.8,17.5,7.8,17.5,7.9z M17.2,8.5c0,0,0.1-0.1,0.1-0.1c0,0,0.1,0,0.1,0.1c0,0,0,0,0,0c-0.1,0-0.1-0.1-0.2-0.3
		c0-0.1,0.1-0.1,0.1-0.1c0,0,0-0.1,0-0.1c0,0,0,0,0,0c0,0,0.1,0.1,0.1,0.1c0,0,0.1,0.1,0.1,0.1c0,0,0,0.1,0,0.1c0,0.1,0,0.1-0.1,0.1
		c0,0,0,0,0,0c-0.1,0.1-0.1,0.1-0.2,0.2c0,0,0,0-0.1,0C17.3,8.7,17.2,8.6,17.2,8.5z M17.2,5.2c0,0.1,0.2,0.1,0.1,0.2
		c0,0-0.1,0.1-0.2,0.1C17,5.5,17,5.7,16.9,5.6c-0.1-0.1,0-0.1,0-0.3C17,5.2,17.1,5.2,17.2,5.2C17.2,5.1,17.2,5.2,17.2,5.2z
		 M16.8,6.3c0.1,0,0.1,0,0.1,0c0,0,0.1,0,0.1,0c0,0,0,0,0,0.1c0,0,0,0.1,0,0.1c0,0.1,0,0.2,0,0.2c0,0.1-0.1,0.1-0.2,0.1
		c0,0,0-0.1,0-0.1c0,0-0.1,0-0.1-0.1c0,0,0,0,0,0c0,0-0.1,0-0.1,0C16.6,6.3,16.7,6.4,16.8,6.3z M16.4,6c0,0,0-0.1,0.1-0.1
		c0.1-0.1,0.1-0.2,0.3-0.3c0.1,0,0.1,0,0.2,0.1c0,0.1,0,0.1,0,0.2c0,0.1-0.1,0.2-0.1,0.2c0,0-0.1,0-0.1,0.1c0,0,0,0-0.1,0
		c0,0,0,0,0,0C16.5,6.1,16.4,6.1,16.4,6z M16.6,3.8c0.1,0,0.1,0,0.1,0c0,0,0.1,0,0.2,0.1c0,0.1,0,0.2,0.1,0.4c0,0.1,0,0.1,0,0.2
		c0,0,0.1,0.1,0.1,0.1c0,0-0.1,0-0.1,0c-0.1,0-0.1-0.1-0.2-0.1c-0.1,0-0.3,0-0.4-0.1c-0.1,0-0.1-0.1-0.1-0.2
		C16.3,4.1,16.5,3.8,16.6,3.8z M16,6.7C16,6.7,16,6.7,16,6.7c0.1,0,0.1,0,0.1,0c0,0,0.1-0.1,0.1-0.1c0,0,0.1,0.1,0.1,0.1
		c0,0,0,0.1,0,0.1c0,0,0.1,0,0.1,0.1c0,0-0.1,0-0.1,0c0,0-0.1,0-0.1,0c0,0-0.1,0-0.1,0c0,0,0,0,0,0C16.1,6.9,16,6.8,16,6.7
		C16,6.8,16.1,6.8,16,6.7C16,6.7,16,6.8,16,6.7z M16,5.9c0.1,0,0,0.1,0.1,0.1c0,0,0,0.1,0,0.1c0,0,0.1,0,0.1,0.1c0,0,0,0.1-0.1,0.1
		c0,0,0,0-0.1,0c0,0,0,0,0,0c0,0,0,0,0,0c0,0,0,0,0,0c0,0,0-0.1,0-0.1c0,0,0-0.1,0-0.1c0,0,0.1,0,0.1,0C16.1,6,16,5.9,16,5.9z
		 M16,4.4C16.1,4.3,16.1,4.3,16,4.4c0.1-0.1,0.1,0,0.1,0c0,0,0,0,0,0c0,0,0,0.1,0,0.1c0,0,0,0.1-0.1,0.1c0,0,0,0,0,0
		c0,0,0,0.1-0.1,0.1c0,0-0.1-0.1,0-0.1C16,4.5,16.1,4.5,16,4.4C16.1,4.4,16,4.4,16,4.4z M15.8,3.8c0-0.1,0.1-0.2,0.3-0.1
		c0.1,0,0.2,0,0.2,0c0,0.1,0,0.1,0,0.2c0,0.1-0.1,0.1-0.1,0.2c0,0-0.1,0.1-0.1,0.1c0,0,0,0,0,0c-0.1,0-0.2-0.1-0.2-0.2
		C15.8,3.9,15.8,3.8,15.8,3.8z M15.7,5.2c0.1-0.1,0.2-0.1,0.4,0.1c0,0,0.1,0,0.1,0c0,0-0.1,0-0.1,0c0,0-0.1,0-0.2,0.1
		c-0.1,0.1-0.1,0.2-0.2,0.2c0,0,0.1,0,0.1,0c0.1,0,0.1,0.1,0.1,0.1c0,0,0,0,0.1,0.1c0,0,0.1,0,0.1,0c0,0-0.1,0-0.1,0
		c0,0,0,0.1,0,0.1c0,0-0.1,0-0.1,0c0,0,0,0,0,0c-0.1,0-0.2,0-0.2-0.1c0,0,0-0.1,0-0.1c0,0,0,0,0-0.1c0,0,0,0,0,0c0,0,0,0,0,0
		c0,0,0,0-0.1,0c0,0,0-0.1,0-0.1c-0.1-0.1-0.1-0.2-0.1-0.3C15.5,5.3,15.6,5.3,15.7,5.2C15.7,5.2,15.7,5.2,15.7,5.2z M15.2,6.4
		c-0.1,0-0.2,0-0.2-0.1c0-0.1,0.1-0.1,0.1-0.2c0,0,0-0.1,0-0.1c0,0,0,0,0,0C15.1,5.9,15,5.9,15,5.7c0,0,0.1,0,0.1,0
		c0.2,0,0.3-0.1,0.4,0c0.1,0.1,0,0.2,0.1,0.4c0,0,0,0,0.1,0c0.1,0,0.1,0,0.2,0.1c0,0,0.1,0.1,0,0.2c0,0.1-0.1,0.1-0.2,0.1
		c-0.1,0-0.1,0.1-0.2,0.1c0,0,0,0,0,0C15.3,6.5,15.3,6.5,15.2,6.4z M15.2,3.9c0,0,0.1,0,0.2,0c0.1,0,0.2,0,0.2,0
		c0.1,0.1,0,0.2,0,0.4c0,0,0,0,0,0c0,0-0.1,0-0.1,0c0,0,0-0.1-0.1-0.1c-0.1-0.1-0.1-0.2-0.1-0.2C15.2,4.1,15.2,4,15.2,3.9z M15,4.6
		c0,0,0.1,0,0.1,0c0,0,0.1,0,0.1,0.1C15.2,4.7,15.1,4.7,15,4.6c0,0.1,0.1,0.2,0,0.2c0,0-0.1,0.1-0.2,0.1c0,0,0-0.1,0-0.1
		c-0.1,0-0.1-0.1-0.1-0.2c0,0,0,0,0-0.1c0,0,0.1-0.1,0.1-0.1C15,4.5,15,4.6,15,4.6z M13.8,18.8C13.8,18.8,13.8,18.9,13.8,18.8
		c-0.1,0.1-0.2,0-0.3-0.1c0-0.2,0.1-0.3,0.2-0.4c0,0,0,0,0,0c0,0,0.1-0.1,0.1,0c0.1,0.1,0.2,0.2,0.2,0.3
		C14.1,18.8,13.9,18.8,13.8,18.8z M14,20.8C14,20.8,14,20.7,14,20.8c0.1,0,0.1,0,0.1,0C14.1,20.9,14,20.8,14,20.8c0,0.1,0,0.2,0,0.2
		c-0.1,0-0.1,0-0.2-0.1C13.8,20.8,13.9,20.8,14,20.8C13.9,20.8,13.9,20.8,14,20.8z M12.5,16c0,0,0-0.1,0-0.1c0,0-0.1-0.2,0-0.2
		c0.1,0,0.2,0,0.3,0c0.1,0.1,0.1,0.2,0.1,0.3c0,0.2,0,0.4,0,0.5c0,0.1-0.1,0.1-0.2,0.2c0,0-0.1,0-0.1,0c0,0-0.1,0.1-0.1,0.1
		c-0.1,0-0.1-0.1-0.2-0.2c0-0.1,0-0.2,0-0.2C12.4,16.2,12.5,16.2,12.5,16C12.5,16.1,12.6,16,12.5,16C12.6,16,12.5,16,12.5,16z
		 M13,11.9C13,11.9,13,11.8,13,11.9c0.2-0.1,0.2,0,0.2,0c0.1,0.1,0,0.2,0,0.3c0,0,0-0.1-0.1-0.1c0,0-0.1,0.1-0.1,0.1
		c-0.1,0-0.1-0.1-0.1-0.1C13,12,13,12,13,11.9C13.1,11.9,13,11.9,13,11.9z M13.6,9.1C13.6,9,13.6,9,13.6,9.1c0-0.2,0-0.2,0.1-0.3
		c0.1,0,0.1,0,0.3,0c0,0,0,0,0,0c0,0,0,0,0,0c0,0.3,0.1,0.3,0.1,0.6c0,0-0.1,0-0.1,0c0,0-0.1,0-0.1,0c-0.1,0-0.2,0-0.2,0
		C13.5,9.3,13.5,9.2,13.6,9.1C13.6,9.1,13.6,9.1,13.6,9.1z M13.6,7.5C13.6,7.4,13.7,7.4,13.6,7.5c0.1,0,0.1,0,0.2,0
		c0,0,0.1,0.1,0.1,0.1c0,0,0,0.1-0.1,0.1c0,0,0,0,0,0c0,0-0.1,0.1-0.1,0.1c0,0,0,0,0,0C13.6,7.6,13.6,7.6,13.6,7.5
		C13.6,7.5,13.6,7.5,13.6,7.5z M14.3,9c0,0,0.1-0.1,0.2-0.1c0,0,0.1,0,0.1,0c0,0,0,0,0.1,0c0,0,0,0,0,0.1c0,0.2-0.1,0.3-0.2,0.3
		c0,0,0,0,0,0c-0.1,0-0.1,0.1-0.2,0c0,0,0-0.1,0-0.1c0,0,0,0,0-0.1C14.3,9.1,14.2,9,14.3,9z M14.4,7.7c0,0-0.1,0-0.1,0
		c0,0,0,0.1,0,0.1c-0.1,0-0.2-0.1-0.2-0.1c0-0.1,0-0.2-0.1-0.2c0,0-0.1-0.1-0.1-0.1c0,0,0-0.1,0-0.1c0,0,0.1,0,0.1,0.1
		c0,0,0.1,0,0.1,0c0.1,0,0.1,0,0.2,0.1c0.1,0.1,0.1,0.2,0.2,0.3C14.5,7.6,14.4,7.6,14.4,7.7z M13.9,9.7c0,0,0.1,0,0.1,0
		C14,9.8,14,9.8,13.9,9.7c-0.1,0.2-0.2,0.2-0.3,0.2c0,0,0,0.1-0.1,0.1c0,0,0,0,0,0c0,0,0-0.1-0.1-0.1c0-0.1,0-0.1,0-0.1
		c0-0.1,0.1-0.2,0.1-0.2C13.7,9.5,13.8,9.6,13.9,9.7z M14,10.4c0,0.1-0.1,0-0.2,0c0,0,0,0,0,0c0,0,0,0-0.1,0c0,0,0,0,0,0
		c0,0-0.1,0-0.1,0c0,0,0.1-0.1,0.1-0.1c0,0,0,0,0.1,0.1c0,0,0.1,0,0.1,0C13.9,10.4,14,10.4,14,10.4z M13.5,11.3c0,0,0.1,0,0.1,0.1
		c0,0,0.1-0.1,0.1-0.1c0,0,0,0,0,0c0.2,0,0.2,0,0.4,0c0,0-0.1,0,0-0.1c0,0,0.1,0,0.1,0c0,0,0-0.1,0-0.1c0,0,0.1,0,0.1,0
		c0,0,0.1,0,0.1,0c0,0,0,0,0,0.1c0,0,0.1,0,0.1,0c0,0-0.1,0-0.1,0c0,0,0,0,0,0.1c0,0-0.1,0-0.1,0c0,0-0.1,0-0.1,0c0,0,0,0,0,0
		c0,0,0,0,0,0c-0.1,0.1-0.1,0.2-0.1,0.2c0,0,0,0,0,0c-0.1,0-0.1-0.1-0.2-0.2c0,0,0,0-0.1,0c0,0,0,0-0.1,0c0,0,0.1,0.1,0,0.1
		c0,0.1-0.1,0.1-0.1,0.1c-0.1,0-0.2,0-0.2,0c0,0-0.1,0-0.1,0c0,0,0,0,0,0c0,0-0.1,0-0.1-0.1c0,0,0.1,0,0.1,0c0,0,0-0.1,0-0.1
		C13.4,11.3,13.4,11.3,13.5,11.3z M14.7,12.7C14.7,12.7,14.7,12.7,14.7,12.7C14.7,12.7,14.7,12.6,14.7,12.7c0.2,0,0.2,0.1,0.2,0.2
		c0,0.1-0.1,0.1-0.2,0.2c0,0,0,0.1,0,0.1c0,0,0-0.1-0.1-0.1c0-0.1,0-0.2,0-0.3C14.6,12.7,14.6,12.7,14.7,12.7z M14,16.2
		C14,16.2,14,16.1,14,16.2c-0.2-0.1-0.3-0.3-0.3-0.4c0-0.1,0.1-0.1,0.2-0.1c0,0,0,0,0.1,0c0.1,0,0.2,0,0.2,0.1c0,0,0,0,0.1,0.1
		c0,0,0,0,0,0.1C14.2,16.1,14.1,16,14,16.2z M14,17.3C14.1,17.3,14.1,17.3,14,17.3c0.1,0,0.2,0,0.2,0.1c0,0-0.1,0-0.1,0
		c0,0,0,0.1,0,0.1c0,0,0,0-0.1,0c0,0,0,0,0-0.1c-0.1,0-0.2,0.1-0.2,0C13.8,17.4,13.9,17.4,14,17.3C14,17.3,14,17.3,14,17.3z M13,15
		C13,15,13.1,15,13,15C13,15,13,15,13,15c0-0.2,0.1-0.4,0.3-0.5c0.1,0,0.2,0,0.3,0.1c0.1,0.1,0,0.2-0.1,0.3c-0.1,0-0.1,0.1-0.2,0.2
		c0,0,0,0,0,0c0.1,0,0.2,0.1,0.3,0.1c0.1,0,0.1,0.1,0.2,0.1c0.1,0,0.1,0,0.1,0.2c0,0.1,0.1,0.1,0,0.1c0,0,0,0-0.1,0
		c-0.2-0.1-0.3-0.1-0.4,0c0,0-0.1,0-0.1,0c0,0,0,0.1,0,0.1c-0.1,0-0.1-0.1-0.2-0.1c-0.1-0.1-0.1-0.3-0.1-0.4c0-0.1,0.1-0.1,0.1-0.2
		C13.2,15.1,13.1,15.1,13,15z M13,13.4c0-0.1,0-0.1,0.1-0.2c0.1-0.1,0.2,0,0.3,0.1c0,0,0.1,0,0.1,0c0,0-0.1,0-0.1,0c0,0-0.1,0-0.1,0
		c0,0,0,0.2-0.1,0.2c0,0-0.1,0-0.1,0c-0.1,0-0.1-0.1-0.1-0.1C13,13.5,13,13.4,13,13.4z M14.1,14c0,0.1-0.1,0.3-0.2,0.3c0,0,0,0,0,0
		c-0.2,0-0.2-0.1-0.2-0.3c0,0-0.1-0.1,0-0.1c0.3-0.1,0.3-0.1,0.7-0.1C14.3,13.8,14.2,13.9,14.1,14C14.1,14,14.1,14,14.1,14z
		 M13.9,13.3C13.9,13.2,13.9,13.3,13.9,13.3c0.1,0,0.1-0.1,0.1,0c0,0,0,0,0,0c0,0,0,0.1,0,0.1c0,0,0.1,0.1,0,0.1c0,0,0,0,0,0
		c0,0,0,0-0.1,0c0,0,0,0,0-0.1c0,0,0,0,0,0c0,0-0.1,0-0.1-0.1C13.8,13.3,13.9,13.3,13.9,13.3C13.9,13.3,13.9,13.3,13.9,13.3z
		 M14.1,12.5c-0.1-0.1-0.1-0.2-0.1-0.2c0,0-0.1,0-0.1,0c0,0,0,0,0-0.1c0,0,0,0,0.1,0c0-0.1,0-0.1,0.1-0.2c-0.1,0-0.2-0.1-0.4-0.1
		c-0.1,0,0.1,0,0.1,0c0.1-0.1,0.2-0.2,0.2-0.2c0.1,0,0.2,0.1,0.2,0.2c0,0,0.1,0.1,0.1,0.1c0,0-0.1,0-0.1,0c0,0,0.1,0,0.1,0
		c0.2,0.1,0.2,0.3,0.2,0.5c0,0,0,0.1-0.1,0.1c0,0,0,0,0,0C14.2,12.5,14.2,12.5,14.1,12.5z M13.5,12.3c0,0.1-0.1,0-0.2,0
		c0,0,0,0.1,0,0.1c0,0-0.1,0-0.1,0c0,0,0-0.1,0-0.1c0,0-0.1-0.1-0.1-0.1c0,0,0-0.1,0.1-0.1c0,0,0,0,0.1,0c0,0,0.1-0.1,0.1-0.1
		C13.5,12.2,13.5,12.2,13.5,12.3z M13.4,8c0,0.1-0.1,0-0.2,0c0,0,0,0,0-0.1c0,0-0.1-0.1-0.1-0.1c0,0,0.1-0.1,0.1-0.1
		c0,0,0.1,0,0.1,0c0,0,0.1,0.1,0.1,0.1C13.4,7.9,13.4,7.9,13.4,8z M13,8.8c0-0.1,0-0.1,0-0.1C13.1,8.7,13.1,8.8,13,8.8
		C13.1,8.8,13.1,8.9,13,8.8c0.1,0.1,0.2,0.1,0.2,0.1c0,0-0.1,0.1-0.1,0.1c0,0,0,0,0,0c0,0-0.1,0-0.1-0.1C12.9,8.9,13,8.9,13,8.8
		C13,8.8,13,8.8,13,8.8z M13,12.9C13,12.9,13,12.9,13,12.9c0-0.1,0.1-0.1,0.1-0.1c0,0,0,0,0.1,0c0,0,0.1,0,0.1,0c0,0,0.1,0,0.1,0
		c0.1-0.1,0.2-0.1,0.4-0.1c0,0,0.1-0.1,0.1-0.1c0,0,0,0.1,0,0.1c0,0.2-0.1,0.3-0.2,0.4c0,0-0.1,0.1-0.1,0.1c0,0,0,0-0.1,0
		c0,0,0,0-0.1,0c0,0,0-0.1-0.1-0.1c-0.1,0-0.2-0.1-0.2-0.1c0,0,0-0.1,0-0.1c0,0-0.1,0-0.1,0c0,0,0,0,0,0.1c0,0,0,0.1,0,0.1
		c0,0,0,0,0,0c0,0-0.1,0-0.1,0c0,0,0,0,0,0c0,0,0,0-0.1,0c0,0-0.1,0-0.1,0c0,0,0,0,0,0C12.9,13,13,13,13,12.9z M12.4,18
		c0.1-0.1,0.1-0.1,0.2-0.1c0.1,0,0.1,0,0.2,0.1c0,0,0,0,0,0c0,0,0,0-0.1,0c-0.1,0.1-0.1,0.2-0.1,0.2c0,0,0,0,0,0
		C12.6,18.1,12.6,18.1,12.4,18C12.5,18,12.4,18,12.4,18C12.4,18,12.4,18,12.4,18z M12.8,17.5C12.8,17.5,12.8,17.5,12.8,17.5
		C12.8,17.4,12.8,17.4,12.8,17.5c0.1-0.2,0.1-0.2,0.2-0.4c0,0,0.1,0,0.1,0c0.2,0.1,0.2,0.3,0.2,0.5c0,0,0.1,0.1,0.1,0.1c0,0,0,0,0,0
		c-0.1,0-0.1,0-0.2,0C13,17.7,13,17.6,12.8,17.5C12.9,17.5,12.8,17.5,12.8,17.5z M13.1,18C13.1,18,13.1,18,13.1,18
		c0.1,0,0.1,0,0.1,0c0,0,0.1-0.1,0.1-0.1c0.1,0,0.1,0.1,0.2,0.1c0,0,0,0.1,0,0.1c0,0,0.1,0,0.1,0c0,0.1,0,0.1-0.1,0.2
		c0,0-0.1,0-0.1,0c0,0,0,0-0.1,0c0,0,0,0-0.1,0c0,0-0.1,0-0.1,0C13.2,18.2,13.2,18.1,13.1,18C13.2,18.1,13.1,18.1,13.1,18
		C13.1,18.1,13.1,18.1,13.1,18z M14.1,19.1c0,0,0.1-0.1,0.1-0.1c0,0,0.1,0.1,0.1,0.1c0,0,0,0,0,0.1c0,0.1,0,0.1-0.1,0.2c0,0,0,0,0,0
		c0,0-0.1-0.1-0.1-0.1c0,0,0,0,0,0c0,0,0,0,0,0C14,19.1,14.1,19.1,14.1,19.1z M14.3,17.6c-0.1,0,0-0.1,0-0.2c0,0,0-0.1,0-0.1
		c0,0,0.1,0,0.2,0c0,0,0,0,0.1,0.1c0,0,0.1,0.1,0.1,0.1C14.6,17.7,14.4,17.7,14.3,17.6z M14.2,16.4c-0.1,0.1-0.2,0-0.2-0.1
		c0-0.1,0-0.1,0.1-0.2c0.1,0,0.1-0.1,0.2,0C14.3,16.2,14.3,16.3,14.2,16.4z M14.2,15c0-0.1,0-0.2,0-0.2c0,0,0.1-0.1,0.1-0.1
		c0,0,0-0.1,0-0.1c0,0,0,0,0-0.1c0,0,0,0.1,0.1,0.1c0,0,0,0,0.1,0c0,0,0.1,0,0.1,0c0.2,0.1,0.2,0.2,0.2,0.3c0,0.1-0.1,0.1-0.2,0.1
		c0,0-0.1,0-0.1,0c0,0,0,0,0,0C14.3,15,14.2,15,14.2,15z M14.7,14.1C14.7,14.1,14.6,14.1,14.7,14.1c-0.1,0-0.1,0.1-0.2,0.1
		c-0.1,0-0.1-0.1-0.1-0.2c0,0,0-0.1,0.1-0.1c0.1,0,0.2-0.1,0.3-0.1c0,0,0.1,0,0.1,0c0,0,0,0-0.1,0.1C14.8,14,14.7,14.1,14.7,14.1z
		 M14.8,13.6c0,0-0.1,0-0.1,0c0,0,0,0.1,0,0.1c0,0,0,0,0-0.1c0,0,0-0.1,0-0.1c0,0,0-0.1,0.1-0.1c0,0,0.1,0,0.1,0.1
		C14.8,13.4,14.8,13.5,14.8,13.6c0.1-0.1,0.1-0.1,0.1-0.1C14.9,13.6,14.8,13.5,14.8,13.6z M14.8,10.4c0,0-0.1,0-0.1,0
		c0,0,0-0.1,0-0.2c0,0,0-0.1,0.1-0.1c0,0,0,0,0.1,0c0.1,0,0.1,0,0.1,0.1c0,0,0.1,0.1,0.1,0.2c0,0,0,0,0,0
		C14.9,10.3,14.9,10.3,14.8,10.4C14.8,10.3,14.8,10.4,14.8,10.4z M14.7,9.9c0,0.1-0.2,0.1-0.2,0c0-0.1,0-0.1,0.1-0.1
		C14.6,9.8,14.7,9.8,14.7,9.9z M14.6,7.3c0,0,0,0.1-0.1,0.1C14.5,7.4,14.5,7.4,14.6,7.3c-0.1,0.1-0.1,0-0.2-0.1c0,0-0.1,0-0.1,0
		c0,0,0,0,0,0c0,0,0.1,0,0.1,0c0,0,0.1,0,0.1,0C14.6,7.2,14.6,7.2,14.6,7.3c0.1,0,0.1-0.1,0.2-0.1C14.8,7.3,14.7,7.3,14.6,7.3
		C14.6,7.3,14.6,7.3,14.6,7.3z M14.7,5C14.7,5,14.7,5,14.7,5c-0.1,0-0.1,0-0.2,0c0,0,0,0,0,0c0,0,0,0,0,0c0-0.1,0-0.2,0-0.2
		c0,0,0.1,0,0.2,0c0,0,0,0.1,0,0.1C14.8,4.9,14.8,4.9,14.7,5C14.8,5,14.7,5,14.7,5z M14.4,4.1C14.4,4.1,14.5,4.1,14.4,4.1
		C14.5,4.1,14.5,4,14.5,4c0.1,0,0.1,0.1,0.1,0.1c0,0,0,0.1,0,0.1c0,0,0.1,0,0.1,0c0,0-0.1,0.1-0.1,0.1c0,0-0.1,0-0.1,0
		c0,0-0.1,0.1-0.1,0.1c0,0,0,0,0,0c0,0-0.1,0-0.1,0C14.4,4.2,14.4,4.2,14.4,4.1C14.4,4.2,14.4,4.2,14.4,4.1
		C14.3,4.2,14.4,4.2,14.4,4.1z M14.2,4.8C14.2,4.8,14.2,4.8,14.2,4.8c0.1,0,0.1-0.1,0.1,0c0,0,0,0.1,0,0.1c0,0,0.1,0.1,0.1,0.2
		c0,0,0.1,0.1,0.1,0.1c0,0-0.1,0.1-0.1,0.1c0,0-0.1,0-0.1,0c0,0,0,0-0.1,0c-0.1,0-0.1-0.1-0.1-0.2C14.1,5,14.1,4.9,14.2,4.8z
		 M14,5.8c0.1,0,0.1,0,0.1,0.1c0,0,0,0.1,0.1,0.1c0,0,0.2,0,0.1,0c0,0-0.1,0-0.1,0c0,0-0.1,0-0.1,0c-0.1,0-0.1,0.1-0.2,0.1
		c0,0,0,0,0,0c-0.1,0-0.2-0.1-0.2-0.2c0-0.1,0-0.1,0-0.1C13.9,5.8,13.9,5.8,14,5.8z M13.7,4.6c0.1,0.1,0.2,0.1,0.2,0.3
		c0,0-0.1,0-0.1,0.1c0,0,0,0,0,0c0,0,0,0.1,0,0.1c0,0,0,0,0,0c-0.1,0-0.1-0.1-0.1-0.1C13.6,4.8,13.6,4.8,13.7,4.6
		C13.7,4.6,13.7,4.6,13.7,4.6z M13.4,5.5C13.5,5.5,13.5,5.5,13.4,5.5c0.1,0,0.2,0,0.2,0c0,0,0,0,0,0c0,0,0,0,0-0.1c0,0,0.1,0,0.1,0
		c0-0.1,0-0.1,0-0.1c0.1,0,0,0,0,0.1c0,0,0.1,0,0.1,0c0,0,0,0.1,0,0.1c0,0,0,0.1-0.1,0.1c0,0-0.1-0.1-0.1-0.1c0,0,0,0.1,0,0.1
		c0,0-0.1,0-0.1,0c0,0-0.1,0.1-0.1,0.1c0,0,0-0.1-0.1-0.1c0,0-0.1,0-0.1,0c0,0-0.1-0.1-0.1-0.1C13.3,5.6,13.4,5.5,13.4,5.5z
		 M12.7,6.2C12.7,6.2,12.7,6.2,12.7,6.2c0.1,0,0.1-0.1,0.1-0.2c0,0,0.1,0,0.1,0c0.1,0,0.1,0,0.2,0C13.2,6,13.3,6,13.3,6
		c0.1,0,0.1,0.1,0.2,0.2c0,0,0,0,0,0c0,0,0,0,0,0.1c0,0,0,0-0.1,0.1c-0.1,0.1-0.2,0.2-0.3,0.2c-0.1,0-0.1-0.1-0.2-0.1
		c-0.1,0-0.1,0-0.1-0.1C12.7,6.3,12.7,6.3,12.7,6.2C12.7,6.3,12.6,6.3,12.7,6.2C12.6,6.2,12.7,6.2,12.7,6.2z M12.6,9.8
		c0-0.1,0.1-0.1,0.2-0.1c0.1,0,0.1,0,0.2,0c0,0,0,0,0,0.1c0,0,0,0.1-0.1,0.1c0,0-0.1,0.1-0.1,0.1c0,0,0,0,0,0
		C12.8,10,12.7,10,12.6,9.8C12.7,9.9,12.6,9.9,12.6,9.8C12.6,9.9,12.6,9.9,12.6,9.8z M11.9,6.7C11.9,6.6,12,6.7,11.9,6.7
		c0.2,0,0.2,0,0.3,0c0,0,0.1,0,0.1,0.1c0,0.1,0,0.2-0.1,0.2c0,0-0.1,0-0.1,0c0,0,0,0.1,0,0.1c-0.1,0-0.2-0.2-0.3-0.3
		C11.9,6.7,11.9,6.7,11.9,6.7z M11.2,7.2c0.2-0.1,0.2-0.1,0.5-0.2c0,0,0,0,0,0.1c0,0.1,0.1,0.3,0.1,0.3c0,0.1-0.1,0.1-0.2,0.1
		c0,0,0,0-0.1,0c0,0-0.1,0.1-0.2,0C11.2,7.5,11.1,7.4,11.2,7.2C11.1,7.2,11.1,7.2,11.2,7.2z M10.7,8.2C10.7,8.2,10.8,8.2,10.7,8.2
		c0.1,0,0.1-0.2,0.2-0.2c0.1,0,0.1,0,0.2,0.1c0,0,0,0.1,0,0.1c0,0.1,0,0.1,0,0.2c0,0,0,0-0.1,0c0,0,0,0-0.1,0
		C10.8,8.3,10.8,8.3,10.7,8.2C10.7,8.2,10.7,8.2,10.7,8.2z M10.2,8.8c0.1-0.1,0.3,0,0.4,0c0,0,0-0.1,0-0.1c0.1-0.2,0.2-0.3,0.4-0.2
		c0,0,0,0,0,0c0,0,0.1,0,0.1,0.1c0,0.1-0.1,0.2-0.2,0.3c-0.1,0-0.2,0-0.3-0.1c0,0,0,0-0.1,0c0,0,0,0.1,0,0.1c0,0,0.1,0.1,0.1,0.1
		c0,0.1-0.1,0.1-0.3,0.2c0,0,0,0.1,0,0.1c0,0,0,0,0-0.1c-0.1-0.1-0.3-0.2-0.2-0.3C10.1,8.9,10.1,8.8,10.2,8.8z M10.8,10
		C10.8,10.1,10.8,10,10.8,10c-0.1,0-0.1,0.1-0.1,0.1c-0.1,0-0.1-0.1-0.1-0.2c0,0,0.1,0,0.1,0c0,0,0.1-0.1,0.1-0.1
		C10.8,9.9,10.9,9.9,10.8,10C10.9,10,10.8,10,10.8,10z M9.6,9.7C9.7,9.7,9.6,9.7,9.6,9.7c0.1,0,0.1,0,0.1,0c0.1,0.2,0.1,0.4-0.1,0.6
		c0,0,0,0.1-0.1,0c-0.1,0-0.1,0-0.1-0.1c0,0,0-0.1,0-0.1C9.5,10,9.5,9.8,9.6,9.7z M10,22.3C10,22.3,10,22.3,10,22.3
		c0,0.2,0,0.1-0.2,0.2c0,0,0,0,0-0.1c0,0-0.1,0-0.1,0c0,0,0-0.1,0-0.1c0,0,0,0,0.1-0.1c0,0,0.1-0.1,0.1-0.1
		C9.9,22.1,10,22.2,10,22.3C10,22.2,10,22.3,10,22.3z M9.9,22.5C9.9,22.5,9.9,22.5,9.9,22.5C10,22.4,10,22.5,9.9,22.5
		c0.1,0,0.1-0.1,0.1-0.1c0,0,0,0,0,0.1c0,0,0,0-0.1,0c0,0,0,0.1,0,0.1C10,22.7,9.9,22.6,9.9,22.5C9.9,22.6,9.9,22.5,9.9,22.5
		C9.9,22.5,9.9,22.5,9.9,22.5z M8.5,21.8c0,0-0.1,0-0.1,0c0,0,0,0,0,0c0,0-0.1,0-0.1,0c0,0,0,0,0,0c0,0,0,0,0,0c0,0,0,0,0-0.1
		c0,0,0,0,0,0c0,0,0.1,0,0.1,0c0,0,0.1,0,0.1,0c0,0,0,0,0,0c0,0,0.1,0,0.1,0C8.6,21.8,8.6,21.7,8.5,21.8C8.5,21.8,8.5,21.8,8.5,21.8
		z M8.4,22.5c-0.1,0-0.1,0.1-0.2,0.1c0,0,0,0-0.1,0c0,0-0.1,0.1-0.1,0c0,0-0.1-0.1-0.1-0.2c0-0.1,0.1-0.3,0.3-0.3
		c0.1,0,0.1,0,0.2,0.1c0.1,0.1,0.1,0.1,0.1,0.2C8.5,22.4,8.5,22.4,8.4,22.5c0-0.1,0-0.1,0-0.1C8.4,22.4,8.5,22.5,8.4,22.5z M7.8,20
		c0,0,0.1,0,0.1,0c0,0,0,0.1,0.1,0.1c0,0,0.1,0,0.1,0c0,0,0.1,0,0.1,0.1c0,0-0.1,0-0.1,0c0,0,0,0,0,0c0,0,0,0-0.1,0c0,0,0,0,0,0
		c0,0,0-0.1,0-0.1C7.8,20.1,7.8,20.1,7.8,20C7.8,20.1,7.8,20.1,7.8,20C7.9,20.1,7.8,20,7.8,20z M9.4,18.6c0,0,0,0.1,0.1,0.1
		c0,0,0.1,0,0.1,0c0,0,0,0,0,0.1c0,0,0,0,0,0c0,0,0.1,0,0.1,0.1c0,0,0,0.1-0.1,0.1c0,0-0.1,0-0.1,0c-0.1,0.1-0.3,0.2-0.4,0.3
		c0,0,0,0,0,0c-0.1,0-0.2,0-0.2-0.1c0,0,0-0.1,0-0.1c0,0,0-0.1,0.1-0.2c0.1,0,0.2-0.1,0.3-0.2C9.2,18.5,9.3,18.6,9.4,18.6z
		 M9.2,12.4c0,0,0.1,0,0.1,0c0,0,0,0.1,0.1,0.1c0,0,0.1,0,0.1,0c0,0,0.1,0,0.1,0.1c0,0-0.1,0-0.1,0c0,0,0,0,0,0c0,0,0,0-0.1,0
		c0,0,0,0,0,0C9.3,12.5,9.3,12.5,9.2,12.4C9.2,12.4,9.2,12.4,9.2,12.4z M9.1,21C9,21,9,20.9,9.1,21C9,20.9,9,20.9,9,20.9
		c0,0-0.1,0-0.1-0.1c0,0,0-0.1,0-0.1c0,0,0.1,0,0.1,0c0,0,0,0,0,0c0,0,0,0,0.1,0.1c0,0,0.1,0,0.1,0c0,0,0,0.1,0,0.1c0,0-0.1,0-0.1,0
		C9,20.9,9.1,21,9.1,21z M9.2,17.3C9.2,17.3,9.1,17.3,9.2,17.3c-0.1,0.1,0,0.2,0,0.2c-0.1,0,0-0.1-0.1-0.1c0,0,0-0.1,0-0.1
		c0,0-0.1-0.1-0.1-0.1c0,0,0.1-0.1,0.2-0.1C9.2,17.1,9.2,17.2,9.2,17.3C9.2,17.2,9.2,17.2,9.2,17.3z M9.1,17.9c0,0,0,0.1,0,0.1
		c0,0,0.1,0,0.1,0c0,0,0,0.1,0,0.1c-0.2,0.1-0.2,0-0.3,0c0,0,0,0,0-0.1c0-0.1,0.1-0.2,0.1-0.2C8.9,17.9,9,17.9,9.1,17.9z M8.8,17.7
		c0,0,0,0.1,0,0.2c0,0-0.1,0-0.1,0c0,0-0.1-0.1-0.1-0.1c0,0,0,0,0-0.1c0-0.1,0.1-0.1,0.1-0.1c0,0-0.1-0.1,0-0.1
		C8.8,17.5,8.8,17.6,8.8,17.7C8.9,17.7,8.9,17.7,8.8,17.7z M8.3,18.2c0.1,0,0.1,0,0.1,0.1c0,0.1,0.2,0.1,0.2,0.2c0,0,0,0.1,0,0.1
		c0,0,0,0,0,0c0,0,0.1,0,0.1,0.1c0,0,0,0,0,0c0,0.1-0.1,0.1-0.1,0.1c0,0,0,0,0,0c-0.1,0-0.2,0-0.2-0.1c0-0.1-0.1-0.2-0.1-0.4
		C8.2,18.3,8.3,18.2,8.3,18.2z M8.2,17.4c0-0.1,0.1-0.1,0.1-0.2c0.1-0.1,0.2,0,0.3,0.1c0,0,0.1,0,0.1,0.1c0,0-0.1,0-0.1,0
		c0,0-0.1,0-0.1,0c-0.1,0-0.1,0-0.2,0c0,0,0,0,0,0C8.4,17.5,8.3,17.5,8.2,17.4z M8.9,16.1C8.9,16.1,8.9,16.1,8.9,16.1
		C8.8,16,8.7,16,8.7,15.9c0-0.1,0.1-0.1,0.2-0.2c0,0,0,0,0,0c0,0,0-0.1,0.1,0C9,15.7,9,15.8,9,15.9C9,15.9,9,16,8.9,16.1
		C8.9,16.1,8.9,16.1,8.9,16.1z M8.8,15.7c0,0,0,0.1-0.1,0.1c0,0,0,0.1-0.1,0.1c0,0.1-0.1,0.1-0.2,0.1c0,0-0.1,0-0.1-0.1
		c0,0-0.1,0.1-0.1,0c0,0,0-0.1,0-0.1c0-0.2,0.2-0.3,0.3-0.4c0,0,0,0,0,0c0,0,0.1,0,0.1,0C8.7,15.5,8.8,15.6,8.8,15.7z M7.8,21.2
		C7.9,21.2,7.9,21.2,7.8,21.2C7.9,21.2,7.9,21.1,7.8,21.2c0.1-0.1,0.1-0.1,0.1-0.1c0.2,0,0.3,0.1,0.3,0.3c0,0.1,0,0.2-0.1,0.2
		c0,0-0.1,0-0.1,0c-0.1,0-0.2-0.2-0.3-0.2C7.8,21.4,7.8,21.3,7.8,21.2C7.8,21.3,7.8,21.3,7.8,21.2C7.8,21.2,7.8,21.2,7.8,21.2
		C7.8,21.2,7.8,21.2,7.8,21.2z M8.5,20.5C8.5,20.5,8.5,20.5,8.5,20.5C8.5,20.5,8.5,20.6,8.5,20.5c-0.3-0.1-0.2-0.3-0.2-0.4
		c0-0.1,0.1-0.1,0.2-0.1c0,0,0-0.1,0-0.1c0,0,0.1,0,0.1,0.1c0,0,0,0,0,0c0-0.1-0.1-0.1-0.1-0.1c0-0.1,0.1-0.1,0.2-0.2c0,0,0,0,0,0
		c0,0,0-0.1,0.1-0.1c0.1,0,0.1,0.1,0.1,0.2c0,0-0.1,0.1-0.1,0.2c0,0-0.1,0-0.1,0c0,0,0,0,0,0c0,0,0,0,0,0.1
		C8.7,20.3,8.7,20.4,8.5,20.5z M8.7,21.2c0.1-0.1,0.2-0.1,0.3,0c0.1,0,0.1,0.1,0,0.1c-0.1,0.1-0.2,0.2-0.3,0.1
		C8.6,21.4,8.7,21.2,8.7,21.2z M9,21.7C9,21.7,9,21.7,9,21.7c0.2-0.1,0.3-0.1,0.5-0.1c0.1,0.1,0.2,0.1,0.2,0.3c0,0,0,0,0,0.1
		c0,0,0,0-0.1,0c-0.2,0.1-0.3,0.2-0.4,0.2c0,0-0.1,0-0.1,0C9,22,9,21.9,9,21.7C9,21.7,9,21.7,9,21.7z M9.8,18.5
		C9.8,18.5,9.7,18.5,9.8,18.5c-0.1,0-0.1,0-0.1,0c0,0,0,0,0,0c0,0-0.1,0-0.1,0c0,0,0-0.1,0-0.1c0,0-0.1,0-0.1,0c0,0,0,0,0,0
		c0,0,0,0,0,0c0,0,0-0.1,0-0.1c0,0,0.1,0,0.1,0.1c0,0,0,0.1,0,0.1c0,0,0.2,0,0.2,0C9.9,18.5,9.8,18.5,9.8,18.5z M9.9,13.2
		C9.9,13.2,9.9,13.2,9.9,13.2C9.8,13.2,9.8,13.2,9.9,13.2C9.8,13.2,9.8,13.2,9.9,13.2C9.8,13.3,9.8,13.2,9.9,13.2
		C9.8,13.2,9.8,13.3,9.9,13.2c-0.1,0.1-0.2,0-0.2,0c0,0,0,0,0-0.1c0,0,0-0.1,0-0.1c0,0,0.1,0,0.1,0C9.8,13.1,9.9,13.1,9.9,13.2
		C9.9,13.2,9.9,13.2,9.9,13.2z M9.7,12.4C9.7,12.4,9.7,12.4,9.7,12.4c0,0.1,0,0.2-0.1,0.2c0,0,0,0,0,0c0,0-0.1,0-0.1,0
		c0,0,0-0.1,0.1-0.1C9.6,12.4,9.6,12.4,9.7,12.4c-0.1-0.1-0.1-0.2,0-0.2C9.7,12.2,9.7,12.3,9.7,12.4C9.7,12.3,9.7,12.4,9.7,12.4z
		 M9.2,11.7c0,0,0.1-0.1,0.1-0.1c0-0.1,0-0.2,0.1-0.2c0,0,0.2,0,0.3,0c0.1,0,0.1,0.2,0.1,0.2c0,0.3-0.2,0.5-0.5,0.5c0,0,0,0,0,0
		c0,0,0-0.1,0-0.1C9.1,11.9,9.1,11.8,9.2,11.7z M9.1,16.1C9.2,16.2,9.2,16.1,9.1,16.1c0.1,0.1,0.1,0.1,0,0.1c0,0-0.1,0-0.1,0
		c0,0-0.1,0-0.1,0c0,0,0,0.1,0,0.1c0,0-0.1-0.1-0.1-0.1c0,0,0,0,0,0c0,0,0,0,0,0c0,0,0,0,0,0c0,0,0,0,0,0c0,0,0.1,0,0.1,0
		C9.1,16.1,9.1,16.1,9.1,16.1C9.1,16.1,9.1,16.1,9.1,16.1z M9.1,15.2C9,15.3,9,15.3,9.1,15.2c-0.2,0-0.2,0-0.2,0c0,0,0.1,0,0.1-0.1
		C9,15.1,9,15.2,9.1,15.2C9,15.2,9,15.1,9.1,15.2C9.1,15.1,9.1,15.2,9.1,15.2z M8.8,12.1C8.8,12.1,8.8,12.1,8.8,12.1
		C8.9,12.1,8.9,12,8.8,12.1c0.2,0,0.2,0,0.2,0.1c0,0.1-0.1,0.1-0.1,0.2c0,0,0,0.1,0,0.1c0,0-0.1,0-0.1-0.1
		C8.7,12.3,8.7,12.3,8.8,12.1z M8.5,13.3c0-0.1,0.1-0.1,0.2-0.1c0.1,0,0.1,0,0,0.1c-0.1,0.1,0,0.2-0.2,0.2
		C8.5,13.5,8.5,13.4,8.5,13.3z M8.5,14.7c0.1-0.1,0.1-0.1,0.2-0.1c0,0,0-0.1,0-0.1c0,0,0,0,0,0c0,0,0,0,0,0.1c0,0,0.2,0,0.2,0.1
		c0,0,0,0.1,0,0.2c0,0.1-0.2,0.1-0.2,0.1c-0.1,0-0.2,0-0.2-0.1c0,0,0,0,0,0c0,0,0-0.1,0-0.1C8.5,14.8,8.4,14.8,8.5,14.7z M8.5,15
		C8.4,15,8.4,15,8.5,15C8.4,15,8.4,15.1,8.5,15c-0.1,0.1-0.2,0.1-0.2,0.1c0,0,0,0.1,0,0.1c0,0-0.1-0.1,0-0.1c0,0,0-0.1,0.1-0.1
		C8.3,14.9,8.3,14.9,8.5,15C8.4,14.9,8.4,14.9,8.5,15C8.4,14.9,8.4,15,8.5,15z M8.4,14.4C8.4,14.4,8.4,14.4,8.4,14.4
		c-0.1,0,0,0.1,0,0.1c0,0,0,0-0.1,0c0,0,0-0.1,0-0.1c0,0-0.1,0.1-0.1,0c0,0-0.1-0.1-0.1-0.1c0,0,0.1,0,0.1-0.1c0,0,0,0,0,0
		c0,0,0,0,0,0c0,0,0,0,0.1,0C8.4,14.2,8.3,14.3,8.4,14.4C8.4,14.3,8.4,14.3,8.4,14.4z M8.1,13c0.1,0,0.1,0,0.1,0.1
		c0,0,0.1,0.1,0.1,0.2c0,0.1-0.1,0.2-0.1,0.2c0,0-0.1,0-0.2,0c0,0,0,0.1,0,0.1c-0.1,0-0.3-0.2-0.2-0.3C7.8,13.1,8,13,8.1,13z
		 M8.1,14.2C8,14.2,8,14.1,8.1,14.2C8,14.1,8,14.1,8.1,14.2c-0.1-0.1-0.2-0.1-0.2-0.1c0,0,0-0.1,0.1-0.1c0,0,0.1,0,0.1,0
		c0,0,0-0.1,0-0.1C8.1,13.9,8.1,14,8.1,14.2C8.1,14.1,8.1,14.1,8.1,14.2C8,14.1,8.1,14.2,8.1,14.2z M7.6,14.5c0-0.1,0.1-0.1,0.1-0.1
		c0,0,0-0.1,0-0.1c0,0,0,0,0,0c0,0,0,0,0,0c0.1,0,0.3,0,0.3,0.1c0,0,0,0.1,0,0.2c0,0.1-0.1,0.1-0.2,0.1c0,0,0,0,0,0
		C7.8,14.8,7.7,14.7,7.6,14.5C7.6,14.6,7.6,14.6,7.6,14.5z M7.9,17.4c0,0-0.1,0-0.1,0c0,0,0,0,0,0c0,0-0.1,0-0.1,0c0,0,0,0,0,0
		c0,0,0,0,0-0.1c0,0,0,0,0,0c0,0,0,0,0,0c0,0,0-0.1,0.1-0.1c0,0,0,0.1,0.1,0.1c0,0,0.1,0,0.1,0c0,0,0,0,0.1,0.1
		C7.9,17.3,7.9,17.2,7.9,17.4C7.8,17.3,7.9,17.3,7.9,17.4z M7.6,15.2c0-0.1,0.1,0,0.1,0.1c0.2,0.1,0.2,0.2,0,0.4
		c0,0.1-0.1,0.2-0.1,0.2C7.5,15.5,7.6,15.5,7.6,15.2z M7.5,17.6C7.6,17.6,7.5,17.6,7.5,17.6c0,0.1,0.1,0,0.1,0c0,0,0,0,0,0.1
		c0,0.1,0,0-0.1,0.1c0,0-0.1,0-0.1,0c0,0,0,0,0-0.1C7.4,17.6,7.5,17.6,7.5,17.6z M6.7,19.6C6.7,19.6,6.7,19.6,6.7,19.6
		c-0.1,0-0.1,0-0.1-0.1c0.1-0.2,0.2-0.4,0.5-0.4c0.1,0,0.3,0,0.4,0c0.1,0,0.3,0,0.4,0.2c0,0,0,0.1,0,0.1c0,0-0.1,0-0.1,0
		c-0.3,0.1-0.5,0.1-0.7,0.1C7,19.5,6.9,19.6,6.7,19.6z M7.1,20c-0.1,0,0-0.1,0-0.1c0,0,0,0,0-0.1c0,0,0.1,0,0.1,0
		C7.1,19.8,7.1,19.9,7.1,20c0.1-0.1,0.2-0.1,0.2-0.1C7.2,20,7.1,20,7.1,20z M7.7,21.8c0,0.1-0.1,0.1-0.1,0.1c0,0,0,0.1,0,0.1
		c-0.1,0-0.1-0.1-0.2-0.1c0,0,0,0,0,0c0,0,0-0.1,0-0.1c0,0,0,0.1,0,0.1c0,0,0,0,0,0c0,0,0,0,0,0c0-0.1,0.1-0.2,0.3-0.2
		C7.7,21.7,7.7,21.7,7.7,21.8C7.7,21.7,7.7,21.8,7.7,21.8z M7.9,21.8C7.9,21.8,7.9,21.8,7.9,21.8C8,21.8,8,21.7,8,21.7
		c0,0,0.1,0.1,0.1,0.1c0,0,0,0.1,0.1,0.1c0,0,0.2,0,0.2,0.1c0,0.1-0.1,0-0.1,0.1c0,0-0.1,0-0.1,0c0,0-0.1,0-0.1,0c0,0,0,0,0,0
		c-0.1,0-0.1,0-0.1-0.1C7.8,21.9,7.9,21.9,7.9,21.8C7.8,21.8,7.8,21.9,7.9,21.8C7.8,21.8,7.8,21.8,7.9,21.8z M8.5,22.7
		c0,0.2-0.1,0.3-0.3,0.3c0,0,0,0.1,0,0.1c-0.1,0-0.2-0.1-0.4-0.3c0,0-0.1,0,0,0c0.4-0.1,0.4-0.1,0.7-0.2c0.1-0.1,0.2-0.1,0.2-0.1
		c0,0,0.1,0.1,0.1,0.1C8.9,22.6,9,22.7,9,22.8c0,0.1,0,0.1-0.1,0.1c-0.1,0-0.1,0-0.2,0c-0.1,0-0.1-0.1-0.1-0.2
		C8.6,22.7,8.5,22.7,8.5,22.7z M8.9,24C8.9,24,8.9,24.1,8.9,24c-0.2,0-0.2-0.2-0.1-0.3c0,0,0,0,0.1,0c0,0,0-0.1,0.1,0
		c0.1,0,0.3,0.2,0.2,0.4C9.1,24,9,24,8.9,24C9,24,8.9,24,8.9,24z M9.4,24.6C9.3,24.6,9.3,24.6,9.4,24.6c-0.1,0-0.1,0.1-0.2,0.1
		c0,0,0,0,0,0c0,0,0-0.1-0.1-0.1c0,0-0.1,0-0.1,0c0,0-0.1,0-0.1-0.1c0,0,0.1,0,0.1,0c0,0,0,0,0,0c0,0,0,0,0.1-0.1c0,0,0.1,0,0.1,0
		C9.3,24.4,9.3,24.5,9.4,24.6c0,0,0.1-0.1,0.1-0.1C9.5,24.6,9.4,24.5,9.4,24.6z M9.7,24.4c0,0-0.1,0.1-0.1,0.1c0,0,0,0.1,0,0.1
		c0,0-0.1,0-0.1-0.1c0,0,0,0,0-0.1c0-0.1,0-0.1,0-0.2c0,0,0-0.1,0.1-0.1C9.7,24.2,9.7,24.3,9.7,24.4C9.8,24.4,9.8,24.4,9.7,24.4z
		 M9.8,23.8C9.8,23.7,9.8,23.7,9.8,23.8c-0.1-0.2-0.1-0.3,0-0.4c0,0,0-0.1,0-0.1c0,0,0,0-0.1,0c0,0,0,0,0,0c0,0-0.1,0-0.1-0.1
		c0,0,0,0,0-0.1c0,0,0.1,0,0.1-0.1c0,0,0-0.1,0-0.1c0,0,0,0,0.1,0c0,0,0,0.1,0,0.1c0,0,0.1,0,0.1,0c0,0,0.1,0.1,0,0.2
		c0,0,0,0-0.1,0.1c0,0,0,0,0,0c0.2,0.1,0.2,0.1,0.3,0.2c0,0.1,0.1,0.1,0.1,0.2C10.2,23.8,10,23.8,9.8,23.8
		C9.9,23.8,9.9,23.8,9.8,23.8z M10.4,23.1C10.5,23.1,10.5,23.1,10.4,23.1c0.1,0,0.1,0.1,0.1,0.1c0,0-0.1,0.1-0.1,0.1c0,0,0,0,0,0
		c0,0-0.1,0-0.1-0.1C10.3,23.2,10.4,23.2,10.4,23.1c0,0-0.1,0-0.1,0c0-0.1,0-0.1,0.1-0.1C10.5,22.9,10.4,23,10.4,23.1z M10.5,24.5
		c0,0.1,0,0.2-0.1,0.3c-0.1,0.1-0.1,0.2-0.2,0.2c0,0,0,0,0,0c0,0-0.1-0.1-0.1-0.1c0,0-0.1-0.1-0.1-0.1c0-0.2,0.1-0.3,0.1-0.5
		c0-0.1,0-0.1,0.1-0.2c0,0,0,0,0.1,0.1C10.4,24.2,10.5,24.4,10.5,24.5z M12.1,26.9C12.1,26.9,12.1,27,12.1,26.9c0.1,0.1,0.1,0,0.2,0
		c0,0,0.1,0,0.1,0.1c0,0.1-0.1,0-0.1,0c0,0,0,0.1,0,0.1c0,0-0.1,0-0.1,0c0,0,0-0.1,0-0.1c0,0,0,0-0.1-0.1c0,0,0,0,0,0
		c0,0-0.1,0-0.1,0C11.9,27,12,27.1,12.1,26.9C12,27,12,27,12.1,26.9C12,27,12,27,12.1,26.9z M11.5,24.9c0,0,0.1-0.1,0.1-0.1
		c0,0,0-0.1,0-0.1c0,0,0.1-0.1,0.1,0c0.2,0.1,0.1,0.1,0.3,0.3c0,0,0,0,0,0.1c0,0,0,0,0,0c0,0-0.1,0.1-0.2,0.1c0,0,0,0,0,0
		c-0.1,0-0.1,0-0.1-0.1C11.6,25,11.5,24.9,11.5,24.9z M11.2,25.2c0-0.1,0.1-0.1,0.2-0.1c0,0,0.1-0.1,0.1-0.1c0,0,0.1,0.1,0.1,0.2
		c0,0-0.1,0.1-0.1,0.1c0,0,0,0.1,0,0.1c0,0,0,0.1-0.1,0.1c0,0,0-0.1,0-0.1c0,0,0,0,0-0.1C11.2,25.3,11.2,25.3,11.2,25.2z M11.2,25.8
		c0.1-0.1,0.3-0.1,0.4,0c0.1,0,0.1,0.1,0.1,0.2c0,0.1-0.1,0.2-0.1,0.2c0,0,0,0,0,0C11.3,26.1,11.2,25.9,11.2,25.8
		C11.2,25.8,11.1,25.8,11.2,25.8C11.1,25.8,11.2,25.8,11.2,25.8z M10.7,25.1c0.1-0.1,0.1,0,0.1,0c0,0,0.1,0,0.2,0c0,0,0,0.1,0,0.1
		c0,0,0,0,0,0.1c0,0,0,0.1,0,0.1c0,0-0.1,0-0.1,0c0,0-0.1,0-0.1,0c0,0,0,0,0,0C10.7,25.3,10.7,25.2,10.7,25.1
		C10.6,25.1,10.7,25.1,10.7,25.1z M10.6,25.4c0.1,0.1,0,0.2,0,0.3c0,0,0.1,0.1,0,0.1c0,0,0,0,0,0c-0.1,0-0.1,0-0.2,0
		c-0.1,0-0.2,0.1-0.3,0.1c0,0,0,0,0,0c-0.1,0-0.2-0.1-0.2-0.2c-0.1-0.1,0-0.2,0.1-0.3C10.2,25.3,10.5,25.3,10.6,25.4z M10.4,22.1
		C10.4,22.1,10.4,22.1,10.4,22.1c0.1,0,0.1,0.1,0.2,0.1c0,0,0,0,0,0c0,0,0,0.1,0,0.1c0,0,0,0-0.1,0c0,0-0.1,0-0.1,0c0,0,0,0.1,0,0.1
		c-0.1,0-0.2-0.1-0.2-0.2C10.2,22.2,10.3,22.1,10.4,22.1z M11.3,11.1c0,0.1-0.1,0-0.1,0.1c0,0,0,0.1,0,0.1c-0.1,0-0.2-0.1-0.2-0.1
		c0,0,0,0,0,0c0,0-0.1,0,0-0.1c0.1-0.1,0.2-0.2,0.3-0.2c0,0,0.1,0.1,0.1,0.1C11.3,10.9,11.3,11,11.3,11.1z M11.4,10.4
		c0,0.1-0.1,0.2-0.2,0.2c-0.1,0-0.2,0.1-0.2,0.1c-0.1,0-0.1-0.1-0.2,0c-0.1,0-0.1,0-0.2,0c-0.1,0-0.2,0-0.3,0c0,0,0,0,0,0.1
		c0,0.2-0.2,0.2-0.3,0.2c0,0,0,0.1-0.1,0.1c0,0,0,0-0.1,0c-0.1,0-0.1,0-0.1-0.1c-0.1-0.2,0-0.2,0.1-0.5c0,0,0,0,0,0
		c0.1,0,0.3-0.1,0.3,0c0,0,0,0,0,0c0,0,0,0,0,0c0-0.1,0.1-0.2,0.3-0.2c0.2,0,0.3,0,0.5,0c0,0,0.1,0,0.1,0
		C11.3,10.3,11.3,10.3,11.4,10.4C11.3,10.4,11.4,10.3,11.4,10.4C11.4,10.3,11.4,10.3,11.4,10.4z M11.6,9.2
		C11.6,9.2,11.6,9.2,11.6,9.2c-0.1,0-0.1,0.1-0.1,0.1c0,0,0,0,0,0c0,0,0-0.1-0.1-0.1c0,0-0.1,0-0.1,0c0,0-0.1,0-0.1-0.1
		c0,0,0.1,0,0.1,0c0,0,0,0,0,0c0,0,0,0,0.1,0c0,0,0.1,0,0.1,0C11.6,9.1,11.6,9.1,11.6,9.2C11.7,9.2,11.7,9.1,11.6,9.2
		C11.8,9.2,11.7,9.2,11.6,9.2z M11.8,8C11.8,8,11.8,8.1,11.8,8C11.8,8,11.8,8,11.8,8c0-0.3-0.1-0.3-0.1-0.5c0,0,0.1,0,0.1,0
		c0.2,0,0.3,0,0.4-0.2c0-0.1,0.1-0.2,0.2-0.2c0.1,0,0.2,0.1,0.2,0.2c0,0.2,0,0.3-0.1,0.4C12.3,7.9,12.1,8,11.9,8
		C11.8,8,11.8,8.1,11.8,8z M12,8.9c0,0,0.1,0,0.2,0c0.1,0,0.1,0.1,0.1,0.2c0,0,0.1,0,0.1,0c0,0,0,0,0,0.1c0,0-0.1,0-0.1,0
		c-0.1,0.1-0.1,0.1-0.2,0.1c0,0,0,0,0,0c-0.1,0-0.1,0-0.1-0.1c0,0,0-0.1,0-0.1C12,9,12,8.9,12,8.9z M12.2,9.9
		C12.2,10,12.2,9.9,12.2,9.9C12.1,9.8,12,9.8,12,9.8c0-0.1,0-0.1,0.1-0.2c0,0,0.1,0,0.2,0c0.1,0,0.2,0,0.3,0.1c0,0,0,0.1,0,0.1
		C12.4,9.9,12.3,9.8,12.2,9.9z M12.8,19.2C12.8,19.2,12.8,19.3,12.8,19.2c-0.1,0.1-0.2,0-0.2,0c-0.1-0.1-0.1-0.1-0.1-0.2
		c0,0,0-0.1,0-0.1c0,0,0,0,0,0c0,0,0,0,0,0c0,0-0.1,0.1-0.1,0.1c0,0,0,0,0,0c-0.2,0-0.3-0.2-0.3-0.2c0-0.1,0.1-0.2,0.2-0.2
		c0.1,0,0.1,0,0.1,0.1c0.1,0.1,0.2,0.1,0.2,0.2c0,0,0.1-0.1,0.2-0.1c0,0,0.1,0,0.1,0c0-0.1,0-0.2,0-0.3c0,0,0,0,0,0
		c0,0-0.1-0.1,0-0.1c0,0,0,0,0,0c0,0,0.1,0,0.2-0.1c0,0,0.1,0,0.1,0c0.1,0.1,0.1,0.1,0.1,0.2c0,0.1-0.1,0.2-0.2,0.2c0,0,0,0,0,0
		c0,0,0,0-0.1,0c0,0,0,0,0.1,0c0.1,0,0.1,0.1,0.1,0.2c0,0,0,0,0,0C13,19.1,13,19.2,12.8,19.2z M13.1,20.5
		C13.1,20.5,13.2,20.5,13.1,20.5c0.1-0.1,0-0.1,0-0.1c0-0.1,0-0.1,0.1-0.2c0.1-0.1,0.3-0.2,0.5-0.4c0,0,0.1-0.1,0.2-0.1c0,0,0,0,0,0
		c0,0,0,0,0,0.1c-0.1,0.4-0.1,0.4-0.3,0.7C13.4,20.8,13.4,20.6,13.1,20.5z M14.1,21.4c0,0-0.1,0-0.1,0c0,0,0,0.1,0,0.1
		c-0.1,0-0.2-0.1-0.2-0.2c0,0,0,0,0,0c0,0,0,0,0-0.1c0,0-0.1,0-0.1-0.1c0,0,0-0.1,0-0.1c0,0-0.1,0-0.1,0c0,0,0-0.1,0-0.1
		c0,0,0.1,0,0.2-0.1c0,0,0.1-0.1,0.1-0.1c0.1,0.2,0,0.2,0,0.4c0.1-0.1,0.2-0.1,0.2-0.1c0,0,0,0.1,0,0.1c0.1,0,0.1,0,0.1,0.1
		C14.1,21.3,14.1,21.4,14.1,21.4z M14.3,20.5C14.3,20.5,14.2,20.5,14.3,20.5c-0.1,0,0,0.1-0.1,0.1c0,0,0-0.1-0.1-0.1c0,0,0,0,0-0.1
		c0,0-0.1,0-0.1-0.1c0,0,0-0.1,0.1-0.2c0,0,0.1,0,0.1,0c0,0,0-0.1,0-0.1c0,0,0,0,0,0.1c0,0,0.1,0,0.1,0c0,0,0,0.1,0,0.1
		C14.3,20.5,14.3,20.5,14.3,20.5z M14.5,20c-0.1,0.1-0.1,0-0.2,0c-0.1,0-0.2,0-0.2,0c-0.2-0.1-0.2-0.4-0.2-0.6c0,0,0,0,0,0
		c0.1,0,0.1-0.2,0.1-0.1C14.4,19.6,14.3,19.7,14.5,20C14.6,20,14.5,20,14.5,20z M14.5,18.9C14.5,18.9,14.5,18.8,14.5,18.9
		c0-0.1-0.1-0.1-0.1-0.1c0,0,0-0.1,0.1-0.1c0,0,0,0,0.1,0c0,0,0.1,0,0.1,0c0,0,0.1,0,0.1,0.1C14.7,18.8,14.6,18.8,14.5,18.9z
		 M14.9,16.1c0,0.2-0.1,0.3-0.2,0.3c0,0-0.1,0-0.1,0c0,0,0,0.1-0.1,0.1c0,0-0.1-0.1-0.1-0.1c0-0.1,0-0.2,0.1-0.3
		C14.6,16,14.8,15.9,14.9,16.1C14.9,16,14.9,16,14.9,16.1C15,16,14.9,16,14.9,16.1z M15,15.6C15,15.6,14.9,15.6,15,15.6
		c-0.1,0-0.1,0.1-0.1,0.1c0,0,0,0,0,0c0,0,0-0.1-0.1-0.1c0,0,0,0-0.1,0c0,0,0,0,0.1,0.1c0,0,0,0.1-0.1,0.1c0,0-0.1,0-0.1,0
		c0,0-0.1,0.1-0.1,0.1c0,0,0,0,0,0c0,0-0.1,0-0.1,0c0,0,0-0.1,0-0.1c0-0.1,0-0.1,0-0.2c0,0,0.1,0,0.1,0c0,0,0,0,0,0
		c0.1,0,0.1,0.1,0.1,0.1c0,0,0,0,0-0.1c0,0,0.1,0,0.1,0c0,0,0,0,0,0c0,0,0.1,0,0.1,0c0,0,0.1,0,0.1,0C15,15.5,14.9,15.6,15,15.6
		C15,15.6,15,15.5,15,15.6C15.1,15.6,15,15.6,15,15.6z M15,9.7c-0.1,0.1-0.2,0-0.2-0.1c0-0.1,0-0.1,0.1-0.1c0.1,0,0.2,0,0.2,0
		C15.1,9.6,15,9.6,15,9.7z M15.3,9.1C15.2,9.1,15.2,9.1,15.3,9.1c-0.1,0.1-0.1,0.2-0.1,0.2c0,0-0.1,0-0.1,0c-0.1,0-0.1,0-0.2-0.1
		C14.8,9.1,14.7,9,14.7,9c0-0.1,0-0.2,0.1-0.2c0,0,0.1,0,0.2,0C15,8.8,15.1,8.9,15.1,9C15.2,9,15.2,9,15.3,9.1
		C15.3,9.1,15.3,9,15.3,9.1C15.3,9.1,15.3,9.1,15.3,9.1z M15.4,6.8c0,0,0,0.1,0,0.1C15.3,6.9,15.3,6.8,15.4,6.8
		C15.3,6.8,15.3,6.8,15.4,6.8c-0.1,0-0.1,0-0.1-0.1c0,0,0-0.1,0-0.1c0,0,0.1,0,0.1,0c0,0,0,0,0-0.1c0,0,0.1,0,0.1,0c0,0,0,0.1,0,0.1
		C15.5,6.7,15.5,6.7,15.4,6.8C15.5,6.8,15.4,6.8,15.4,6.8C15.4,6.8,15.4,6.8,15.4,6.8z M15.9,8.6c0,0.1-0.1,0.1-0.2,0.1
		c0,0,0,0.1,0,0.1c0,0-0.1-0.1-0.1-0.1c0,0,0,0,0,0c-0.1-0.1-0.2-0.2-0.2-0.3c0,0,0,0,0,0c0,0,0,0,0.1,0c0.2,0,0.3,0.1,0.3,0.2
		C15.9,8.5,15.9,8.6,15.9,8.6C15.9,8.6,16,8.6,15.9,8.6C16,8.6,16,8.6,15.9,8.6z M16,8.1c-0.1,0.1-0.2,0.2-0.3,0.2
		c-0.1,0-0.1-0.1-0.2-0.1c0,0,0,0,0,0c0,0,0,0,0,0c0-0.2,0.1-0.2,0.2-0.3c0,0,0-0.1,0-0.1c0,0,0,0,0,0c0.1,0,0.1,0.1,0.2,0.2
		C16,7.9,16,8,16,8.1z M16.7,8.4C16.6,8.4,16.7,8.4,16.7,8.4C16.6,8.3,16.6,8.4,16.7,8.4c-0.1-0.1-0.2-0.2-0.1-0.2
		c0-0.1,0.1-0.1,0.1-0.1c0,0,0-0.1,0-0.1c0,0,0.1-0.1,0.1,0C16.8,8,16.8,8,16.9,8.2C16.9,8.3,16.8,8.3,16.7,8.4z M16.9,7.6
		C16.9,7.6,16.9,7.6,16.9,7.6c-0.1,0-0.1,0-0.1-0.1c0-0.1-0.1-0.1-0.2-0.2c0,0.1,0,0.2,0,0.3c0,0,0,0,0,0c-0.5,0.1-0.5,0-1,0
		c-0.1,0,0.1,0,0.1-0.1c0-0.1,0-0.2,0-0.3c0,0,0.1,0,0.1,0c0.1-0.1,0.3,0,0.4,0c0.1,0,0.1,0,0.2,0c0.1,0,0.1,0.1,0.2,0.1
		c0,0,0-0.1,0-0.1c0,0,0,0,0,0c0-0.1,0-0.1,0-0.2c0,0,0.1,0,0.1,0c0,0,0,0.1,0,0.1c0,0,0.1,0,0.1,0.1c0,0,0.1,0.1,0.1,0.1
		c0,0,0.1,0,0.1,0.1c0,0.1,0,0.1,0,0.2c0,0,0,0.1,0,0.1C17,7.7,17,7.6,16.9,7.6z M17.4,19.6c0,0.1-0.1,0.1-0.3,0.1
		c0,0-0.1,0.1-0.1,0.1c0,0,0-0.1,0-0.1c0-0.1,0-0.3,0.2-0.3c0.1,0,0.2,0,0.3,0.1C17.5,19.5,17.4,19.6,17.4,19.6z M17.3,16.1
		C17.3,16.1,17.3,16.1,17.3,16.1C17.3,16,17.2,16.1,17.3,16.1C17.2,16,17.2,16,17.2,16c0,0,0.1-0.1,0.1-0.1c0,0,0-0.1,0.1-0.1
		c0,0,0.1,0,0.1,0.1c0,0,0,0.1,0,0.1c0,0,0.1,0,0.1,0C17.4,16.1,17.4,16,17.3,16.1z M17.6,12.9C17.6,12.9,17.6,12.8,17.6,12.9
		c-0.1,0-0.1,0-0.2,0c0,0,0,0,0-0.1c0,0,0,0,0,0c0-0.1-0.1,0-0.1-0.1c0,0,0.1-0.1,0.1-0.1c0,0,0,0,0.1,0c0,0,0.1,0,0.1,0
		c0,0,0.1,0.1,0.1,0.1c0,0,0.1,0,0.1,0c0,0,0,0,0,0.1c0,0,0,0,0,0C17.7,12.8,17.7,12.8,17.6,12.9C17.6,12.8,17.6,12.9,17.6,12.9z
		 M18,17.8c-0.1,0.1-0.1,0.1-0.3,0c-0.1,0,0-0.1,0-0.1c0.1-0.1,0.1-0.1,0.3-0.1C18.1,17.7,18.1,17.7,18,17.8z M17.9,17.4
		c-0.1-0.1-0.1-0.1-0.1-0.2c0-0.1,0.1-0.2,0.1-0.1c0.1,0.1,0.1,0.1,0.1,0.3C18.1,17.5,18,17.5,17.9,17.4z M19,16.9c0,0-0.1,0-0.1,0
		c0,0-0.1,0.1-0.1,0.1c0,0-0.1,0-0.1-0.1c-0.1,0-0.2-0.1-0.3-0.1c-0.2,0-0.3,0-0.5-0.1c-0.1,0-0.1-0.1-0.2-0.1c0,0,0,0,0-0.1
		c0-0.1,0-0.1,0-0.2c0,0,0,0,0,0c0,0,0-0.1,0.1-0.1c0.1,0,0.1,0,0.2,0c0.3,0,0.6,0,0.8,0c0.1,0,0.2,0.1,0.3,0.2
		C19.1,16.8,19.1,16.9,19,16.9z M19.2,15.9C19.1,15.9,19.1,15.9,19.2,15.9C19,15.9,19,16.1,19,16.1c0,0,0,0,0,0c0,0-0.1-0.1-0.1-0.1
		c0,0-0.1,0-0.1,0c0,0-0.1,0-0.1-0.1c0,0,0.1,0,0.1,0c0,0,0,0,0,0c0,0,0.1-0.1,0.1-0.1c0,0,0.1,0,0.1,0
		C19.1,15.8,19.1,15.8,19.2,15.9C19.2,15.9,19.2,15.8,19.2,15.9C19.3,15.9,19.2,15.9,19.2,15.9z M19.3,14.5
		C19.3,14.6,19.3,14.5,19.3,14.5C19.3,14.6,19.3,14.6,19.3,14.5c-0.2,0.1-0.3,0-0.4-0.1c0-0.1,0-0.2,0-0.3c0,0-0.1-0.1,0-0.1
		c0,0,0.1,0,0.1,0c0.1,0,0.2,0.1,0.3,0.1C19.4,14.3,19.4,14.4,19.3,14.5z M19.3,9.1C19.3,9.1,19.3,9.1,19.3,9.1
		c0.1-0.1,0.2-0.2,0.3-0.2c0,0,0.1,0.1,0.1,0.1c0,0,0,0.1,0,0.1c0,0,0.1,0,0.1,0c0,0,0,0.1-0.1,0.1c0,0-0.1,0-0.1,0
		c0,0-0.1,0.1-0.1,0.1c0,0,0,0,0,0c-0.1,0-0.1,0-0.2,0C19.3,9.3,19.3,9.2,19.3,9.1z M20,10.9C20,10.9,20,10.9,20,10.9
		c-0.1-0.1-0.2-0.1-0.2-0.1c0-0.1,0.1-0.1,0.1-0.1c0,0,0,0,0,0.1c0,0,0.1,0,0.1,0c0,0,0,0,0,0.1C20.2,10.9,20.1,10.9,20,10.9z
		 M20.4,10.3c0,0.1,0,0.1,0,0.2c0,0-0.1,0-0.1,0c0,0-0.1,0.1-0.1,0.1c-0.1-0.1-0.2-0.1-0.3-0.1c-0.1,0-0.1,0-0.2-0.1
		c-0.1-0.1-0.2-0.1-0.2-0.2c0-0.1,0-0.2,0-0.2c0,0,0.1,0,0.1,0c0,0,0.1,0,0.1,0c0.1,0.1,0.2,0.2,0.5,0.2
		C20.3,10.1,20.4,10.1,20.4,10.3C20.4,10.3,20.4,10.3,20.4,10.3z M20.3,8.6C20.3,8.6,20.3,8.6,20.3,8.6c0-0.1,0-0.1,0-0.1
		c0.1,0,0.3-0.1,0.4,0.1c0,0.1,0,0.1,0,0.2c0,0.1,0,0.1-0.1,0.2c0,0-0.1,0-0.1,0C20.4,8.9,20.4,8.7,20.3,8.6z M20.5,10.2
		c0,0,0-0.1,0-0.2c0,0,0,0,0.1,0c0,0,0.1-0.1,0.1-0.1c0.2,0,0.1,0.2,0.1,0.3c0,0,0,0,0,0.1c0,0,0,0.1,0,0.1
		C20.6,10.3,20.6,10.2,20.5,10.2z M20.7,10.6C20.7,10.6,20.8,10.6,20.7,10.6c0-0.1-0.1,0-0.1-0.1c0,0,0.1,0,0.1,0c0,0,0,0,0,0
		c0,0,0-0.1,0.1-0.1c0,0,0.1,0,0.1,0.1c0,0,0,0.1,0,0.1c0,0,0.1,0,0.1,0c0,0,0,0-0.1,0c0,0,0,0.1,0,0.1
		C20.9,10.7,20.9,10.7,20.7,10.6C20.8,10.7,20.8,10.7,20.7,10.6C20.8,10.7,20.8,10.6,20.7,10.6z M21.1,11.3c0,0,0,0.1-0.1,0.1
		c0,0,0,0,0,0c0,0-0.1,0.1-0.1,0c0,0,0,0,0,0c0,0,0,0,0,0c0.1-0.1,0-0.2,0.1-0.3c0,0,0.1,0,0.1,0.1C21,11.1,21,11.2,21.1,11.3
		C21,11.2,21.1,11.2,21.1,11.3z M21.2,10.3c0,0-0.1-0.1-0.1-0.1c0,0,0,0-0.1,0C21,10.1,21,10,21,10c0-0.1,0-0.2,0.1-0.2
		c0.2-0.1,0.4,0,0.5,0.1c0,0,0,0,0.1,0c0,0,0,0-0.1,0c-0.1,0.1,0,0.1,0,0.2c0,0.1,0,0.1,0.1,0.2c0,0,0,0,0,0c0,0,0,0.1,0,0.1
		c-0.1,0.1-0.2,0.2-0.3,0.2c0,0,0-0.1,0-0.1C21.3,10.5,21.2,10.4,21.2,10.3z M21,20.4C21,20.3,21,20.4,21,20.4
		C21,20.3,21,20.3,21,20.4c0.2,0,0.4,0.2,0.4,0.3c0,0.1-0.1,0.1-0.1,0.1c0,0,0,0.1,0,0.1c0,0,0,0-0.1,0c0,0,0-0.1-0.1-0.1
		c0,0,0,0,0-0.1C21,20.6,20.9,20.5,21,20.4z M21,21.3C21,21.3,20.9,21.4,21,21.3C21,21.4,21,21.4,21,21.3c0.1,0.1,0.1,0.1,0.1,0.2
		c0,0-0.1,0-0.1,0.1c0,0,0,0.1,0,0.1c0,0-0.1,0.1-0.1,0.1c-0.1,0-0.1-0.1-0.2-0.2C20.7,21.4,20.9,21.4,21,21.3z M20.8,22.1
		c0,0,0-0.1,0.1-0.1c0,0,0.1,0.1,0.1,0.1c0,0,0,0,0,0c0,0,0.1,0,0.1,0c0,0,0,0-0.1,0.1c0,0,0,0,0,0c0,0,0,0-0.1,0c0,0,0,0,0,0
		c0,0,0,0-0.1,0C20.7,22.2,20.7,22.2,20.8,22.1c-0.1,0-0.2,0.1-0.2,0.1C20.5,22.1,20.6,22.2,20.8,22.1
		C20.7,22.1,20.7,22.1,20.8,22.1z M20.5,22.4C20.4,22.4,20.4,22.4,20.5,22.4c0-0.1,0.1-0.1,0.1,0c0,0,0,0.1,0,0.1c0,0,0.1,0,0.1,0
		c0,0,0,0-0.1,0.1c0,0-0.1,0.1-0.1,0C20.4,22.5,20.5,22.5,20.5,22.4z M20.3,21.3C20.3,21.3,20.4,21.3,20.3,21.3c0.1,0,0-0.1,0.1-0.1
		c0,0,0.1,0,0.1,0.1c0,0,0,0,0,0.1c0,0,0.1,0,0.1,0c0,0-0.1,0-0.1,0.1c0,0,0,0-0.1,0c0,0,0,0-0.1,0c0,0,0,0,0,0
		C20.4,21.4,20.3,21.4,20.3,21.3C20.3,21.4,20.4,21.4,20.3,21.3C20.3,21.3,20.3,21.4,20.3,21.3C20.3,21.3,20.3,21.3,20.3,21.3z
		 M20.1,22.6c0.1,0,0.3,0.1,0.3,0.2c0,0,0.1,0.1,0.1,0.1c0,0.1-0.2,0.1-0.2,0.2c0,0-0.1,0-0.1,0c0,0,0,0.1,0,0.1c0,0,0,0,0,0
		c0,0,0,0,0,0c-0.1,0-0.2,0-0.2-0.1c-0.1-0.1-0.1-0.1-0.1-0.2C19.9,22.6,20,22.5,20.1,22.6C20.1,22.5,20.1,22.6,20.1,22.6z
		 M20.3,24.2c0,0.1,0,0.1,0,0.2c0,0,0,0.2,0,0.2c0,0,0,0-0.1,0c0,0-0.1-0.1-0.1-0.1c0,0-0.1,0-0.1-0.1c0,0,0,0,0-0.1
		c0-0.1,0-0.2,0-0.2c0-0.1,0.1-0.1,0.1-0.1c0.1,0,0.1,0,0.2,0.1c0,0,0,0,0.1,0C20.4,24.1,20.3,24.1,20.3,24.2
		C20.3,24.2,20.3,24.2,20.3,24.2z M20,25.4c0-0.1,0.1-0.1,0.2-0.1c0,0,0.1,0,0.2,0c0,0,0,0.1,0,0.1c0,0,0,0,0,0c0,0,0.1,0,0.1,0.1
		c0,0,0,0.1-0.1,0.1c-0.1,0.1-0.1,0.2-0.2,0.2c0,0-0.1,0-0.1,0c0,0-0.1,0-0.1,0c-0.1,0-0.1-0.1-0.1-0.2C19.9,25.7,19.9,25.5,20,25.4
		z M19.8,22.2C19.8,22.2,19.9,22.2,19.8,22.2c0.1,0,0-0.1,0.1-0.1c0,0,0,0.1,0.1,0.1c0,0,0,0.1,0,0.1c0,0,0.1,0,0.1,0.1
		c0,0,0,0.1,0,0.1c0,0-0.1,0-0.1,0c0,0,0,0,0,0c-0.1,0-0.1-0.1-0.1-0.1C19.8,22.3,19.8,22.3,19.8,22.2z M19.7,23.3
		c0.1,0.1,0.2,0.2,0.3,0.3c0,0,0.1,0,0.1,0c0,0-0.1,0.1-0.1,0.2c0,0-0.1,0-0.1,0c0,0-0.1,0.1-0.1,0.1c0,0,0,0,0,0
		c-0.1,0-0.2-0.1-0.3-0.2c0-0.1-0.1-0.2,0-0.3C19.4,23.3,19.6,23.2,19.7,23.3z M19.3,22.5c0-0.1,0.1-0.1,0.2,0
		c0.1,0.1,0,0.1-0.1,0.3c0,0,0,0.1,0,0.1c-0.1,0-0.1,0-0.1,0C19.3,22.6,19.3,22.6,19.3,22.5z M19,25.3C19,25.3,19,25.3,19,25.3
		c0.1-0.1,0-0.2,0.1-0.2c0,0,0,0.1,0.1,0.1c0,0,0,0,0,0.1c0,0,0,0.1,0,0.1c0,0,0,0.1-0.1,0.1C19,25.5,19.1,25.4,19,25.3
		C19,25.3,19,25.3,19,25.3z M18.1,24.4C18.1,24.4,18.1,24.4,18.1,24.4c0.1,0,0.1,0,0.1,0c0,0,0,0.1,0,0.1
		C18.2,24.5,18.2,24.5,18.1,24.4c0.1,0.1,0.1,0.1,0.1,0.1c0,0,0,0,0,0c0,0,0-0.1,0-0.1c0,0,0,0,0,0.1c0,0,0.1,0,0.1,0
		c0,0,0,0.1,0,0.1c0,0,0,0.1,0,0.1c0,0,0,0-0.1,0c0,0,0,0.1,0,0.1c0,0,0-0.1-0.1-0.1c0,0,0,0,0-0.1c0,0-0.1,0-0.1-0.1
		c0,0,0-0.1,0-0.1c0,0,0,0,0,0c0,0,0-0.1,0-0.1c0,0,0,0,0,0C18.1,24.5,18.1,24.5,18.1,24.4C18.1,24.5,18.1,24.5,18.1,24.4z
		 M18.1,26.3c0,0,0.1,0,0.1,0.1c0,0,0,0,0,0.1c0,0.1,0,0-0.1,0.1c0,0,0,0.1-0.1,0c0,0,0,0,0-0.1c0,0,0,0,0,0
		C18.1,26.4,18.1,26.3,18.1,26.3z M17.7,25.1c0-0.1,0.1-0.1,0.1-0.1c0.1-0.1,0.3-0.1,0.4,0c0.1,0.1,0.1,0.2,0.1,0.2
		c0,0.1-0.1,0.1-0.1,0.2c0,0,0,0.1,0,0.1c0,0,0,0-0.1,0c0,0,0-0.1-0.1-0.1c-0.1,0-0.1-0.1-0.2-0.1C17.7,25.2,17.7,25.2,17.7,25.1z
		 M17.9,25.9c0,0,0-0.1,0-0.1c0,0,0,0,0-0.1c0,0-0.1-0.1-0.1-0.1c0,0,0.1,0,0.1,0c0,0,0,0,0.1,0c0.1,0,0.1-0.1,0.2-0.1
		c0.1,0,0.1,0.1,0.1,0.2c0,0,0,0.1,0,0.1c0,0,0,0,0,0c0,0.1,0,0.1-0.1,0.1c0,0,0,0,0,0c0,0,0-0.1,0-0.1C18,25.9,17.9,25.9,17.9,25.9
		z M18.4,27.4c-0.1,0.1-0.2,0-0.4,0c0,0,0.1,0,0.1-0.1c0-0.1,0-0.2,0.1-0.2c0.1,0,0.1,0,0.2,0.1c0,0,0,0,0,0
		C18.3,27.3,18.4,27.4,18.4,27.4z M18.4,26.8C18.4,26.8,18.3,26.8,18.4,26.8c-0.1,0.1-0.1,0.2-0.1,0.2c0,0,0,0,0,0
		c0,0,0-0.1-0.1-0.1c0,0-0.1,0.1-0.1,0c0,0-0.1,0-0.1-0.1c0,0,0.1,0,0.1,0c0,0,0,0,0,0c0,0,0-0.1,0.1-0.1c0,0,0.1,0,0.1,0
		C18.3,26.7,18.3,26.8,18.4,26.8C18.4,26.8,18.4,26.7,18.4,26.8C18.5,26.8,18.4,26.8,18.4,26.8z M18.6,23.9
		C18.6,23.9,18.6,23.9,18.6,23.9c-0.1-0.1-0.2-0.1-0.1-0.1c0.1-0.1,0.1-0.1,0.2-0.2c0.1,0,0.1,0,0.1,0.1c0,0,0.1,0,0.1,0
		c0,0,0,0,0,0c0,0.1,0,0.1-0.1,0.1C18.7,23.9,18.7,23.8,18.6,23.9C18.6,23.8,18.6,23.9,18.6,23.9z M18.8,26c-0.1,0-0.1-0.1-0.1-0.1
		c0,0-0.1-0.1,0-0.1c0.1-0.1,0.2-0.1,0.3-0.2c0,0,0,0,0,0c0,0,0.1,0,0.1,0c0,0,0,0,0,0c0,0,0,0.1,0,0.1c0,0,0,0.1-0.1,0.1
		C19,26,18.9,26,18.8,26C18.8,26,18.8,26,18.8,26z M19.3,26.7c-0.2,0-0.2,0-0.4-0.1c0,0,0,0,0-0.1c0.1-0.1,0.1-0.1,0.2-0.1
		c0.1,0,0.1,0.1,0.2,0.2c0,0,0.1,0,0.1,0C19.4,26.6,19.3,26.7,19.3,26.7z M19.5,25.1C19.4,25.1,19.4,25.1,19.5,25.1
		C19.4,25.1,19.4,25.2,19.5,25.1c-0.1,0.1-0.2,0-0.2,0c0,0,0,0,0-0.1c0,0,0-0.1,0-0.1c0,0,0,0,0,0c0,0,0,0,0,0c0-0.1-0.1-0.1,0-0.2
		c0-0.1,0.1-0.1,0.1-0.1c0,0,0-0.1,0-0.1c0,0,0,0.1,0,0.1c0,0.1,0.1,0.1,0.1,0.2c0,0.1-0.1,0.1-0.2,0.1c0,0,0,0,0,0c0,0,0,0,0,0.1
		c0,0,0.1,0,0.1,0C19.7,25.1,19.6,25.1,19.5,25.1z M19.9,26.3c-0.1,0-0.1,0-0.1,0c0,0,0,0,0,0c-0.1,0-0.1-0.1-0.1-0.1c0,0,0,0,0-0.1
		c0-0.1,0-0.2,0.1-0.2c0,0,0.1,0.1,0.1,0.1c0,0,0,0.1,0.1,0.1c0,0,0.1,0,0.1,0c0,0-0.1,0.1-0.1,0.1C20,26.3,20,26.3,19.9,26.3z
		 M20.2,26.7C20.2,26.7,20.2,26.8,20.2,26.7c-0.1,0.1-0.1,0-0.2-0.1c0,0,0-0.1,0.1-0.1c0,0,0-0.1,0.1-0.1c0,0,0.1,0,0.1,0.1
		c0,0,0,0.1,0,0.1c0,0,0,0,0,0c0,0,0,0,0,0C20.3,26.6,20.3,26.7,20.2,26.7C20.3,26.7,20.3,26.7,20.2,26.7z M20.7,26.9
		C20.7,26.9,20.7,26.9,20.7,26.9c-0.1,0-0.1,0.2-0.2,0.2c0,0,0,0,0,0c0,0,0,0,0,0c0,0-0.1-0.1-0.2-0.1c0-0.1,0-0.1,0.1-0.2
		c0,0,0.1,0,0.2,0c0,0,0.1,0,0.1,0.1C20.7,26.8,20.7,26.8,20.7,26.9C20.8,26.8,20.8,26.8,20.7,26.9C20.8,26.9,20.8,26.9,20.7,26.9z
		 M20.8,25.9C20.8,25.9,20.8,25.8,20.8,25.9c-0.1-0.2-0.3-0.3-0.1-0.7c0,0,0,0,0.1,0c0,0,0,0,0,0.1c0.1,0.1,0.3,0.1,0.3,0.2
		C21.1,25.5,21,25.7,20.8,25.9C20.8,25.9,20.8,25.9,20.8,25.9z M21.2,25.9C21.2,26,21.2,26,21.2,25.9C21.2,26,21.1,26,21.2,25.9
		c-0.1,0.1,0,0.2-0.1,0.2c0,0,0-0.1-0.1-0.1c0,0,0,0,0,0c0,0-0.1,0-0.1-0.1c0,0,0-0.1,0-0.1c0,0,0.1,0,0.1,0c0,0,0-0.1,0-0.1
		c0.1,0,0,0,0,0.1C21.2,25.8,21.2,25.8,21.2,25.9C21.2,25.9,21.2,25.9,21.2,25.9z M21.6,25.4C21.6,25.4,21.5,25.4,21.6,25.4
		c-0.1,0-0.1,0.1-0.2,0.1c-0.1,0-0.1-0.2-0.2-0.2c0,0,0-0.1,0.1-0.1c0,0,0-0.1,0-0.1c0,0,0,0,0,0c0,0,0,0,0,0c0.1,0,0.3,0,0.3,0.2
		C21.6,25.3,21.6,25.4,21.6,25.4z M21.6,15.7c0,0,0.1,0,0.1-0.1c0.1,0,0.1,0,0.2,0c0.1-0.1,0.2-0.1,0.3-0.1c0.1,0,0.2,0.1,0.2,0.1
		c0.1,0.1,0,0.3-0.1,0.4c-0.1,0-0.1,0-0.2,0c-0.1,0-0.2,0-0.2,0c0,0,0-0.1-0.1-0.1c0,0,0-0.1-0.1-0.1C21.7,15.8,21.6,15.8,21.6,15.7
		z M21.8,25.3C21.8,25.3,21.8,25.3,21.8,25.3c-0.1,0-0.1,0-0.1,0c-0.1-0.1-0.1-0.3,0.1-0.4c0,0,0,0,0,0c0,0,0.1,0,0.1,0
		C22,25,22,25.1,22,25.1C22,25.2,21.9,25.2,21.8,25.3z M22.2,24.8C22.2,24.8,22.1,24.8,22.2,24.8c-0.1,0,0,0.1,0,0.1
		C22.1,24.9,22.1,24.9,22.2,24.8c-0.1,0.1-0.1,0-0.1,0c0,0-0.1,0-0.1,0c0,0,0-0.1-0.1-0.1c0,0,0-0.1,0-0.1c-0.2-0.2-0.2-0.3-0.1-0.7
		c0,0,0,0,0,0c0,0,0,0,0.1,0c0,0,0,0.1,0,0.1c0,0,0.1,0,0.2,0c0.1,0.2,0.2,0.4,0.2,0.6C22.2,24.7,22.2,24.8,22.2,24.8z M22.1,23.2
		C22.1,23.2,22.1,23.2,22.1,23.2c-0.1,0-0.2,0-0.2,0c0,0,0-0.1-0.1-0.2c0,0,0-0.1,0.1-0.1c0.1-0.1,0.1-0.1,0.2-0.1
		c0.1,0,0.2,0.1,0.2,0.2c0,0,0,0,0,0.1c0,0,0,0,0,0C22.3,23.1,22.2,23.2,22.1,23.2z M22.5,23.3C22.5,23.3,22.5,23.3,22.5,23.3
		c0,0-0.1,0-0.1,0c0,0,0,0,0-0.1c0,0,0,0,0-0.1c0,0,0-0.1,0-0.1c0,0,0,0,0,0c0,0,0.1,0,0.1,0c0,0,0,0,0,0c0,0,0.1,0,0.1,0.1
		c0,0,0.1,0,0.1,0.1C22.6,23.3,22.5,23.3,22.5,23.3z M22.8,23.1c-0.1,0-0.1,0-0.1-0.1c0,0-0.1-0.1-0.1-0.1c0-0.1,0-0.1,0.1-0.2
		c0.1-0.1,0.1,0,0.2,0c0.2,0,0.3,0.1,0.3,0.2c0,0,0,0,0,0.1c0,0-0.1,0-0.1,0c0,0,0,0,0,0C22.9,23.1,22.9,23.1,22.8,23.1
		C22.8,23.1,22.8,23.1,22.8,23.1z M23.2,24.8C23.2,24.8,23.2,24.8,23.2,24.8c-0.1,0.1-0.1,0.2-0.2,0.2c0,0,0,0,0,0
		c-0.1,0-0.1-0.1-0.1-0.1c0,0-0.1,0-0.1,0c0,0,0-0.1,0-0.1c0,0,0.1,0,0.1,0c0,0,0,0,0,0c0,0,0.1-0.1,0.1-0.1c0,0,0.1,0,0.1,0
		C23.2,24.6,23.2,24.7,23.2,24.8C23.2,24.7,23.3,24.7,23.2,24.8C23.3,24.8,23.3,24.7,23.2,24.8z M23.4,24.1
		C23.4,24.1,23.4,24.1,23.4,24.1C23.4,24.1,23.4,24.2,23.4,24.1c-0.1,0.1-0.2,0.1-0.2,0.1c0,0,0,0,0,0c-0.1,0-0.1,0-0.2,0
		c0,0,0,0,0,0c0,0,0,0,0-0.1c0,0,0,0,0,0c0,0,0,0,0,0c0,0,0.1-0.1,0.1-0.1c0.1,0,0.1,0.1,0.1,0.1c0,0,0.1,0,0.1,0c0,0,0,0,0,0
		C23.5,24,23.5,24,23.4,24.1z M23.9,22.9c-0.1,0-0.1,0.2-0.2,0.2c0,0-0.1,0-0.1,0c0,0,0,0,0,0c0,0,0,0.1-0.1,0
		c-0.1-0.1-0.1-0.2-0.1-0.3c0-0.1,0.1-0.1,0.2-0.2c0.1-0.1,0.1-0.1,0.3-0.2c0,0,0,0,0,0c0,0,0.1,0,0.1,0c0,0,0.1,0.1,0.1,0.1
		c0.1,0.1,0.1,0.1,0.1,0.1C24,22.9,23.9,22.9,23.9,22.9z M23.8,21.4c0,0,0,0.1,0,0.1C23.8,21.5,23.8,21.5,23.8,21.4
		c-0.2,0-0.2-0.1-0.2-0.2c0-0.1,0-0.1,0.1-0.2c0,0,0,0,0,0c0,0,0-0.1,0.1,0c0.1,0.1,0.1,0.2,0.1,0.2C24,21.3,23.9,21.3,23.8,21.4z
		 M24.5,20.7c0,0.3-0.1,0.3-0.3,0.4c0,0,0,0.1,0,0.1C24.1,21.2,24,21,24,21c0-0.1,0-0.2,0.2-0.2c0.1,0,0.1-0.1,0.2-0.1
		C24.4,20.6,24.4,20.6,24.5,20.7C24.5,20.6,24.5,20.7,24.5,20.7C24.5,20.7,24.5,20.7,24.5,20.7z M24.5,19.9
		C24.5,19.9,24.5,19.9,24.5,19.9C24.4,19.9,24.5,20,24.5,19.9C24.5,20,24.5,20,24.5,19.9c-0.2,0-0.2,0-0.3-0.1c0,0-0.1-0.1-0.1-0.1
		c0-0.1,0.1-0.1,0.1-0.1c0,0,0.1,0,0.1,0c0,0,0,0,0,0c0.1,0,0,0,0.1,0.1c0.1,0.1,0.1,0.1,0.2,0.2C24.6,19.8,24.6,19.9,24.5,19.9z
		 M24.9,21.6c0,0.1-0.1,0-0.1,0c0,0,0,0.1,0,0.1c0,0-0.1-0.1-0.2-0.1c0,0,0,0,0,0c0,0-0.1,0-0.1,0c0-0.1,0.1-0.1,0.1-0.2
		c0,0,0.1,0,0.2,0C24.9,21.4,24.9,21.4,24.9,21.6C24.9,21.5,24.9,21.5,24.9,21.6z M25,18.3c0,0.1-0.1,0.3-0.2,0.3c0,0-0.1,0-0.1,0
		c-0.1,0-0.3-0.1-0.4-0.1c0,0-0.1,0.1-0.1,0.1c0,0-0.1-0.1-0.1-0.1c0,0,0-0.1,0-0.1c0,0-0.1,0,0-0.1c0,0,0,0,0.1,0
		c0.1,0,0.2-0.1,0.2-0.1c0.2-0.1,0.3-0.1,0.5,0c0,0,0,0,0.1,0C24.9,18.1,25,18.1,25,18.3z"/>
	<path id="XMLID_4619_" class="st0" d="M7.3,3.5c-0.2,0-0.4,0.2-0.4,0.4c0,0.2,0,0.4,0.1,0.6C7,4.9,7.2,5.2,7.4,5.4
		c0.2,0.3,0.6,0.5,1,0.5c0.4,0,0.8-0.2,1-0.7C9.6,4.8,9.5,4.4,9.2,4C8.8,3.6,8.4,3.4,8,3.4c0,0-0.1,0-0.1,0c-0.1,0-0.1,0-0.2,0
		C7.5,3.5,7.4,3.5,7.3,3.5z M7.5,4.7L7.5,4.7L7.5,4.7c-0.1,0-0.1,0-0.2,0C7.3,4.6,7.2,4.6,7.2,4.5c0,0,0-0.1,0-0.2
		c0,0,0.1-0.1,0.2-0.1c0.1,0,0.1,0.1,0.2,0.1C7.6,4.5,7.6,4.6,7.5,4.7z M8.1,4.9c0,0,0,0.1-0.1,0.1l0,0l0,0c0,0-0.1,0-0.1-0.1
		c0,0,0-0.1,0-0.1c0,0,0,0,0,0l0-0.1l0,0.1c0,0,0,0,0,0C8.1,4.8,8.1,4.8,8.1,4.9z M8.6,5.2C8.5,5.2,8.5,5.2,8.6,5.2
		C8.5,5.3,8.4,5.3,8.4,5.3c0,0,0,0,0,0h0c0,0-0.1,0-0.1-0.1c0,0,0,0,0,0l0,0l0,0c0,0,0,0,0,0c0,0,0.1-0.1,0.1-0.1c0,0,0.1,0,0.1,0.1
		C8.5,5.1,8.5,5.1,8.6,5.2L8.6,5.2L8.6,5.2z M8.4,4.2c0.1,0,0.1,0,0.1,0c0,0,0.1,0.1,0.1,0.1c0,0.1,0.1,0.2,0.1,0.3
		c0,0.1,0,0.1,0,0.2l0,0.1l-0.1,0c0,0-0.1,0-0.1,0c-0.1,0-0.2,0-0.3-0.1c-0.1,0-0.1-0.1-0.1-0.1C8.1,4.5,8.3,4.3,8.4,4.2z M7.9,4
		c0.1,0,0.1,0,0.2,0.1c0,0,0.1,0.1,0.1,0.2c0,0.1,0,0.1-0.1,0.2c0,0-0.1,0-0.1,0c0,0,0,0,0,0c-0.1,0-0.2-0.1-0.2-0.1
		c0-0.1-0.1-0.1-0.1-0.2C7.7,4.1,7.8,4,7.9,4z"/>
</g>
</svg>
